M48
; DRILL file {KiCad (6.0.6)} date Sun Aug 14 12:46:19 2022
; FORMAT={-:-/ absolute / inch / decimal}
; #@! TF.CreationDate,2022-08-14T12:46:19-07:00
; #@! TF.GenerationSoftware,Kicad,Pcbnew,(6.0.6)
; #@! TF.FileFunction,Plated,1,2,PTH
FMAT,2
INCH
; #@! TA.AperFunction,Plated,PTH,ComponentDrill
T1C0.0315
; #@! TA.AperFunction,Plated,PTH,ComponentDrill
T2C0.0394
; #@! TA.AperFunction,Plated,PTH,ComponentDrill
T3C0.0551
; #@! TA.AperFunction,Plated,PTH,ComponentDrill
T4C0.0709
; #@! TA.AperFunction,Plated,PTH,ComponentDrill
T5C0.0827
%
G90
G05
T1
X0.0437Y-3.1324
X0.0917Y-1.7704
X0.0917Y-2.0704
X0.0937Y-0.5217
X0.0937Y-0.8217
X0.0937Y-2.1644
X0.0937Y-2.4644
X0.2377Y-2.4344
X0.2437Y-0.7217
X0.3437Y-3.1324
X0.4437Y-3.1324
X0.5377Y-2.4344
X0.5437Y-0.7217
X0.6437Y-2.0964
X0.6437Y-2.3964
X0.6937Y-0.3967
X0.6937Y-0.6967
X0.6937Y-0.8467
X0.6937Y-1.1467
X0.7437Y-3.1324
T2
X0.1437Y-3.2624
X0.2437Y-3.2624
X0.2441Y-1.5967
X0.2953Y-0.5784
X0.2953Y-1.4237
X0.2953Y-2.2669
X0.3437Y-3.2624
X0.3441Y-1.5967
X0.3937Y-0.5784
X0.3937Y-1.4237
X0.3937Y-2.2669
X0.4437Y-3.2624
X0.4441Y-1.5967
X0.4921Y-0.5784
X0.4921Y-1.4237
X0.4921Y-2.2669
X0.5437Y-3.2624
X0.5441Y-1.5967
X0.6437Y-3.2624
T3
X0.1937Y-3.428
X0.1937Y-3.7547
X0.1937Y-3.8768
X0.5937Y-2.578
X0.5937Y-2.9047
X0.5937Y-3.0268
X0.5937Y-3.428
X0.5937Y-3.7547
X0.5937Y-3.8768
T4
X0.2047Y-0.2832
X0.2047Y-1.1284
X0.2047Y-1.9717
X0.5827Y-0.2832
X0.5827Y-1.1284
X0.5827Y-1.9717
T5
X0.1937Y-2.5931
X0.1937Y-2.7781
X0.1937Y-2.9632
T0
M30
