%TF.GenerationSoftware,KiCad,Pcbnew,(5.1.8)-1*%
%TF.CreationDate,2020-11-09T21:18:24-08:00*%
%TF.ProjectId,BufferedMult,42756666-6572-4656-944d-756c742e6b69,rev?*%
%TF.SameCoordinates,Original*%
%TF.FileFunction,Legend,Top*%
%TF.FilePolarity,Positive*%
%FSLAX46Y46*%
G04 Gerber Fmt 4.6, Leading zero omitted, Abs format (unit mm)*
G04 Created by KiCad (PCBNEW (5.1.8)-1) date 2020-11-09 21:18:24*
%MOMM*%
%LPD*%
G01*
G04 APERTURE LIST*
%ADD10C,0.120000*%
%ADD11C,0.150000*%
G04 APERTURE END LIST*
D10*
%TO.C,U2*%
X122920000Y-45660000D02*
G75*
G02*
X120920000Y-45660000I-1000000J0D01*
G01*
X120920000Y-45660000D02*
X119270000Y-45660000D01*
X119270000Y-45660000D02*
X119270000Y-63560000D01*
X119270000Y-63560000D02*
X124570000Y-63560000D01*
X124570000Y-63560000D02*
X124570000Y-45660000D01*
X124570000Y-45660000D02*
X122920000Y-45660000D01*
X116780000Y-45600000D02*
X116780000Y-63620000D01*
X116780000Y-63620000D02*
X127060000Y-63620000D01*
X127060000Y-63620000D02*
X127060000Y-45600000D01*
X127060000Y-45600000D02*
X116780000Y-45600000D01*
%TO.C,R10*%
X136620000Y-50570000D02*
X136620000Y-50900000D01*
X136620000Y-50900000D02*
X130080000Y-50900000D01*
X130080000Y-50900000D02*
X130080000Y-50570000D01*
X136620000Y-48490000D02*
X136620000Y-48160000D01*
X136620000Y-48160000D02*
X130080000Y-48160000D01*
X130080000Y-48160000D02*
X130080000Y-48490000D01*
%TO.C,U1*%
X122920000Y-66340000D02*
G75*
G02*
X120920000Y-66340000I-1000000J0D01*
G01*
X120920000Y-66340000D02*
X119270000Y-66340000D01*
X119270000Y-66340000D02*
X119270000Y-84240000D01*
X119270000Y-84240000D02*
X124570000Y-84240000D01*
X124570000Y-84240000D02*
X124570000Y-66340000D01*
X124570000Y-66340000D02*
X122920000Y-66340000D01*
X116780000Y-66280000D02*
X116780000Y-84300000D01*
X116780000Y-84300000D02*
X127060000Y-84300000D01*
X127060000Y-84300000D02*
X127060000Y-66280000D01*
X127060000Y-66280000D02*
X116780000Y-66280000D01*
%TO.C,R9*%
X136620000Y-60730000D02*
X136620000Y-61060000D01*
X136620000Y-61060000D02*
X130080000Y-61060000D01*
X130080000Y-61060000D02*
X130080000Y-60730000D01*
X136620000Y-58650000D02*
X136620000Y-58320000D01*
X136620000Y-58320000D02*
X130080000Y-58320000D01*
X130080000Y-58320000D02*
X130080000Y-58650000D01*
%TO.C,R8*%
X107220000Y-58650000D02*
X107220000Y-58320000D01*
X107220000Y-58320000D02*
X113760000Y-58320000D01*
X113760000Y-58320000D02*
X113760000Y-58650000D01*
X107220000Y-60730000D02*
X107220000Y-61060000D01*
X107220000Y-61060000D02*
X113760000Y-61060000D01*
X113760000Y-61060000D02*
X113760000Y-60730000D01*
%TO.C,R7*%
X107220000Y-48490000D02*
X107220000Y-48160000D01*
X107220000Y-48160000D02*
X113760000Y-48160000D01*
X113760000Y-48160000D02*
X113760000Y-48490000D01*
X107220000Y-50570000D02*
X107220000Y-50900000D01*
X107220000Y-50900000D02*
X113760000Y-50900000D01*
X113760000Y-50900000D02*
X113760000Y-50570000D01*
%TO.C,R6*%
X136620000Y-55650000D02*
X136620000Y-55980000D01*
X136620000Y-55980000D02*
X130080000Y-55980000D01*
X130080000Y-55980000D02*
X130080000Y-55650000D01*
X136620000Y-53570000D02*
X136620000Y-53240000D01*
X136620000Y-53240000D02*
X130080000Y-53240000D01*
X130080000Y-53240000D02*
X130080000Y-53570000D01*
%TO.C,R5*%
X136620000Y-70890000D02*
X136620000Y-71220000D01*
X136620000Y-71220000D02*
X130080000Y-71220000D01*
X130080000Y-71220000D02*
X130080000Y-70890000D01*
X136620000Y-68810000D02*
X136620000Y-68480000D01*
X136620000Y-68480000D02*
X130080000Y-68480000D01*
X130080000Y-68480000D02*
X130080000Y-68810000D01*
%TO.C,R4*%
X136620000Y-81050000D02*
X136620000Y-81380000D01*
X136620000Y-81380000D02*
X130080000Y-81380000D01*
X130080000Y-81380000D02*
X130080000Y-81050000D01*
X136620000Y-78970000D02*
X136620000Y-78640000D01*
X136620000Y-78640000D02*
X130080000Y-78640000D01*
X130080000Y-78640000D02*
X130080000Y-78970000D01*
%TO.C,R3*%
X107220000Y-78970000D02*
X107220000Y-78640000D01*
X107220000Y-78640000D02*
X113760000Y-78640000D01*
X113760000Y-78640000D02*
X113760000Y-78970000D01*
X107220000Y-81050000D02*
X107220000Y-81380000D01*
X107220000Y-81380000D02*
X113760000Y-81380000D01*
X113760000Y-81380000D02*
X113760000Y-81050000D01*
%TO.C,R2*%
X107220000Y-66530000D02*
X107220000Y-66200000D01*
X107220000Y-66200000D02*
X113760000Y-66200000D01*
X113760000Y-66200000D02*
X113760000Y-66530000D01*
X107220000Y-68610000D02*
X107220000Y-68940000D01*
X107220000Y-68940000D02*
X113760000Y-68940000D01*
X113760000Y-68940000D02*
X113760000Y-68610000D01*
%TO.C,R1*%
X107220000Y-71350000D02*
X107220000Y-71020000D01*
X107220000Y-71020000D02*
X113760000Y-71020000D01*
X113760000Y-71020000D02*
X113760000Y-71350000D01*
X107220000Y-73430000D02*
X107220000Y-73760000D01*
X107220000Y-73760000D02*
X113760000Y-73760000D01*
X113760000Y-73760000D02*
X113760000Y-73430000D01*
%TO.C,J2*%
X127060000Y-35620000D02*
X127060000Y-30420000D01*
X116840000Y-35620000D02*
X127060000Y-35620000D01*
X114240000Y-30420000D02*
X127060000Y-30420000D01*
X116840000Y-35620000D02*
X116840000Y-33020000D01*
X116840000Y-33020000D02*
X114240000Y-33020000D01*
X114240000Y-33020000D02*
X114240000Y-30420000D01*
X115570000Y-35620000D02*
X114240000Y-35620000D01*
X114240000Y-35620000D02*
X114240000Y-34290000D01*
%TO.C,C6*%
X120900000Y-43260000D02*
X110360000Y-43260000D01*
X120900000Y-38020000D02*
X110360000Y-38020000D01*
X120900000Y-43260000D02*
X120900000Y-38020000D01*
X110360000Y-43260000D02*
X110360000Y-38020000D01*
%TO.C,C5*%
X134870000Y-94060000D02*
X124330000Y-94060000D01*
X134870000Y-88820000D02*
X124330000Y-88820000D01*
X134870000Y-94060000D02*
X134870000Y-88820000D01*
X124330000Y-94060000D02*
X124330000Y-88820000D01*
%TO.C,C4*%
X122940000Y-38020000D02*
X133480000Y-38020000D01*
X122940000Y-43260000D02*
X133480000Y-43260000D01*
X122940000Y-38020000D02*
X122940000Y-43260000D01*
X133480000Y-38020000D02*
X133480000Y-43260000D01*
%TO.C,C3*%
X120900000Y-94060000D02*
X110360000Y-94060000D01*
X120900000Y-88820000D02*
X110360000Y-88820000D01*
X120900000Y-94060000D02*
X120900000Y-88820000D01*
X110360000Y-94060000D02*
X110360000Y-88820000D01*
%TO.C,C2*%
X134700000Y-33290000D02*
G75*
G03*
X134700000Y-33290000I-2620000J0D01*
G01*
%TO.C,C1*%
X109840000Y-34020000D02*
G75*
G03*
X109840000Y-34020000I-2620000J0D01*
G01*
%TO.C,U2*%
D11*
X121158095Y-44112380D02*
X121158095Y-44921904D01*
X121205714Y-45017142D01*
X121253333Y-45064761D01*
X121348571Y-45112380D01*
X121539047Y-45112380D01*
X121634285Y-45064761D01*
X121681904Y-45017142D01*
X121729523Y-44921904D01*
X121729523Y-44112380D01*
X122158095Y-44207619D02*
X122205714Y-44160000D01*
X122300952Y-44112380D01*
X122539047Y-44112380D01*
X122634285Y-44160000D01*
X122681904Y-44207619D01*
X122729523Y-44302857D01*
X122729523Y-44398095D01*
X122681904Y-44540952D01*
X122110476Y-45112380D01*
X122729523Y-45112380D01*
%TO.C,R10*%
X132707142Y-52352380D02*
X132373809Y-51876190D01*
X132135714Y-52352380D02*
X132135714Y-51352380D01*
X132516666Y-51352380D01*
X132611904Y-51400000D01*
X132659523Y-51447619D01*
X132707142Y-51542857D01*
X132707142Y-51685714D01*
X132659523Y-51780952D01*
X132611904Y-51828571D01*
X132516666Y-51876190D01*
X132135714Y-51876190D01*
X133659523Y-52352380D02*
X133088095Y-52352380D01*
X133373809Y-52352380D02*
X133373809Y-51352380D01*
X133278571Y-51495238D01*
X133183333Y-51590476D01*
X133088095Y-51638095D01*
X134278571Y-51352380D02*
X134373809Y-51352380D01*
X134469047Y-51400000D01*
X134516666Y-51447619D01*
X134564285Y-51542857D01*
X134611904Y-51733333D01*
X134611904Y-51971428D01*
X134564285Y-52161904D01*
X134516666Y-52257142D01*
X134469047Y-52304761D01*
X134373809Y-52352380D01*
X134278571Y-52352380D01*
X134183333Y-52304761D01*
X134135714Y-52257142D01*
X134088095Y-52161904D01*
X134040476Y-51971428D01*
X134040476Y-51733333D01*
X134088095Y-51542857D01*
X134135714Y-51447619D01*
X134183333Y-51400000D01*
X134278571Y-51352380D01*
%TO.C,U1*%
X121158095Y-64792380D02*
X121158095Y-65601904D01*
X121205714Y-65697142D01*
X121253333Y-65744761D01*
X121348571Y-65792380D01*
X121539047Y-65792380D01*
X121634285Y-65744761D01*
X121681904Y-65697142D01*
X121729523Y-65601904D01*
X121729523Y-64792380D01*
X122729523Y-65792380D02*
X122158095Y-65792380D01*
X122443809Y-65792380D02*
X122443809Y-64792380D01*
X122348571Y-64935238D01*
X122253333Y-65030476D01*
X122158095Y-65078095D01*
%TO.C,R9*%
X133183333Y-62512380D02*
X132850000Y-62036190D01*
X132611904Y-62512380D02*
X132611904Y-61512380D01*
X132992857Y-61512380D01*
X133088095Y-61560000D01*
X133135714Y-61607619D01*
X133183333Y-61702857D01*
X133183333Y-61845714D01*
X133135714Y-61940952D01*
X133088095Y-61988571D01*
X132992857Y-62036190D01*
X132611904Y-62036190D01*
X133659523Y-62512380D02*
X133850000Y-62512380D01*
X133945238Y-62464761D01*
X133992857Y-62417142D01*
X134088095Y-62274285D01*
X134135714Y-62083809D01*
X134135714Y-61702857D01*
X134088095Y-61607619D01*
X134040476Y-61560000D01*
X133945238Y-61512380D01*
X133754761Y-61512380D01*
X133659523Y-61560000D01*
X133611904Y-61607619D01*
X133564285Y-61702857D01*
X133564285Y-61940952D01*
X133611904Y-62036190D01*
X133659523Y-62083809D01*
X133754761Y-62131428D01*
X133945238Y-62131428D01*
X134040476Y-62083809D01*
X134088095Y-62036190D01*
X134135714Y-61940952D01*
%TO.C,R8*%
X110323333Y-57772380D02*
X109990000Y-57296190D01*
X109751904Y-57772380D02*
X109751904Y-56772380D01*
X110132857Y-56772380D01*
X110228095Y-56820000D01*
X110275714Y-56867619D01*
X110323333Y-56962857D01*
X110323333Y-57105714D01*
X110275714Y-57200952D01*
X110228095Y-57248571D01*
X110132857Y-57296190D01*
X109751904Y-57296190D01*
X110894761Y-57200952D02*
X110799523Y-57153333D01*
X110751904Y-57105714D01*
X110704285Y-57010476D01*
X110704285Y-56962857D01*
X110751904Y-56867619D01*
X110799523Y-56820000D01*
X110894761Y-56772380D01*
X111085238Y-56772380D01*
X111180476Y-56820000D01*
X111228095Y-56867619D01*
X111275714Y-56962857D01*
X111275714Y-57010476D01*
X111228095Y-57105714D01*
X111180476Y-57153333D01*
X111085238Y-57200952D01*
X110894761Y-57200952D01*
X110799523Y-57248571D01*
X110751904Y-57296190D01*
X110704285Y-57391428D01*
X110704285Y-57581904D01*
X110751904Y-57677142D01*
X110799523Y-57724761D01*
X110894761Y-57772380D01*
X111085238Y-57772380D01*
X111180476Y-57724761D01*
X111228095Y-57677142D01*
X111275714Y-57581904D01*
X111275714Y-57391428D01*
X111228095Y-57296190D01*
X111180476Y-57248571D01*
X111085238Y-57200952D01*
%TO.C,R7*%
X110323333Y-47612380D02*
X109990000Y-47136190D01*
X109751904Y-47612380D02*
X109751904Y-46612380D01*
X110132857Y-46612380D01*
X110228095Y-46660000D01*
X110275714Y-46707619D01*
X110323333Y-46802857D01*
X110323333Y-46945714D01*
X110275714Y-47040952D01*
X110228095Y-47088571D01*
X110132857Y-47136190D01*
X109751904Y-47136190D01*
X110656666Y-46612380D02*
X111323333Y-46612380D01*
X110894761Y-47612380D01*
%TO.C,R6*%
X133183333Y-57432380D02*
X132850000Y-56956190D01*
X132611904Y-57432380D02*
X132611904Y-56432380D01*
X132992857Y-56432380D01*
X133088095Y-56480000D01*
X133135714Y-56527619D01*
X133183333Y-56622857D01*
X133183333Y-56765714D01*
X133135714Y-56860952D01*
X133088095Y-56908571D01*
X132992857Y-56956190D01*
X132611904Y-56956190D01*
X134040476Y-56432380D02*
X133850000Y-56432380D01*
X133754761Y-56480000D01*
X133707142Y-56527619D01*
X133611904Y-56670476D01*
X133564285Y-56860952D01*
X133564285Y-57241904D01*
X133611904Y-57337142D01*
X133659523Y-57384761D01*
X133754761Y-57432380D01*
X133945238Y-57432380D01*
X134040476Y-57384761D01*
X134088095Y-57337142D01*
X134135714Y-57241904D01*
X134135714Y-57003809D01*
X134088095Y-56908571D01*
X134040476Y-56860952D01*
X133945238Y-56813333D01*
X133754761Y-56813333D01*
X133659523Y-56860952D01*
X133611904Y-56908571D01*
X133564285Y-57003809D01*
%TO.C,R5*%
X133183333Y-72672380D02*
X132850000Y-72196190D01*
X132611904Y-72672380D02*
X132611904Y-71672380D01*
X132992857Y-71672380D01*
X133088095Y-71720000D01*
X133135714Y-71767619D01*
X133183333Y-71862857D01*
X133183333Y-72005714D01*
X133135714Y-72100952D01*
X133088095Y-72148571D01*
X132992857Y-72196190D01*
X132611904Y-72196190D01*
X134088095Y-71672380D02*
X133611904Y-71672380D01*
X133564285Y-72148571D01*
X133611904Y-72100952D01*
X133707142Y-72053333D01*
X133945238Y-72053333D01*
X134040476Y-72100952D01*
X134088095Y-72148571D01*
X134135714Y-72243809D01*
X134135714Y-72481904D01*
X134088095Y-72577142D01*
X134040476Y-72624761D01*
X133945238Y-72672380D01*
X133707142Y-72672380D01*
X133611904Y-72624761D01*
X133564285Y-72577142D01*
%TO.C,R4*%
X133183333Y-82832380D02*
X132850000Y-82356190D01*
X132611904Y-82832380D02*
X132611904Y-81832380D01*
X132992857Y-81832380D01*
X133088095Y-81880000D01*
X133135714Y-81927619D01*
X133183333Y-82022857D01*
X133183333Y-82165714D01*
X133135714Y-82260952D01*
X133088095Y-82308571D01*
X132992857Y-82356190D01*
X132611904Y-82356190D01*
X134040476Y-82165714D02*
X134040476Y-82832380D01*
X133802380Y-81784761D02*
X133564285Y-82499047D01*
X134183333Y-82499047D01*
%TO.C,R3*%
X110323333Y-78092380D02*
X109990000Y-77616190D01*
X109751904Y-78092380D02*
X109751904Y-77092380D01*
X110132857Y-77092380D01*
X110228095Y-77140000D01*
X110275714Y-77187619D01*
X110323333Y-77282857D01*
X110323333Y-77425714D01*
X110275714Y-77520952D01*
X110228095Y-77568571D01*
X110132857Y-77616190D01*
X109751904Y-77616190D01*
X110656666Y-77092380D02*
X111275714Y-77092380D01*
X110942380Y-77473333D01*
X111085238Y-77473333D01*
X111180476Y-77520952D01*
X111228095Y-77568571D01*
X111275714Y-77663809D01*
X111275714Y-77901904D01*
X111228095Y-77997142D01*
X111180476Y-78044761D01*
X111085238Y-78092380D01*
X110799523Y-78092380D01*
X110704285Y-78044761D01*
X110656666Y-77997142D01*
%TO.C,R2*%
X110323333Y-65652380D02*
X109990000Y-65176190D01*
X109751904Y-65652380D02*
X109751904Y-64652380D01*
X110132857Y-64652380D01*
X110228095Y-64700000D01*
X110275714Y-64747619D01*
X110323333Y-64842857D01*
X110323333Y-64985714D01*
X110275714Y-65080952D01*
X110228095Y-65128571D01*
X110132857Y-65176190D01*
X109751904Y-65176190D01*
X110704285Y-64747619D02*
X110751904Y-64700000D01*
X110847142Y-64652380D01*
X111085238Y-64652380D01*
X111180476Y-64700000D01*
X111228095Y-64747619D01*
X111275714Y-64842857D01*
X111275714Y-64938095D01*
X111228095Y-65080952D01*
X110656666Y-65652380D01*
X111275714Y-65652380D01*
%TO.C,R1*%
X110323333Y-70472380D02*
X109990000Y-69996190D01*
X109751904Y-70472380D02*
X109751904Y-69472380D01*
X110132857Y-69472380D01*
X110228095Y-69520000D01*
X110275714Y-69567619D01*
X110323333Y-69662857D01*
X110323333Y-69805714D01*
X110275714Y-69900952D01*
X110228095Y-69948571D01*
X110132857Y-69996190D01*
X109751904Y-69996190D01*
X111275714Y-70472380D02*
X110704285Y-70472380D01*
X110990000Y-70472380D02*
X110990000Y-69472380D01*
X110894761Y-69615238D01*
X110799523Y-69710476D01*
X110704285Y-69758095D01*
%TO.C,J2*%
X112692380Y-33353333D02*
X113406666Y-33353333D01*
X113549523Y-33400952D01*
X113644761Y-33496190D01*
X113692380Y-33639047D01*
X113692380Y-33734285D01*
X112787619Y-32924761D02*
X112740000Y-32877142D01*
X112692380Y-32781904D01*
X112692380Y-32543809D01*
X112740000Y-32448571D01*
X112787619Y-32400952D01*
X112882857Y-32353333D01*
X112978095Y-32353333D01*
X113120952Y-32400952D01*
X113692380Y-32972380D01*
X113692380Y-32353333D01*
%TO.C,C6*%
X115463333Y-44747142D02*
X115415714Y-44794761D01*
X115272857Y-44842380D01*
X115177619Y-44842380D01*
X115034761Y-44794761D01*
X114939523Y-44699523D01*
X114891904Y-44604285D01*
X114844285Y-44413809D01*
X114844285Y-44270952D01*
X114891904Y-44080476D01*
X114939523Y-43985238D01*
X115034761Y-43890000D01*
X115177619Y-43842380D01*
X115272857Y-43842380D01*
X115415714Y-43890000D01*
X115463333Y-43937619D01*
X116320476Y-43842380D02*
X116130000Y-43842380D01*
X116034761Y-43890000D01*
X115987142Y-43937619D01*
X115891904Y-44080476D01*
X115844285Y-44270952D01*
X115844285Y-44651904D01*
X115891904Y-44747142D01*
X115939523Y-44794761D01*
X116034761Y-44842380D01*
X116225238Y-44842380D01*
X116320476Y-44794761D01*
X116368095Y-44747142D01*
X116415714Y-44651904D01*
X116415714Y-44413809D01*
X116368095Y-44318571D01*
X116320476Y-44270952D01*
X116225238Y-44223333D01*
X116034761Y-44223333D01*
X115939523Y-44270952D01*
X115891904Y-44318571D01*
X115844285Y-44413809D01*
%TO.C,C5*%
X129433333Y-95547142D02*
X129385714Y-95594761D01*
X129242857Y-95642380D01*
X129147619Y-95642380D01*
X129004761Y-95594761D01*
X128909523Y-95499523D01*
X128861904Y-95404285D01*
X128814285Y-95213809D01*
X128814285Y-95070952D01*
X128861904Y-94880476D01*
X128909523Y-94785238D01*
X129004761Y-94690000D01*
X129147619Y-94642380D01*
X129242857Y-94642380D01*
X129385714Y-94690000D01*
X129433333Y-94737619D01*
X130338095Y-94642380D02*
X129861904Y-94642380D01*
X129814285Y-95118571D01*
X129861904Y-95070952D01*
X129957142Y-95023333D01*
X130195238Y-95023333D01*
X130290476Y-95070952D01*
X130338095Y-95118571D01*
X130385714Y-95213809D01*
X130385714Y-95451904D01*
X130338095Y-95547142D01*
X130290476Y-95594761D01*
X130195238Y-95642380D01*
X129957142Y-95642380D01*
X129861904Y-95594761D01*
X129814285Y-95547142D01*
%TO.C,C4*%
X128043333Y-37247142D02*
X127995714Y-37294761D01*
X127852857Y-37342380D01*
X127757619Y-37342380D01*
X127614761Y-37294761D01*
X127519523Y-37199523D01*
X127471904Y-37104285D01*
X127424285Y-36913809D01*
X127424285Y-36770952D01*
X127471904Y-36580476D01*
X127519523Y-36485238D01*
X127614761Y-36390000D01*
X127757619Y-36342380D01*
X127852857Y-36342380D01*
X127995714Y-36390000D01*
X128043333Y-36437619D01*
X128900476Y-36675714D02*
X128900476Y-37342380D01*
X128662380Y-36294761D02*
X128424285Y-37009047D01*
X129043333Y-37009047D01*
%TO.C,C3*%
X115463333Y-95547142D02*
X115415714Y-95594761D01*
X115272857Y-95642380D01*
X115177619Y-95642380D01*
X115034761Y-95594761D01*
X114939523Y-95499523D01*
X114891904Y-95404285D01*
X114844285Y-95213809D01*
X114844285Y-95070952D01*
X114891904Y-94880476D01*
X114939523Y-94785238D01*
X115034761Y-94690000D01*
X115177619Y-94642380D01*
X115272857Y-94642380D01*
X115415714Y-94690000D01*
X115463333Y-94737619D01*
X115796666Y-94642380D02*
X116415714Y-94642380D01*
X116082380Y-95023333D01*
X116225238Y-95023333D01*
X116320476Y-95070952D01*
X116368095Y-95118571D01*
X116415714Y-95213809D01*
X116415714Y-95451904D01*
X116368095Y-95547142D01*
X116320476Y-95594761D01*
X116225238Y-95642380D01*
X115939523Y-95642380D01*
X115844285Y-95594761D01*
X115796666Y-95547142D01*
%TO.C,C2*%
X128687142Y-33456666D02*
X128734761Y-33504285D01*
X128782380Y-33647142D01*
X128782380Y-33742380D01*
X128734761Y-33885238D01*
X128639523Y-33980476D01*
X128544285Y-34028095D01*
X128353809Y-34075714D01*
X128210952Y-34075714D01*
X128020476Y-34028095D01*
X127925238Y-33980476D01*
X127830000Y-33885238D01*
X127782380Y-33742380D01*
X127782380Y-33647142D01*
X127830000Y-33504285D01*
X127877619Y-33456666D01*
X127877619Y-33075714D02*
X127830000Y-33028095D01*
X127782380Y-32932857D01*
X127782380Y-32694761D01*
X127830000Y-32599523D01*
X127877619Y-32551904D01*
X127972857Y-32504285D01*
X128068095Y-32504285D01*
X128210952Y-32551904D01*
X128782380Y-33123333D01*
X128782380Y-32504285D01*
%TO.C,C1*%
X111327142Y-34186666D02*
X111374761Y-34234285D01*
X111422380Y-34377142D01*
X111422380Y-34472380D01*
X111374761Y-34615238D01*
X111279523Y-34710476D01*
X111184285Y-34758095D01*
X110993809Y-34805714D01*
X110850952Y-34805714D01*
X110660476Y-34758095D01*
X110565238Y-34710476D01*
X110470000Y-34615238D01*
X110422380Y-34472380D01*
X110422380Y-34377142D01*
X110470000Y-34234285D01*
X110517619Y-34186666D01*
X111422380Y-33234285D02*
X111422380Y-33805714D01*
X111422380Y-33520000D02*
X110422380Y-33520000D01*
X110565238Y-33615238D01*
X110660476Y-33710476D01*
X110708095Y-33805714D01*
%TD*%
M02*
