%TF.GenerationSoftware,KiCad,Pcbnew,(6.0.6)*%
%TF.CreationDate,2022-08-15T09:47:57-07:00*%
%TF.ProjectId,ASREnvelope_power,41535245-6e76-4656-9c6f-70655f706f77,rev?*%
%TF.SameCoordinates,PXa16060cPY32056b8*%
%TF.FileFunction,Copper,L1,Top*%
%TF.FilePolarity,Positive*%
%FSLAX46Y46*%
G04 Gerber Fmt 4.6, Leading zero omitted, Abs format (unit mm)*
G04 Created by KiCad (PCBNEW (6.0.6)) date 2022-08-15 09:47:57*
%MOMM*%
%LPD*%
G01*
G04 APERTURE LIST*
%TA.AperFunction,ComponentPad*%
%ADD10C,1.600000*%
%TD*%
%TA.AperFunction,ComponentPad*%
%ADD11O,1.600000X1.600000*%
%TD*%
%TA.AperFunction,ComponentPad*%
%ADD12R,1.700000X1.700000*%
%TD*%
%TA.AperFunction,ComponentPad*%
%ADD13O,1.700000X1.700000*%
%TD*%
%TA.AperFunction,ComponentPad*%
%ADD14R,1.600000X1.600000*%
%TD*%
%TA.AperFunction,ComponentPad*%
%ADD15C,2.000000*%
%TD*%
%TA.AperFunction,ComponentPad*%
%ADD16O,2.400000X1.600000*%
%TD*%
%TA.AperFunction,ComponentPad*%
%ADD17R,2.400000X1.600000*%
%TD*%
%TA.AperFunction,ComponentPad*%
%ADD18O,2.200000X2.200000*%
%TD*%
%TA.AperFunction,ComponentPad*%
%ADD19R,2.200000X2.200000*%
%TD*%
%TA.AperFunction,ViaPad*%
%ADD20C,1.000000*%
%TD*%
%TA.AperFunction,Conductor*%
%ADD21C,0.500000*%
%TD*%
G04 APERTURE END LIST*
D10*
%TO.P,C8,2*%
%TO.N,GND*%
X17711600Y-52369400D03*
%TO.P,C8,1*%
%TO.N,Conn3B*%
X17711600Y-54869400D03*
%TD*%
D11*
%TO.P,R9,2*%
%TO.N,+12*%
X7196000Y-30861000D03*
D10*
%TO.P,R9,1*%
%TO.N,Net-(R6-Pad1)*%
X14816000Y-30861000D03*
%TD*%
D12*
%TO.P,J7,1,Pin_1*%
%TO.N,GateJackB*%
X6200000Y-27533600D03*
D13*
%TO.P,J7,2,Pin_2*%
%TO.N,Conn1B*%
X8740000Y-27533600D03*
%TO.P,J7,3,Pin_3*%
%TO.N,Conn2B*%
X11280000Y-27533600D03*
%TO.P,J7,4,Pin_4*%
%TO.N,Switch2B*%
X13820000Y-27533600D03*
%TD*%
D11*
%TO.P,D1,2,A*%
%TO.N,GND*%
X1455600Y-51536600D03*
D14*
%TO.P,D1,1,K*%
%TO.N,Net-(C1-Pad1)*%
X1455600Y-43916600D03*
%TD*%
D15*
%TO.P,C7,2*%
%TO.N,+12*%
X6300000Y-17145000D03*
%TO.P,C7,1*%
%TO.N,GND*%
X13800000Y-17145000D03*
%TD*%
D11*
%TO.P,R1,2*%
%TO.N,GND*%
X2624000Y-20243800D03*
D10*
%TO.P,R1,1*%
%TO.N,Net-(C1-Pad1)*%
X2624000Y-27863800D03*
%TD*%
D16*
%TO.P,U1,14*%
%TO.N,Switch1B*%
X14521200Y-49255600D03*
%TO.P,U1,13,-*%
%TO.N,OutJackB*%
X14521200Y-46715600D03*
%TO.P,U1,12,+*%
%TO.N,Net-(R6-Pad1)*%
X14521200Y-44175600D03*
%TO.P,U1,11,V-*%
%TO.N,-12*%
X14521200Y-41635600D03*
%TO.P,U1,10,+*%
%TO.N,Switch2B*%
X14521200Y-39095600D03*
%TO.P,U1,9,-*%
%TO.N,Conn2B*%
X14521200Y-36555600D03*
%TO.P,U1,8*%
X14521200Y-34015600D03*
%TO.P,U1,7*%
%TO.N,Conn1B*%
X6901200Y-34015600D03*
%TO.P,U1,6,-*%
%TO.N,Net-(R2-Pad1)*%
X6901200Y-36555600D03*
%TO.P,U1,5,+*%
%TO.N,GateJackB*%
X6901200Y-39095600D03*
%TO.P,U1,4,V+*%
%TO.N,+12*%
X6901200Y-41635600D03*
%TO.P,U1,3,+*%
%TO.N,Net-(C1-Pad1)*%
X6901200Y-44175600D03*
%TO.P,U1,2,-*%
%TO.N,Net-(R2-Pad1)*%
X6901200Y-46715600D03*
D17*
%TO.P,U1,1*%
%TO.N,Switch3B*%
X6901200Y-49255600D03*
%TD*%
D11*
%TO.P,R3,2*%
%TO.N,Net-(R2-Pad1)*%
X17610000Y-42291000D03*
D10*
%TO.P,R3,1*%
%TO.N,GND*%
X17610000Y-49911000D03*
%TD*%
%TO.P,C3,2*%
%TO.N,GND*%
X8426000Y-11430000D03*
D14*
%TO.P,C3,1*%
%TO.N,+12*%
X5926000Y-11430000D03*
%TD*%
D13*
%TO.P,J2,10,Pin_10*%
%TO.N,+12V*%
X5101888Y-4318000D03*
%TO.P,J2,9,Pin_9*%
X5101888Y-6858000D03*
%TO.P,J2,8,Pin_8*%
%TO.N,GND*%
X7641888Y-4318000D03*
%TO.P,J2,7,Pin_7*%
X7641888Y-6858000D03*
%TO.P,J2,6,Pin_6*%
X10181888Y-4318000D03*
%TO.P,J2,5,Pin_5*%
X10181888Y-6858000D03*
%TO.P,J2,4,Pin_4*%
X12721888Y-4318000D03*
%TO.P,J2,3,Pin_3*%
X12721888Y-6858000D03*
%TO.P,J2,2,Pin_2*%
%TO.N,-12V*%
X15261888Y-4318000D03*
D12*
%TO.P,J2,1,Pin_1*%
X15261888Y-6858000D03*
%TD*%
D15*
%TO.P,C5,2*%
%TO.N,+12*%
X5935200Y-53670200D03*
%TO.P,C5,1*%
%TO.N,GND*%
X13435200Y-53670200D03*
%TD*%
D11*
%TO.P,R2,2*%
%TO.N,+12*%
X3741600Y-30454600D03*
D10*
%TO.P,R2,1*%
%TO.N,Net-(R2-Pad1)*%
X3741600Y-38074600D03*
%TD*%
D15*
%TO.P,C6,2*%
%TO.N,GND*%
X6300000Y-22733000D03*
%TO.P,C6,1*%
%TO.N,-12*%
X13800000Y-22733000D03*
%TD*%
D11*
%TO.P,R6,2*%
%TO.N,Switch1B*%
X18270400Y-38481000D03*
D10*
%TO.P,R6,1*%
%TO.N,Net-(R6-Pad1)*%
X18270400Y-30861000D03*
%TD*%
%TO.P,C1,2*%
%TO.N,GateJackB*%
X3995600Y-40228200D03*
%TO.P,C1,1*%
%TO.N,Net-(C1-Pad1)*%
X3995600Y-42728200D03*
%TD*%
D16*
%TO.P,U2,8,V+*%
%TO.N,+12*%
X4605200Y-58140600D03*
%TO.P,U2,7*%
%TO.N,InvOutJackB'*%
X4605200Y-60680600D03*
%TO.P,U2,6,-*%
%TO.N,Net-(R11-Pad2)*%
X4605200Y-63220600D03*
%TO.P,U2,5,+*%
%TO.N,Net-(R10-Pad2)*%
X4605200Y-65760600D03*
%TO.P,U2,4,V-*%
%TO.N,-12*%
X12225200Y-65760600D03*
%TO.P,U2,3,+*%
%TO.N,Conn3B*%
X12225200Y-63220600D03*
%TO.P,U2,2,-*%
%TO.N,OutJackB*%
X12225200Y-60680600D03*
D17*
%TO.P,U2,1*%
X12225200Y-58140600D03*
%TD*%
D13*
%TO.P,J8,6,Pin_6*%
%TO.N,Switch3B*%
X3625000Y-69844250D03*
%TO.P,J8,5,Pin_5*%
%TO.N,GND*%
X6165000Y-69844250D03*
%TO.P,J8,4,Pin_4*%
%TO.N,InvOutJackB'*%
X8705000Y-69844250D03*
%TO.P,J8,3,Pin_3*%
%TO.N,OutJackB*%
X11245000Y-69844250D03*
%TO.P,J8,2,Pin_2*%
%TO.N,Conn3B*%
X13785000Y-69844250D03*
D12*
%TO.P,J8,1,Pin_1*%
%TO.N,Switch1B*%
X16325000Y-69844250D03*
%TD*%
D11*
%TO.P,R13,2*%
%TO.N,InvOutJackB'*%
X6281600Y-73177400D03*
D10*
%TO.P,R13,1*%
%TO.N,Net-(R11-Pad2)*%
X13901600Y-73177400D03*
%TD*%
D11*
%TO.P,R10,2*%
%TO.N,Net-(R10-Pad2)*%
X1526400Y-65760600D03*
D10*
%TO.P,R10,1*%
%TO.N,+12*%
X1526400Y-58140600D03*
%TD*%
D11*
%TO.P,R7,2*%
%TO.N,GND*%
X17813200Y-20193000D03*
D10*
%TO.P,R7,1*%
%TO.N,Net-(R6-Pad1)*%
X17813200Y-27813000D03*
%TD*%
D11*
%TO.P,R12,2*%
%TO.N,GND*%
X9024800Y-76200000D03*
D10*
%TO.P,R12,1*%
%TO.N,Net-(R10-Pad2)*%
X1404800Y-76200000D03*
%TD*%
%TO.P,C2,2*%
%TO.N,-12*%
X14115600Y-11430000D03*
D14*
%TO.P,C2,1*%
%TO.N,GND*%
X11615600Y-11430000D03*
%TD*%
D18*
%TO.P,D3,2,A*%
%TO.N,+12V*%
X2624000Y-10109200D03*
D19*
%TO.P,D3,1,K*%
%TO.N,+12*%
X2624000Y-17729200D03*
%TD*%
D11*
%TO.P,R11,2*%
%TO.N,Net-(R11-Pad2)*%
X11209200Y-76225400D03*
D10*
%TO.P,R11,1*%
%TO.N,OutJackB*%
X18829200Y-76225400D03*
%TD*%
D15*
%TO.P,C4,2*%
%TO.N,GND*%
X16604000Y-58546200D03*
%TO.P,C4,1*%
%TO.N,-12*%
X16604000Y-66046200D03*
%TD*%
D18*
%TO.P,D2,2,A*%
%TO.N,-12*%
X17711600Y-17703800D03*
D19*
%TO.P,D2,1,K*%
%TO.N,-12V*%
X17711600Y-10083800D03*
%TD*%
D20*
%TO.N,GND*%
X15984400Y-55956200D03*
X3335200Y-55956200D03*
%TD*%
D21*
%TO.N,Conn1B*%
X9270000Y-31646800D02*
X6901200Y-34015600D01*
X8976400Y-27533600D02*
X9270000Y-27827200D01*
X9270000Y-27827200D02*
X9270000Y-31646800D01*
%TO.N,GateJackB*%
X8570000Y-29667200D02*
X6436400Y-27533600D01*
X8570000Y-31254767D02*
X8570000Y-29667200D01*
X7617567Y-32207200D02*
X8570000Y-31254767D01*
X6182400Y-32207200D02*
X7617567Y-32207200D01*
X5251200Y-33138400D02*
X6182400Y-32207200D01*
X5251200Y-34760950D02*
X5251200Y-33138400D01*
X2491600Y-37520550D02*
X5251200Y-34760950D01*
X2491600Y-38724200D02*
X2491600Y-37520550D01*
X3995600Y-40228200D02*
X2491600Y-38724200D01*
%TO.N,Conn2B*%
X16766000Y-31770800D02*
X14521200Y-34015600D01*
X16766000Y-29253250D02*
X16766000Y-31770800D01*
X15783600Y-28270850D02*
X16766000Y-29253250D01*
X14594878Y-26233600D02*
X15783600Y-27422322D01*
X15783600Y-27422322D02*
X15783600Y-28270850D01*
X12816400Y-26233600D02*
X14594878Y-26233600D01*
X11516400Y-27533600D02*
X12816400Y-26233600D01*
%TO.N,Switch2B*%
X16066000Y-29543200D02*
X14056400Y-27533600D01*
X16066000Y-31378767D02*
X16066000Y-29543200D01*
X15288367Y-32156400D02*
X16066000Y-31378767D01*
X13243600Y-32156400D02*
X15288367Y-32156400D01*
X12518800Y-32881200D02*
X13243600Y-32156400D01*
X12518800Y-37093200D02*
X12518800Y-32881200D01*
X14521200Y-39095600D02*
X12518800Y-37093200D01*
%TO.N,Net-(C1-Pad1)*%
X1455600Y-43916600D02*
X2807200Y-43916600D01*
X2864230Y-42728200D02*
X1071600Y-40935570D01*
X3995600Y-42728200D02*
X2864230Y-42728200D01*
X5443000Y-44175600D02*
X3995600Y-42728200D01*
X1071600Y-29416200D02*
X2624000Y-27863800D01*
X2807200Y-43916600D02*
X3995600Y-42728200D01*
X6901200Y-44175600D02*
X5443000Y-44175600D01*
X1071600Y-40935570D02*
X1071600Y-29416200D01*
%TO.N,GateJackB*%
X4930000Y-39293800D02*
X5062400Y-39293800D01*
X5062400Y-39293800D02*
X5260600Y-39095600D01*
X3995600Y-40228200D02*
X4930000Y-39293800D01*
X5260600Y-39095600D02*
X6901200Y-39095600D01*
%TO.N,-12V*%
X15261888Y-7634088D02*
X17711600Y-10083800D01*
X15261888Y-6858000D02*
X15261888Y-7634088D01*
X15261888Y-4318000D02*
X15261888Y-6858000D01*
%TO.N,+12V*%
X5101888Y-7402712D02*
X2395400Y-10109200D01*
X5101888Y-6858000D02*
X5101888Y-7402712D01*
X5101888Y-4318000D02*
X5101888Y-6858000D01*
%TO.N,Conn2B*%
X14521200Y-36555600D02*
X14521200Y-34015600D01*
%TO.N,Conn3B*%
X13785000Y-69844250D02*
X13151134Y-69844250D01*
X11607483Y-63220600D02*
X12225200Y-63220600D01*
X9875200Y-64952883D02*
X11607483Y-63220600D01*
X18332400Y-55490200D02*
X17711600Y-54869400D01*
X18332400Y-62661800D02*
X18332400Y-55490200D01*
X12225200Y-63220600D02*
X17773600Y-63220600D01*
X17773600Y-63220600D02*
X18332400Y-62661800D01*
X13151134Y-69844250D02*
X9875200Y-66568316D01*
X9875200Y-66568316D02*
X9875200Y-64952883D01*
%TO.N,OutJackB*%
X12225200Y-58140600D02*
X11985200Y-57900600D01*
X12647750Y-71247000D02*
X11245000Y-69844250D01*
X9175200Y-67774450D02*
X9175200Y-63730600D01*
X11985200Y-57900600D02*
X11985200Y-49251600D01*
X11245000Y-69844250D02*
X9175200Y-67774450D01*
X12225200Y-60680600D02*
X12225200Y-58140600D01*
X18168800Y-71247000D02*
X12647750Y-71247000D01*
X9175200Y-63730600D02*
X12225200Y-60680600D01*
X18829200Y-71907400D02*
X18168800Y-71247000D01*
X11985200Y-49251600D02*
X14521200Y-46715600D01*
X18829200Y-76225400D02*
X18829200Y-71907400D01*
%TO.N,InvOutJackB'*%
X8466000Y-69605250D02*
X8705000Y-69844250D01*
X8705000Y-70754000D02*
X6281600Y-73177400D01*
X4605200Y-60680600D02*
X7043600Y-60680600D01*
X7043600Y-60680600D02*
X7094400Y-60629800D01*
X8466000Y-62001400D02*
X8466000Y-69605250D01*
X7094400Y-60629800D02*
X8466000Y-62001400D01*
X8705000Y-69844250D02*
X8705000Y-70754000D01*
%TO.N,Switch1B*%
X19032400Y-45089200D02*
X19032400Y-63186650D01*
X16325000Y-69844250D02*
X16325000Y-69250801D01*
X10575200Y-65242833D02*
X11307433Y-64510600D01*
X18860000Y-44916800D02*
X14521200Y-49255600D01*
X18270400Y-38481000D02*
X18860000Y-39070600D01*
X17738450Y-64480600D02*
X11896233Y-64480600D01*
X18860000Y-44916800D02*
X18860000Y-39070600D01*
X11307433Y-64510600D02*
X11666400Y-64510600D01*
X19032400Y-63186650D02*
X17738450Y-64480600D01*
X10575200Y-66278367D02*
X10575200Y-65242833D01*
X18860000Y-44916800D02*
X19032400Y-45089200D01*
X14110477Y-67036278D02*
X11333111Y-67036278D01*
X16325000Y-69250801D02*
X14110477Y-67036278D01*
X11333111Y-67036278D02*
X10575200Y-66278367D01*
%TO.N,Switch3B*%
X3625000Y-69844250D02*
X3797500Y-69844250D01*
X6981600Y-66660150D02*
X6981600Y-63311000D01*
X2928800Y-60121800D02*
X3640000Y-59410600D01*
X5824400Y-59410600D02*
X7385200Y-57849800D01*
X6981600Y-63311000D02*
X5601200Y-61930600D01*
X2928800Y-61341000D02*
X2928800Y-60121800D01*
X7385200Y-49739600D02*
X6901200Y-49255600D01*
X3640000Y-59410600D02*
X5824400Y-59410600D01*
X5601200Y-61930600D02*
X3518400Y-61930600D01*
X7385200Y-57849800D02*
X7385200Y-49739600D01*
X3518400Y-61930600D02*
X2928800Y-61341000D01*
X3797500Y-69844250D02*
X6981600Y-66660150D01*
%TO.N,Net-(R2-Pad1)*%
X10747000Y-46715600D02*
X12022000Y-45440600D01*
X8623400Y-46715600D02*
X9436200Y-46715600D01*
X9588600Y-39243000D02*
X9588600Y-46715600D01*
X16365800Y-45465600D02*
X17610000Y-44221400D01*
X17610000Y-44221400D02*
X17610000Y-42291000D01*
X9436200Y-46715600D02*
X9588600Y-46715600D01*
X16340800Y-45440600D02*
X16365800Y-45465600D01*
X6901200Y-36555600D02*
X9588600Y-39243000D01*
X9588600Y-46715600D02*
X10747000Y-46715600D01*
X12022000Y-45440600D02*
X16340800Y-45440600D01*
X6901200Y-46715600D02*
X8623400Y-46715600D01*
X5382200Y-38074600D02*
X3741600Y-38074600D01*
X5382200Y-38074600D02*
X6901200Y-36555600D01*
%TO.N,Net-(R6-Pad1)*%
X16282706Y-39501861D02*
X16282706Y-36861894D01*
X12871200Y-42153367D02*
X12871200Y-41117833D01*
X11818800Y-38560967D02*
X13603433Y-40345600D01*
X11818800Y-38560967D02*
X11818800Y-32486600D01*
X18270400Y-28270200D02*
X17813200Y-27813000D01*
X12871200Y-41117833D02*
X13643433Y-40345600D01*
X18270400Y-30861000D02*
X18270400Y-28270200D01*
X11818800Y-32486600D02*
X13495200Y-30810200D01*
X18270400Y-34569400D02*
X18270400Y-30861000D01*
X15438967Y-40345600D02*
X16282706Y-39501861D01*
X18422800Y-34721800D02*
X18270400Y-34569400D01*
X13603433Y-40345600D02*
X13643433Y-40345600D01*
X14521200Y-44175600D02*
X14521200Y-43803367D01*
X16282706Y-36861894D02*
X18422800Y-34721800D01*
X14521200Y-43803367D02*
X12871200Y-42153367D01*
X13495200Y-30810200D02*
X14816000Y-30810200D01*
X13643433Y-40345600D02*
X15438967Y-40345600D01*
%TO.N,Net-(R10-Pad2)*%
X1526400Y-65760600D02*
X1526400Y-75773600D01*
X1526400Y-75773600D02*
X1100000Y-76200000D01*
X4605200Y-65760600D02*
X1526400Y-65760600D01*
%TO.N,Net-(R11-Pad2)*%
X2319200Y-71817155D02*
X2319200Y-68300600D01*
X6281600Y-66370200D02*
X6281600Y-64897000D01*
X13901600Y-73177400D02*
X11209200Y-75869800D01*
X9984600Y-74950000D02*
X5452045Y-74950000D01*
X11209200Y-75869800D02*
X11209200Y-76174600D01*
X3589200Y-67030600D02*
X5621200Y-67030600D01*
X2319200Y-68300600D02*
X3589200Y-67030600D01*
X5452045Y-74950000D02*
X2319200Y-71817155D01*
X11209200Y-76174600D02*
X9984600Y-74950000D01*
X6281600Y-64897000D02*
X4605200Y-63220600D01*
X5621200Y-67030600D02*
X6281600Y-66370200D01*
%TO.N,-12*%
X15369800Y-41635600D02*
X17000400Y-40005000D01*
X17000400Y-40005000D02*
X16982706Y-39987306D01*
X12774000Y-65770600D02*
X16867200Y-65770600D01*
X14521200Y-41635600D02*
X15369800Y-41635600D01*
X13800000Y-22733000D02*
X17040967Y-22733000D01*
X14115600Y-14107800D02*
X17711600Y-17703800D01*
X13800000Y-21615400D02*
X13800000Y-22733000D01*
X17152800Y-66056200D02*
X19743600Y-63465400D01*
X17711600Y-17703800D02*
X13800000Y-21615400D01*
X16982706Y-37584294D02*
X19743600Y-34823400D01*
X19743600Y-25435633D02*
X17040967Y-22733000D01*
X16982706Y-39987306D02*
X16982706Y-37584294D01*
X16867200Y-65770600D02*
X17152800Y-66056200D01*
X19743600Y-63465400D02*
X19743600Y-34823400D01*
X14115600Y-11430000D02*
X14115600Y-14107800D01*
X19743600Y-34823400D02*
X19743600Y-25435633D01*
%TO.N,+12*%
X5926000Y-16771000D02*
X6300000Y-17145000D01*
X3436800Y-41478200D02*
X1771600Y-39813000D01*
X6008433Y-45440600D02*
X5251200Y-46197833D01*
X8551200Y-43285600D02*
X8551200Y-44693367D01*
X3741600Y-35280600D02*
X3741600Y-30454600D01*
X5926000Y-11430000D02*
X5926000Y-16771000D01*
X3436800Y-41478200D02*
X6743800Y-41478200D01*
X4006800Y-19112000D02*
X4006800Y-29681400D01*
X6743800Y-41478200D02*
X6901200Y-41635600D01*
X4006800Y-29681400D02*
X3182800Y-30505400D01*
X4605200Y-58140600D02*
X4605200Y-55000200D01*
X5251200Y-46197833D02*
X5251200Y-52986200D01*
X3335200Y-30454600D02*
X6840400Y-30454600D01*
X5715800Y-17729200D02*
X6300000Y-17145000D01*
X5251200Y-52986200D02*
X5935200Y-53670200D01*
X2624000Y-17729200D02*
X4006800Y-19112000D01*
X8551200Y-44693367D02*
X7803967Y-45440600D01*
X4605200Y-55000200D02*
X5935200Y-53670200D01*
X2395400Y-17729200D02*
X5715800Y-17729200D01*
X1771600Y-37250600D02*
X3741600Y-35280600D01*
X1771600Y-39813000D02*
X1771600Y-37250600D01*
X7803967Y-45440600D02*
X6008433Y-45440600D01*
X6901200Y-41635600D02*
X8551200Y-43285600D01*
X4605200Y-58140600D02*
X1526400Y-58140600D01*
X6840400Y-30454600D02*
X7196000Y-30810200D01*
%TD*%
%TA.AperFunction,Conductor*%
%TO.N,GND*%
G36*
X19941121Y-21002D02*
G01*
X19987614Y-74658D01*
X19999000Y-127000D01*
X19999000Y-24749740D01*
X19978998Y-24817861D01*
X19925342Y-24864354D01*
X19855068Y-24874458D01*
X19790488Y-24844964D01*
X19783905Y-24838835D01*
X17383720Y-22438650D01*
X17373866Y-22427561D01*
X17358674Y-22408291D01*
X17358672Y-22408289D01*
X17352839Y-22400890D01*
X17345092Y-22395535D01*
X17345090Y-22395534D01*
X17304592Y-22367545D01*
X17301370Y-22365243D01*
X17261725Y-22335960D01*
X17261724Y-22335959D01*
X17254151Y-22330366D01*
X17247335Y-22327973D01*
X17241398Y-22323869D01*
X17232418Y-22321029D01*
X17232416Y-22321028D01*
X17212250Y-22314650D01*
X17185448Y-22306174D01*
X17181717Y-22304929D01*
X17135230Y-22288604D01*
X17135228Y-22288604D01*
X17126336Y-22285481D01*
X17119148Y-22285199D01*
X17119089Y-22285188D01*
X17112237Y-22283020D01*
X17105630Y-22282500D01*
X17052951Y-22282500D01*
X17048004Y-22282403D01*
X16990973Y-22280162D01*
X16983867Y-22282046D01*
X16975620Y-22282500D01*
X14994825Y-22282500D01*
X14926704Y-22262498D01*
X14881819Y-22212228D01*
X14830535Y-22108234D01*
X14827980Y-22103053D01*
X14695967Y-21926267D01*
X14533949Y-21776499D01*
X14509161Y-21760859D01*
X14462222Y-21707592D01*
X14451533Y-21637405D01*
X14480487Y-21572581D01*
X14487301Y-21565202D01*
X17105099Y-18947404D01*
X17167411Y-18913378D01*
X17238226Y-18918443D01*
X17247444Y-18922304D01*
X17265104Y-18930539D01*
X17270412Y-18931961D01*
X17270414Y-18931962D01*
X17479593Y-18988011D01*
X17479595Y-18988011D01*
X17484908Y-18989435D01*
X17711600Y-19009268D01*
X17938292Y-18989435D01*
X17943605Y-18988011D01*
X17943607Y-18988011D01*
X18152786Y-18931962D01*
X18152788Y-18931961D01*
X18158096Y-18930539D01*
X18184036Y-18918443D01*
X18359353Y-18836691D01*
X18359356Y-18836689D01*
X18364334Y-18834368D01*
X18550739Y-18703847D01*
X18711647Y-18542939D01*
X18842168Y-18356534D01*
X18845686Y-18348991D01*
X18936016Y-18155278D01*
X18936017Y-18155276D01*
X18938339Y-18150296D01*
X18940716Y-18141427D01*
X18995811Y-17935807D01*
X18995811Y-17935805D01*
X18997235Y-17930492D01*
X19017068Y-17703800D01*
X18997235Y-17477108D01*
X18938339Y-17257304D01*
X18930104Y-17239644D01*
X18844491Y-17056047D01*
X18844489Y-17056044D01*
X18842168Y-17051066D01*
X18711647Y-16864661D01*
X18550739Y-16703753D01*
X18364334Y-16573232D01*
X18359356Y-16570911D01*
X18359353Y-16570909D01*
X18163078Y-16479384D01*
X18163076Y-16479383D01*
X18158096Y-16477061D01*
X18152788Y-16475639D01*
X18152786Y-16475638D01*
X17943607Y-16419589D01*
X17943605Y-16419589D01*
X17938292Y-16418165D01*
X17711600Y-16398332D01*
X17484908Y-16418165D01*
X17479595Y-16419589D01*
X17479593Y-16419589D01*
X17270414Y-16475638D01*
X17270412Y-16475639D01*
X17265104Y-16477061D01*
X17260124Y-16479383D01*
X17260122Y-16479384D01*
X17247444Y-16485296D01*
X17177252Y-16495957D01*
X17112440Y-16466977D01*
X17105099Y-16460196D01*
X14603005Y-13958102D01*
X14568979Y-13895790D01*
X14566100Y-13869007D01*
X14566100Y-12400900D01*
X14586102Y-12332779D01*
X14635290Y-12288434D01*
X14648786Y-12281617D01*
X14648788Y-12281616D01*
X14654289Y-12278837D01*
X14808903Y-12158040D01*
X14838684Y-12123539D01*
X14933085Y-12014173D01*
X14933085Y-12014172D01*
X14937109Y-12009511D01*
X15034025Y-11838909D01*
X15095958Y-11652732D01*
X15120549Y-11458071D01*
X15120941Y-11430000D01*
X15101794Y-11234728D01*
X15100013Y-11228829D01*
X15100012Y-11228824D01*
X15046865Y-11052793D01*
X15045084Y-11046894D01*
X14952970Y-10873653D01*
X14828961Y-10721602D01*
X14677780Y-10596535D01*
X14505185Y-10503213D01*
X14411469Y-10474203D01*
X14323639Y-10447015D01*
X14323636Y-10447014D01*
X14317752Y-10445193D01*
X14311627Y-10444549D01*
X14311626Y-10444549D01*
X14128747Y-10425327D01*
X14128746Y-10425327D01*
X14122619Y-10424683D01*
X13999983Y-10435844D01*
X13933359Y-10441907D01*
X13933358Y-10441907D01*
X13927218Y-10442466D01*
X13921304Y-10444207D01*
X13921302Y-10444207D01*
X13804592Y-10478557D01*
X13738993Y-10497864D01*
X13733528Y-10500721D01*
X13570572Y-10585912D01*
X13570568Y-10585915D01*
X13565112Y-10588767D01*
X13560312Y-10592627D01*
X13560311Y-10592627D01*
X13545937Y-10604184D01*
X13412200Y-10711711D01*
X13286080Y-10862016D01*
X13283116Y-10867408D01*
X13283113Y-10867412D01*
X13241104Y-10943827D01*
X13191556Y-11033954D01*
X13132228Y-11220978D01*
X13110357Y-11415963D01*
X13126775Y-11611483D01*
X13180858Y-11800091D01*
X13183676Y-11805574D01*
X13267723Y-11969113D01*
X13267726Y-11969117D01*
X13270544Y-11974601D01*
X13392418Y-12128369D01*
X13397111Y-12132363D01*
X13397112Y-12132364D01*
X13527769Y-12243561D01*
X13541838Y-12255535D01*
X13600571Y-12288360D01*
X13650276Y-12339052D01*
X13665100Y-12398347D01*
X13665100Y-14073580D01*
X13664227Y-14088389D01*
X13660236Y-14122110D01*
X13661928Y-14131374D01*
X13661928Y-14131375D01*
X13670772Y-14179801D01*
X13671422Y-14183704D01*
X13680151Y-14241762D01*
X13683279Y-14248275D01*
X13684575Y-14255373D01*
X13711625Y-14307447D01*
X13713368Y-14310937D01*
X13738791Y-14363879D01*
X13743677Y-14369165D01*
X13743710Y-14369213D01*
X13747021Y-14375588D01*
X13751325Y-14380628D01*
X13788552Y-14417855D01*
X13791981Y-14421420D01*
X13830746Y-14463356D01*
X13837105Y-14467049D01*
X13843263Y-14472566D01*
X16467996Y-17097299D01*
X16502022Y-17159611D01*
X16496957Y-17230426D01*
X16493096Y-17239644D01*
X16484861Y-17257304D01*
X16425965Y-17477108D01*
X16406132Y-17703800D01*
X16425965Y-17930492D01*
X16427389Y-17935805D01*
X16427389Y-17935807D01*
X16482485Y-18141427D01*
X16484861Y-18150296D01*
X16487183Y-18155276D01*
X16487184Y-18155278D01*
X16493096Y-18167956D01*
X16503757Y-18238148D01*
X16474777Y-18302960D01*
X16467996Y-18310301D01*
X13505650Y-21272647D01*
X13494561Y-21282501D01*
X13475291Y-21297693D01*
X13475289Y-21297695D01*
X13467890Y-21303528D01*
X13462535Y-21311275D01*
X13462534Y-21311277D01*
X13434545Y-21351775D01*
X13432250Y-21354987D01*
X13397366Y-21402216D01*
X13394973Y-21409032D01*
X13390869Y-21414969D01*
X13388029Y-21423949D01*
X13388028Y-21423951D01*
X13373182Y-21470895D01*
X13371929Y-21474650D01*
X13352481Y-21530031D01*
X13352199Y-21537219D01*
X13352188Y-21537278D01*
X13350020Y-21544130D01*
X13349500Y-21550737D01*
X13349500Y-21551067D01*
X13348399Y-21556716D01*
X13315735Y-21619752D01*
X13281229Y-21644704D01*
X13280957Y-21644804D01*
X13091341Y-21757614D01*
X12925457Y-21903090D01*
X12788863Y-22076360D01*
X12686131Y-22271620D01*
X12620703Y-22482333D01*
X12594770Y-22701440D01*
X12609200Y-22921604D01*
X12663511Y-23135452D01*
X12755883Y-23335821D01*
X12883222Y-23516002D01*
X13041264Y-23669961D01*
X13046060Y-23673166D01*
X13046063Y-23673168D01*
X13130261Y-23729427D01*
X13224717Y-23792540D01*
X13230020Y-23794818D01*
X13230023Y-23794820D01*
X13422129Y-23877355D01*
X13427436Y-23879635D01*
X13507088Y-23897658D01*
X13636995Y-23927054D01*
X13637001Y-23927055D01*
X13642632Y-23928329D01*
X13648403Y-23928556D01*
X13648405Y-23928556D01*
X13716211Y-23931220D01*
X13863098Y-23936991D01*
X13972275Y-23921161D01*
X14075738Y-23906160D01*
X14075743Y-23906159D01*
X14081452Y-23905331D01*
X14086916Y-23903476D01*
X14086921Y-23903475D01*
X14284907Y-23836268D01*
X14284912Y-23836266D01*
X14290379Y-23834410D01*
X14482884Y-23726602D01*
X14652518Y-23585518D01*
X14793602Y-23415884D01*
X14887659Y-23247933D01*
X14938396Y-23198272D01*
X14997593Y-23183500D01*
X16802174Y-23183500D01*
X16870295Y-23203502D01*
X16891269Y-23220405D01*
X19256195Y-25585331D01*
X19290221Y-25647643D01*
X19293100Y-25674426D01*
X19293100Y-30178041D01*
X19273098Y-30246162D01*
X19219442Y-30292655D01*
X19149168Y-30302759D01*
X19084588Y-30273265D01*
X19069460Y-30257681D01*
X18983761Y-30152602D01*
X18832580Y-30027535D01*
X18827155Y-30024602D01*
X18827151Y-30024599D01*
X18786971Y-30002873D01*
X18736562Y-29952878D01*
X18720900Y-29892038D01*
X18720900Y-28304419D01*
X18721773Y-28289610D01*
X18725764Y-28255889D01*
X18726830Y-28256015D01*
X18733402Y-28222500D01*
X18731625Y-28221909D01*
X18791611Y-28041584D01*
X18793558Y-28035732D01*
X18818149Y-27841071D01*
X18818541Y-27813000D01*
X18799394Y-27617728D01*
X18797613Y-27611829D01*
X18797612Y-27611824D01*
X18744465Y-27435793D01*
X18742684Y-27429894D01*
X18650570Y-27256653D01*
X18526561Y-27104602D01*
X18375380Y-26979535D01*
X18202785Y-26886213D01*
X18109069Y-26857203D01*
X18021239Y-26830015D01*
X18021236Y-26830014D01*
X18015352Y-26828193D01*
X18009227Y-26827549D01*
X18009226Y-26827549D01*
X17826347Y-26808327D01*
X17826346Y-26808327D01*
X17820219Y-26807683D01*
X17697583Y-26818844D01*
X17630959Y-26824907D01*
X17630958Y-26824907D01*
X17624818Y-26825466D01*
X17618904Y-26827207D01*
X17618902Y-26827207D01*
X17510737Y-26859042D01*
X17436593Y-26880864D01*
X17431128Y-26883721D01*
X17268172Y-26968912D01*
X17268168Y-26968915D01*
X17262712Y-26971767D01*
X17257912Y-26975627D01*
X17257911Y-26975627D01*
X17223526Y-27003273D01*
X17109800Y-27094711D01*
X16983680Y-27245016D01*
X16980716Y-27250408D01*
X16980713Y-27250412D01*
X16934374Y-27334703D01*
X16889156Y-27416954D01*
X16829828Y-27603978D01*
X16807957Y-27798963D01*
X16824375Y-27994483D01*
X16878458Y-28183091D01*
X16881276Y-28188574D01*
X16965323Y-28352113D01*
X16965326Y-28352117D01*
X16968144Y-28357601D01*
X17090018Y-28511369D01*
X17094711Y-28515363D01*
X17094712Y-28515364D01*
X17200916Y-28605750D01*
X17239438Y-28638535D01*
X17244816Y-28641541D01*
X17244818Y-28641542D01*
X17307485Y-28676565D01*
X17410713Y-28734257D01*
X17597318Y-28794889D01*
X17649430Y-28801103D01*
X17708819Y-28808185D01*
X17774092Y-28836113D01*
X17813905Y-28894896D01*
X17819900Y-28933299D01*
X17819900Y-29891186D01*
X17799898Y-29959307D01*
X17752277Y-30002847D01*
X17719912Y-30019767D01*
X17715111Y-30023627D01*
X17715108Y-30023629D01*
X17670658Y-30059368D01*
X17567000Y-30142711D01*
X17440880Y-30293016D01*
X17439350Y-30291732D01*
X17391484Y-30330828D01*
X17320945Y-30338882D01*
X17257250Y-30307521D01*
X17220622Y-30246703D01*
X17216500Y-30214739D01*
X17216500Y-29287469D01*
X17217373Y-29272660D01*
X17220257Y-29248291D01*
X17221364Y-29238939D01*
X17219672Y-29229676D01*
X17219672Y-29229669D01*
X17210825Y-29181232D01*
X17210174Y-29177325D01*
X17202850Y-29128606D01*
X17202850Y-29128605D01*
X17201449Y-29119288D01*
X17198321Y-29112775D01*
X17197025Y-29105677D01*
X17169972Y-29053597D01*
X17168223Y-29050095D01*
X17146887Y-29005663D01*
X17146886Y-29005662D01*
X17142809Y-28997171D01*
X17137923Y-28991886D01*
X17137892Y-28991839D01*
X17134579Y-28985461D01*
X17130275Y-28980422D01*
X17093048Y-28943195D01*
X17089618Y-28939629D01*
X17057246Y-28904609D01*
X17050854Y-28897694D01*
X17044495Y-28894001D01*
X17038337Y-28888484D01*
X16271005Y-28121152D01*
X16236979Y-28058840D01*
X16234100Y-28032057D01*
X16234100Y-27456542D01*
X16234973Y-27441733D01*
X16237857Y-27417365D01*
X16238964Y-27408012D01*
X16237272Y-27398748D01*
X16237272Y-27398744D01*
X16228427Y-27350311D01*
X16227778Y-27346410D01*
X16220451Y-27297677D01*
X16220449Y-27297669D01*
X16219049Y-27288360D01*
X16215923Y-27281850D01*
X16214626Y-27274749D01*
X16201984Y-27250412D01*
X16187582Y-27222685D01*
X16185814Y-27219147D01*
X16164486Y-27174733D01*
X16160409Y-27166243D01*
X16155522Y-27160957D01*
X16155495Y-27160917D01*
X16152180Y-27154534D01*
X16147875Y-27149494D01*
X16110648Y-27112267D01*
X16107218Y-27108701D01*
X16090719Y-27090852D01*
X16068454Y-27066766D01*
X16062095Y-27063073D01*
X16055937Y-27057556D01*
X14937631Y-25939250D01*
X14927777Y-25928161D01*
X14912585Y-25908891D01*
X14912583Y-25908889D01*
X14906750Y-25901490D01*
X14899003Y-25896135D01*
X14899001Y-25896134D01*
X14860209Y-25869324D01*
X14858493Y-25868138D01*
X14855281Y-25865843D01*
X14815636Y-25836560D01*
X14815635Y-25836559D01*
X14808062Y-25830966D01*
X14801246Y-25828573D01*
X14795309Y-25824469D01*
X14786329Y-25821629D01*
X14786327Y-25821628D01*
X14766161Y-25815250D01*
X14739359Y-25806774D01*
X14735628Y-25805529D01*
X14689141Y-25789204D01*
X14689139Y-25789204D01*
X14680247Y-25786081D01*
X14673059Y-25785799D01*
X14673000Y-25785788D01*
X14666148Y-25783620D01*
X14659541Y-25783100D01*
X14606862Y-25783100D01*
X14601915Y-25783003D01*
X14544884Y-25780762D01*
X14537778Y-25782646D01*
X14529531Y-25783100D01*
X12850620Y-25783100D01*
X12835811Y-25782227D01*
X12811443Y-25779343D01*
X12802090Y-25778236D01*
X12792826Y-25779928D01*
X12792822Y-25779928D01*
X12744389Y-25788773D01*
X12740488Y-25789422D01*
X12691755Y-25796749D01*
X12691747Y-25796751D01*
X12682438Y-25798151D01*
X12675928Y-25801277D01*
X12668827Y-25802574D01*
X12660472Y-25806914D01*
X12616763Y-25829618D01*
X12613225Y-25831386D01*
X12612359Y-25831802D01*
X12560321Y-25856791D01*
X12555040Y-25861674D01*
X12554988Y-25861709D01*
X12548612Y-25865020D01*
X12543572Y-25869324D01*
X12506333Y-25906563D01*
X12502768Y-25909992D01*
X12460844Y-25948746D01*
X12457151Y-25955103D01*
X12451644Y-25961252D01*
X11861485Y-26551411D01*
X11799173Y-26585437D01*
X11728358Y-26580372D01*
X11712463Y-26573153D01*
X11694475Y-26563427D01*
X11694470Y-26563425D01*
X11689055Y-26560497D01*
X11492254Y-26499577D01*
X11486129Y-26498933D01*
X11486128Y-26498933D01*
X11293498Y-26478687D01*
X11293496Y-26478687D01*
X11287369Y-26478043D01*
X11200529Y-26485946D01*
X11088342Y-26496155D01*
X11088339Y-26496156D01*
X11082203Y-26496714D01*
X10884572Y-26554880D01*
X10702002Y-26650326D01*
X10697201Y-26654186D01*
X10697198Y-26654188D01*
X10659995Y-26684100D01*
X10541447Y-26779415D01*
X10409024Y-26937230D01*
X10406056Y-26942628D01*
X10406053Y-26942633D01*
X10317011Y-27104602D01*
X10309776Y-27117762D01*
X10247484Y-27314132D01*
X10246798Y-27320249D01*
X10246797Y-27320253D01*
X10233171Y-27441733D01*
X10224520Y-27518862D01*
X10225036Y-27525006D01*
X10240621Y-27710597D01*
X10241759Y-27724153D01*
X10243458Y-27730078D01*
X10296287Y-27914314D01*
X10298544Y-27922186D01*
X10301359Y-27927663D01*
X10301360Y-27927666D01*
X10389897Y-28099941D01*
X10392712Y-28105418D01*
X10520677Y-28266870D01*
X10525370Y-28270864D01*
X10525371Y-28270865D01*
X10632965Y-28362434D01*
X10677564Y-28400391D01*
X10857398Y-28500897D01*
X10928819Y-28524103D01*
X11047471Y-28562656D01*
X11047475Y-28562657D01*
X11053329Y-28564559D01*
X11257894Y-28588951D01*
X11264029Y-28588479D01*
X11264031Y-28588479D01*
X11336625Y-28582893D01*
X11463300Y-28573146D01*
X11469230Y-28571490D01*
X11469232Y-28571490D01*
X11655797Y-28519400D01*
X11655796Y-28519400D01*
X11661725Y-28517745D01*
X11667214Y-28514972D01*
X11667220Y-28514970D01*
X11840116Y-28427633D01*
X11845610Y-28424858D01*
X12007951Y-28298024D01*
X12066611Y-28230066D01*
X12138540Y-28146734D01*
X12138540Y-28146733D01*
X12142564Y-28142072D01*
X12162920Y-28106240D01*
X12201036Y-28039142D01*
X12244323Y-27962944D01*
X12309351Y-27767463D01*
X12335171Y-27563074D01*
X12335583Y-27533600D01*
X12325136Y-27427054D01*
X12338395Y-27357306D01*
X12361440Y-27325663D01*
X12614583Y-27072520D01*
X12676895Y-27038494D01*
X12747710Y-27043559D01*
X12804546Y-27086106D01*
X12829357Y-27152626D01*
X12823780Y-27199711D01*
X12787484Y-27314132D01*
X12786798Y-27320249D01*
X12786797Y-27320253D01*
X12773171Y-27441733D01*
X12764520Y-27518862D01*
X12765036Y-27525006D01*
X12780621Y-27710597D01*
X12781759Y-27724153D01*
X12783458Y-27730078D01*
X12836287Y-27914314D01*
X12838544Y-27922186D01*
X12841359Y-27927663D01*
X12841360Y-27927666D01*
X12929897Y-28099941D01*
X12932712Y-28105418D01*
X13060677Y-28266870D01*
X13065370Y-28270864D01*
X13065371Y-28270865D01*
X13172965Y-28362434D01*
X13217564Y-28400391D01*
X13397398Y-28500897D01*
X13468819Y-28524103D01*
X13587471Y-28562656D01*
X13587475Y-28562657D01*
X13593329Y-28564559D01*
X13797894Y-28588951D01*
X13804029Y-28588479D01*
X13804031Y-28588479D01*
X13876625Y-28582893D01*
X14003300Y-28573146D01*
X14009230Y-28571490D01*
X14009232Y-28571490D01*
X14195797Y-28519400D01*
X14195796Y-28519400D01*
X14201725Y-28517745D01*
X14207218Y-28514970D01*
X14207224Y-28514968D01*
X14254334Y-28491171D01*
X14324156Y-28478311D01*
X14389847Y-28505241D01*
X14400239Y-28514542D01*
X15578595Y-29692898D01*
X15612621Y-29755210D01*
X15615500Y-29781993D01*
X15615500Y-29956099D01*
X15595498Y-30024220D01*
X15541842Y-30070713D01*
X15471568Y-30080817D01*
X15409186Y-30053185D01*
X15398020Y-30043948D01*
X15378180Y-30027535D01*
X15205585Y-29934213D01*
X15089417Y-29898253D01*
X15024039Y-29878015D01*
X15024036Y-29878014D01*
X15018152Y-29876193D01*
X15012027Y-29875549D01*
X15012026Y-29875549D01*
X14829147Y-29856327D01*
X14829146Y-29856327D01*
X14823019Y-29855683D01*
X14700383Y-29866844D01*
X14633759Y-29872907D01*
X14633758Y-29872907D01*
X14627618Y-29873466D01*
X14621704Y-29875207D01*
X14621702Y-29875207D01*
X14517101Y-29905993D01*
X14439393Y-29928864D01*
X14433928Y-29931721D01*
X14270972Y-30016912D01*
X14270968Y-30016915D01*
X14265512Y-30019767D01*
X14260712Y-30023627D01*
X14260711Y-30023627D01*
X14226326Y-30051273D01*
X14112600Y-30142711D01*
X13986480Y-30293016D01*
X13983513Y-30298413D01*
X13980029Y-30303501D01*
X13977974Y-30302094D01*
X13935398Y-30344446D01*
X13875304Y-30359700D01*
X13529420Y-30359700D01*
X13514611Y-30358827D01*
X13490243Y-30355943D01*
X13480890Y-30354836D01*
X13471626Y-30356528D01*
X13471622Y-30356528D01*
X13423189Y-30365373D01*
X13419288Y-30366022D01*
X13370555Y-30373349D01*
X13370547Y-30373351D01*
X13361238Y-30374751D01*
X13354728Y-30377877D01*
X13347627Y-30379174D01*
X13339272Y-30383514D01*
X13295563Y-30406218D01*
X13292025Y-30407986D01*
X13247611Y-30429314D01*
X13239121Y-30433391D01*
X13233840Y-30438274D01*
X13233788Y-30438309D01*
X13227412Y-30441620D01*
X13222372Y-30445924D01*
X13220618Y-30447678D01*
X13185123Y-30483174D01*
X13181553Y-30486606D01*
X13146563Y-30518949D01*
X13146559Y-30518954D01*
X13139644Y-30525346D01*
X13135952Y-30531703D01*
X13130440Y-30537856D01*
X11524449Y-32143848D01*
X11513360Y-32153703D01*
X11486690Y-32174728D01*
X11481335Y-32182475D01*
X11481334Y-32182477D01*
X11453345Y-32222975D01*
X11451050Y-32226187D01*
X11416166Y-32273416D01*
X11413773Y-32280232D01*
X11409669Y-32286169D01*
X11406829Y-32295149D01*
X11406828Y-32295151D01*
X11391982Y-32342095D01*
X11390729Y-32345850D01*
X11371281Y-32401231D01*
X11370999Y-32408419D01*
X11370988Y-32408478D01*
X11368820Y-32415330D01*
X11368300Y-32421937D01*
X11368300Y-32474616D01*
X11368203Y-32479562D01*
X11365962Y-32536594D01*
X11367846Y-32543700D01*
X11368300Y-32551947D01*
X11368300Y-38526747D01*
X11367427Y-38541556D01*
X11363436Y-38575277D01*
X11365128Y-38584541D01*
X11365128Y-38584542D01*
X11373972Y-38632968D01*
X11374622Y-38636871D01*
X11378593Y-38663279D01*
X11383351Y-38694929D01*
X11386479Y-38701442D01*
X11387775Y-38708540D01*
X11414825Y-38760614D01*
X11416568Y-38764104D01*
X11441991Y-38817046D01*
X11446877Y-38822332D01*
X11446910Y-38822380D01*
X11450221Y-38828755D01*
X11454525Y-38833795D01*
X11491752Y-38871022D01*
X11495181Y-38874587D01*
X11533946Y-38916523D01*
X11540305Y-38920216D01*
X11546463Y-38925733D01*
X12897235Y-40276505D01*
X12931261Y-40338817D01*
X12926196Y-40409632D01*
X12897235Y-40454695D01*
X12576850Y-40775080D01*
X12565761Y-40784934D01*
X12546491Y-40800126D01*
X12546489Y-40800128D01*
X12539090Y-40805961D01*
X12533735Y-40813708D01*
X12533734Y-40813710D01*
X12505745Y-40854208D01*
X12503450Y-40857420D01*
X12468566Y-40904649D01*
X12466173Y-40911465D01*
X12462069Y-40917402D01*
X12459229Y-40926382D01*
X12459228Y-40926384D01*
X12444382Y-40973328D01*
X12443129Y-40977083D01*
X12432423Y-41007571D01*
X12423681Y-41032464D01*
X12423399Y-41039652D01*
X12423388Y-41039711D01*
X12421220Y-41046563D01*
X12420700Y-41053170D01*
X12420700Y-41105849D01*
X12420603Y-41110795D01*
X12418362Y-41167827D01*
X12420246Y-41174933D01*
X12420700Y-41183180D01*
X12420700Y-42119147D01*
X12419827Y-42133956D01*
X12415836Y-42167677D01*
X12417528Y-42176941D01*
X12417528Y-42176942D01*
X12426372Y-42225368D01*
X12427022Y-42229271D01*
X12434193Y-42276963D01*
X12435751Y-42287329D01*
X12438879Y-42293842D01*
X12440175Y-42300940D01*
X12467225Y-42353014D01*
X12468968Y-42356504D01*
X12494391Y-42409446D01*
X12499277Y-42414732D01*
X12499310Y-42414780D01*
X12502621Y-42421155D01*
X12506925Y-42426195D01*
X12544152Y-42463422D01*
X12547581Y-42466987D01*
X12586346Y-42508923D01*
X12592705Y-42512616D01*
X12598863Y-42518133D01*
X13389304Y-43308574D01*
X13423330Y-43370886D01*
X13418265Y-43441701D01*
X13393097Y-43481933D01*
X13392929Y-43482077D01*
X13268352Y-43642681D01*
X13178613Y-43825055D01*
X13177004Y-43831233D01*
X13177003Y-43831235D01*
X13150803Y-43931820D01*
X13127378Y-44021748D01*
X13124760Y-44071700D01*
X13117626Y-44207846D01*
X13116741Y-44224726D01*
X13147135Y-44425697D01*
X13217319Y-44616452D01*
X13220679Y-44621872D01*
X13220680Y-44621873D01*
X13321063Y-44783776D01*
X13321066Y-44783780D01*
X13324426Y-44789199D01*
X13324526Y-44789305D01*
X13349433Y-44853395D01*
X13335291Y-44922969D01*
X13285780Y-44973852D01*
X13223889Y-44990100D01*
X12056219Y-44990100D01*
X12041410Y-44989227D01*
X12038593Y-44988894D01*
X12007689Y-44985236D01*
X11998426Y-44986928D01*
X11998419Y-44986928D01*
X11949982Y-44995775D01*
X11946083Y-44996425D01*
X11938997Y-44997490D01*
X11897356Y-45003750D01*
X11897355Y-45003750D01*
X11888038Y-45005151D01*
X11881525Y-45008279D01*
X11874427Y-45009575D01*
X11822347Y-45036628D01*
X11818845Y-45038377D01*
X11774413Y-45059713D01*
X11765921Y-45063791D01*
X11760636Y-45068677D01*
X11760589Y-45068708D01*
X11754211Y-45072021D01*
X11749172Y-45076325D01*
X11711945Y-45113552D01*
X11708380Y-45116981D01*
X11666444Y-45155746D01*
X11662751Y-45162105D01*
X11657234Y-45168263D01*
X10597302Y-46228195D01*
X10534990Y-46262221D01*
X10508207Y-46265100D01*
X10165100Y-46265100D01*
X10096979Y-46245098D01*
X10050486Y-46191442D01*
X10039100Y-46139100D01*
X10039100Y-39277220D01*
X10039973Y-39262411D01*
X10042857Y-39238043D01*
X10043964Y-39228690D01*
X10042272Y-39219426D01*
X10042272Y-39219422D01*
X10033427Y-39170989D01*
X10032778Y-39167088D01*
X10025451Y-39118355D01*
X10025449Y-39118347D01*
X10024049Y-39109038D01*
X10020923Y-39102528D01*
X10019626Y-39095427D01*
X10011468Y-39079721D01*
X9992582Y-39043363D01*
X9990814Y-39039825D01*
X9969486Y-38995411D01*
X9965409Y-38986921D01*
X9960526Y-38981640D01*
X9960491Y-38981588D01*
X9957180Y-38975212D01*
X9952876Y-38970172D01*
X9915636Y-38932932D01*
X9912206Y-38929366D01*
X9879847Y-38894360D01*
X9873454Y-38887444D01*
X9867097Y-38883752D01*
X9860943Y-38878239D01*
X9031405Y-38048701D01*
X8190520Y-37207817D01*
X8156495Y-37145505D01*
X8161559Y-37074690D01*
X8166560Y-37063093D01*
X8240967Y-36911876D01*
X8243787Y-36906145D01*
X8254127Y-36866451D01*
X8293412Y-36715634D01*
X8293412Y-36715631D01*
X8295022Y-36709452D01*
X8301144Y-36592636D01*
X8305325Y-36512856D01*
X8305325Y-36512852D01*
X8305659Y-36506474D01*
X8275265Y-36305503D01*
X8205081Y-36114748D01*
X8194162Y-36097137D01*
X8101337Y-35947424D01*
X8101334Y-35947420D01*
X8097974Y-35942001D01*
X7958319Y-35794320D01*
X7791821Y-35677737D01*
X7605281Y-35597014D01*
X7559253Y-35587398D01*
X7411056Y-35556438D01*
X7411051Y-35556437D01*
X7406320Y-35555449D01*
X7401438Y-35555193D01*
X7401329Y-35555187D01*
X7401313Y-35555187D01*
X7399661Y-35555100D01*
X6450400Y-35555100D01*
X6402407Y-35559975D01*
X6305332Y-35569835D01*
X6305330Y-35569835D01*
X6298984Y-35570480D01*
X6105028Y-35631262D01*
X5927256Y-35729803D01*
X5772929Y-35862077D01*
X5648352Y-36022681D01*
X5558613Y-36205055D01*
X5557004Y-36211233D01*
X5557003Y-36211235D01*
X5527290Y-36325307D01*
X5507378Y-36401748D01*
X5507044Y-36408127D01*
X5497375Y-36592636D01*
X5496741Y-36604726D01*
X5527135Y-36805697D01*
X5597319Y-36996452D01*
X5600680Y-37001872D01*
X5600680Y-37001873D01*
X5631162Y-37051036D01*
X5650058Y-37119472D01*
X5628956Y-37187260D01*
X5613170Y-37206527D01*
X5232502Y-37587195D01*
X5170190Y-37621221D01*
X5143407Y-37624100D01*
X4710958Y-37624100D01*
X4642837Y-37604098D01*
X4599708Y-37557255D01*
X4578970Y-37518253D01*
X4454961Y-37366202D01*
X4303780Y-37241135D01*
X4131185Y-37147813D01*
X4037468Y-37118803D01*
X3949639Y-37091615D01*
X3949636Y-37091614D01*
X3943752Y-37089793D01*
X3937627Y-37089149D01*
X3937626Y-37089149D01*
X3858726Y-37080856D01*
X3793069Y-37053842D01*
X3752440Y-36995621D01*
X3749737Y-36924675D01*
X3782802Y-36866451D01*
X5545550Y-35103703D01*
X5556639Y-35093849D01*
X5575911Y-35078656D01*
X5575915Y-35078652D01*
X5583310Y-35072822D01*
X5588664Y-35065075D01*
X5588668Y-35065071D01*
X5616677Y-35024546D01*
X5618958Y-35021352D01*
X5653835Y-34974133D01*
X5656229Y-34967316D01*
X5660331Y-34961381D01*
X5678012Y-34905475D01*
X5679260Y-34901735D01*
X5691931Y-34865654D01*
X5733374Y-34808009D01*
X5799404Y-34781921D01*
X5869056Y-34795672D01*
X5883082Y-34804189D01*
X6010579Y-34893463D01*
X6197119Y-34974186D01*
X6233111Y-34981705D01*
X6391344Y-35014762D01*
X6391349Y-35014763D01*
X6396080Y-35015751D01*
X6400962Y-35016007D01*
X6401071Y-35016013D01*
X6401087Y-35016013D01*
X6402739Y-35016100D01*
X7352000Y-35016100D01*
X7399993Y-35011225D01*
X7497068Y-35001365D01*
X7497070Y-35001365D01*
X7503416Y-35000720D01*
X7697372Y-34939938D01*
X7875144Y-34841397D01*
X8029471Y-34709123D01*
X8054720Y-34676573D01*
X8134107Y-34574227D01*
X8154048Y-34548519D01*
X8243787Y-34366145D01*
X8295022Y-34169452D01*
X8305659Y-33966474D01*
X8275265Y-33765503D01*
X8205081Y-33574748D01*
X8171238Y-33520164D01*
X8152342Y-33451728D01*
X8173444Y-33383940D01*
X8189230Y-33364673D01*
X9564350Y-31989553D01*
X9575439Y-31979699D01*
X9594709Y-31964507D01*
X9594711Y-31964505D01*
X9602110Y-31958672D01*
X9635462Y-31910415D01*
X9637757Y-31907203D01*
X9667040Y-31867558D01*
X9667041Y-31867557D01*
X9672634Y-31859984D01*
X9675027Y-31853168D01*
X9679131Y-31847231D01*
X9682785Y-31835679D01*
X9688350Y-31818083D01*
X9696826Y-31791281D01*
X9698071Y-31787550D01*
X9714396Y-31741063D01*
X9714396Y-31741061D01*
X9717519Y-31732169D01*
X9717801Y-31724981D01*
X9717812Y-31724922D01*
X9719980Y-31718070D01*
X9720500Y-31711463D01*
X9720500Y-31658784D01*
X9720597Y-31653837D01*
X9721250Y-31637210D01*
X9722838Y-31596806D01*
X9720954Y-31589700D01*
X9720500Y-31581453D01*
X9720500Y-27934721D01*
X9726942Y-27894949D01*
X9767404Y-27773315D01*
X9769351Y-27767463D01*
X9795171Y-27563074D01*
X9795583Y-27533600D01*
X9775480Y-27328570D01*
X9715935Y-27131349D01*
X9619218Y-26949449D01*
X9520324Y-26828193D01*
X9492906Y-26794575D01*
X9492903Y-26794572D01*
X9489011Y-26789800D01*
X9361242Y-26684100D01*
X9335025Y-26662411D01*
X9335021Y-26662409D01*
X9330275Y-26658482D01*
X9149055Y-26560497D01*
X8952254Y-26499577D01*
X8946129Y-26498933D01*
X8946128Y-26498933D01*
X8753498Y-26478687D01*
X8753496Y-26478687D01*
X8747369Y-26478043D01*
X8660529Y-26485946D01*
X8548342Y-26496155D01*
X8548339Y-26496156D01*
X8542203Y-26496714D01*
X8344572Y-26554880D01*
X8162002Y-26650326D01*
X8157201Y-26654186D01*
X8157198Y-26654188D01*
X8119995Y-26684100D01*
X8001447Y-26779415D01*
X7869024Y-26937230D01*
X7866056Y-26942628D01*
X7866053Y-26942633D01*
X7777011Y-27104602D01*
X7769776Y-27117762D01*
X7707484Y-27314132D01*
X7706798Y-27320249D01*
X7706797Y-27320253D01*
X7693171Y-27441733D01*
X7684520Y-27518862D01*
X7685036Y-27525006D01*
X7700621Y-27710597D01*
X7701759Y-27724153D01*
X7703458Y-27730078D01*
X7743434Y-27869492D01*
X7742983Y-27940487D01*
X7704221Y-27999968D01*
X7639455Y-28029051D01*
X7569246Y-28018501D01*
X7533220Y-27993317D01*
X7287405Y-27747502D01*
X7253379Y-27685190D01*
X7250500Y-27658407D01*
X7250500Y-26663852D01*
X7238867Y-26605369D01*
X7194552Y-26539048D01*
X7128231Y-26494733D01*
X7116062Y-26492312D01*
X7116061Y-26492312D01*
X7075816Y-26484307D01*
X7069748Y-26483100D01*
X5330252Y-26483100D01*
X5324184Y-26484307D01*
X5283939Y-26492312D01*
X5283938Y-26492312D01*
X5271769Y-26494733D01*
X5205448Y-26539048D01*
X5161133Y-26605369D01*
X5149500Y-26663852D01*
X5149500Y-28403348D01*
X5150707Y-28409416D01*
X5154331Y-28427633D01*
X5161133Y-28461831D01*
X5205448Y-28528152D01*
X5271769Y-28572467D01*
X5283938Y-28574888D01*
X5283939Y-28574888D01*
X5315336Y-28581133D01*
X5330252Y-28584100D01*
X6797607Y-28584100D01*
X6865728Y-28604102D01*
X6886702Y-28621005D01*
X8082595Y-29816898D01*
X8116621Y-29879210D01*
X8119500Y-29905993D01*
X8119500Y-30059368D01*
X8099498Y-30127489D01*
X8045842Y-30173982D01*
X7975568Y-30184086D01*
X7910988Y-30154592D01*
X7910971Y-30154576D01*
X7909361Y-30152602D01*
X7758180Y-30027535D01*
X7585585Y-29934213D01*
X7469417Y-29898253D01*
X7404039Y-29878015D01*
X7404036Y-29878014D01*
X7398152Y-29876193D01*
X7392027Y-29875549D01*
X7392026Y-29875549D01*
X7209147Y-29856327D01*
X7209146Y-29856327D01*
X7203019Y-29855683D01*
X7080383Y-29866844D01*
X7013759Y-29872907D01*
X7013758Y-29872907D01*
X7007618Y-29873466D01*
X7001704Y-29875207D01*
X7001702Y-29875207D01*
X6897101Y-29905993D01*
X6819393Y-29928864D01*
X6813928Y-29931721D01*
X6702906Y-29989762D01*
X6644531Y-30004100D01*
X4710958Y-30004100D01*
X4642837Y-29984098D01*
X4599708Y-29937255D01*
X4578970Y-29898253D01*
X4485657Y-29783839D01*
X4458103Y-29718407D01*
X4457300Y-29704204D01*
X4457300Y-29693384D01*
X4457397Y-29688437D01*
X4459268Y-29640815D01*
X4459638Y-29631406D01*
X4457754Y-29624300D01*
X4457300Y-29616053D01*
X4457300Y-19146220D01*
X4458173Y-19131411D01*
X4461057Y-19107043D01*
X4462164Y-19097690D01*
X4460472Y-19088426D01*
X4460472Y-19088422D01*
X4451627Y-19039989D01*
X4450978Y-19036088D01*
X4443651Y-18987355D01*
X4443649Y-18987347D01*
X4442249Y-18978038D01*
X4439123Y-18971528D01*
X4437826Y-18964427D01*
X4420223Y-18930539D01*
X4410782Y-18912363D01*
X4409014Y-18908825D01*
X4387686Y-18864411D01*
X4383609Y-18855921D01*
X4378726Y-18850640D01*
X4378691Y-18850588D01*
X4375380Y-18844212D01*
X4371076Y-18839172D01*
X4333837Y-18801933D01*
X4330407Y-18798367D01*
X4298045Y-18763357D01*
X4298042Y-18763355D01*
X4291654Y-18756444D01*
X4285298Y-18752753D01*
X4279144Y-18747240D01*
X3961405Y-18429501D01*
X3927379Y-18367189D01*
X3924500Y-18340406D01*
X3924500Y-18305700D01*
X3944502Y-18237579D01*
X3998158Y-18191086D01*
X4050500Y-18179700D01*
X5649321Y-18179700D01*
X5714377Y-18199435D01*
X5714843Y-18198577D01*
X5719013Y-18200841D01*
X5719322Y-18200935D01*
X5724717Y-18204540D01*
X5730019Y-18206818D01*
X5730021Y-18206819D01*
X5922129Y-18289355D01*
X5927436Y-18291635D01*
X6007088Y-18309658D01*
X6136995Y-18339054D01*
X6137001Y-18339055D01*
X6142632Y-18340329D01*
X6148403Y-18340556D01*
X6148405Y-18340556D01*
X6216211Y-18343220D01*
X6363098Y-18348991D01*
X6472275Y-18333161D01*
X6575738Y-18318160D01*
X6575743Y-18318159D01*
X6581452Y-18317331D01*
X6586916Y-18315476D01*
X6586921Y-18315475D01*
X6784907Y-18248268D01*
X6784912Y-18248266D01*
X6790379Y-18246410D01*
X6982884Y-18138602D01*
X7152518Y-17997518D01*
X7293602Y-17827884D01*
X7401410Y-17635379D01*
X7403266Y-17629912D01*
X7403268Y-17629907D01*
X7470475Y-17431921D01*
X7470476Y-17431916D01*
X7472331Y-17426452D01*
X7473159Y-17420743D01*
X7473160Y-17420738D01*
X7495937Y-17263645D01*
X7503991Y-17208098D01*
X7505643Y-17145000D01*
X7485454Y-16925289D01*
X7425565Y-16712936D01*
X7327980Y-16515053D01*
X7305276Y-16484648D01*
X7199420Y-16342891D01*
X7199420Y-16342890D01*
X7195967Y-16338267D01*
X7033949Y-16188499D01*
X6847350Y-16070764D01*
X6642421Y-15989006D01*
X6636764Y-15987881D01*
X6636758Y-15987879D01*
X6548858Y-15970395D01*
X6477918Y-15956284D01*
X6415009Y-15923378D01*
X6379877Y-15861683D01*
X6376500Y-15832706D01*
X6376500Y-12556500D01*
X6396502Y-12488379D01*
X6450158Y-12441886D01*
X6502500Y-12430500D01*
X6745748Y-12430500D01*
X6751816Y-12429293D01*
X6792061Y-12421288D01*
X6792062Y-12421288D01*
X6804231Y-12418867D01*
X6870552Y-12374552D01*
X6914867Y-12308231D01*
X6926500Y-12249748D01*
X6926500Y-10610252D01*
X6922226Y-10588767D01*
X6917288Y-10563939D01*
X6917288Y-10563938D01*
X6914867Y-10551769D01*
X6870552Y-10485448D01*
X6804231Y-10441133D01*
X6792062Y-10438712D01*
X6792061Y-10438712D01*
X6751816Y-10430707D01*
X6745748Y-10429500D01*
X5106252Y-10429500D01*
X5100184Y-10430707D01*
X5059939Y-10438712D01*
X5059938Y-10438712D01*
X5047769Y-10441133D01*
X4981448Y-10485448D01*
X4937133Y-10551769D01*
X4934712Y-10563938D01*
X4934712Y-10563939D01*
X4929774Y-10588767D01*
X4925500Y-10610252D01*
X4925500Y-12249748D01*
X4937133Y-12308231D01*
X4981448Y-12374552D01*
X5047769Y-12418867D01*
X5059938Y-12421288D01*
X5059939Y-12421288D01*
X5100184Y-12429293D01*
X5106252Y-12430500D01*
X5349500Y-12430500D01*
X5417621Y-12450502D01*
X5464114Y-12504158D01*
X5475500Y-12556500D01*
X5475500Y-16214114D01*
X5455498Y-16282235D01*
X5432577Y-16308846D01*
X5425457Y-16315090D01*
X5288863Y-16488360D01*
X5186131Y-16683620D01*
X5120703Y-16894333D01*
X5094770Y-17113440D01*
X5095148Y-17119206D01*
X5096803Y-17144460D01*
X5081299Y-17213743D01*
X5030799Y-17263645D01*
X4971073Y-17278700D01*
X4050500Y-17278700D01*
X3982379Y-17258698D01*
X3935886Y-17205042D01*
X3924500Y-17152700D01*
X3924500Y-16609452D01*
X3917923Y-16576387D01*
X3915288Y-16563139D01*
X3915288Y-16563138D01*
X3912867Y-16550969D01*
X3868552Y-16484648D01*
X3802231Y-16440333D01*
X3790062Y-16437912D01*
X3790061Y-16437912D01*
X3749816Y-16429907D01*
X3743748Y-16428700D01*
X1504252Y-16428700D01*
X1498184Y-16429907D01*
X1457939Y-16437912D01*
X1457938Y-16437912D01*
X1445769Y-16440333D01*
X1379448Y-16484648D01*
X1335133Y-16550969D01*
X1332712Y-16563138D01*
X1332712Y-16563139D01*
X1330077Y-16576387D01*
X1323500Y-16609452D01*
X1323500Y-18848948D01*
X1335133Y-18907431D01*
X1379448Y-18973752D01*
X1445769Y-19018067D01*
X1457938Y-19020488D01*
X1457939Y-19020488D01*
X1498184Y-19028493D01*
X1504252Y-19029700D01*
X3235206Y-19029700D01*
X3303327Y-19049702D01*
X3324301Y-19066605D01*
X3519395Y-19261699D01*
X3553421Y-19324011D01*
X3556300Y-19350794D01*
X3556300Y-27071030D01*
X3536298Y-27139151D01*
X3482642Y-27185644D01*
X3412368Y-27195748D01*
X3347788Y-27166254D01*
X3341168Y-27160070D01*
X3337361Y-27155402D01*
X3186180Y-27030335D01*
X3013585Y-26937013D01*
X2919869Y-26908003D01*
X2832039Y-26880815D01*
X2832036Y-26880814D01*
X2826152Y-26878993D01*
X2820027Y-26878349D01*
X2820026Y-26878349D01*
X2637147Y-26859127D01*
X2637146Y-26859127D01*
X2631019Y-26858483D01*
X2508383Y-26869644D01*
X2441759Y-26875707D01*
X2441758Y-26875707D01*
X2435618Y-26876266D01*
X2429704Y-26878007D01*
X2429702Y-26878007D01*
X2401821Y-26886213D01*
X2247393Y-26931664D01*
X2241928Y-26934521D01*
X2078972Y-27019712D01*
X2078968Y-27019715D01*
X2073512Y-27022567D01*
X2068712Y-27026427D01*
X2068711Y-27026427D01*
X2053703Y-27038494D01*
X1920600Y-27145511D01*
X1794480Y-27295816D01*
X1791516Y-27301208D01*
X1791513Y-27301212D01*
X1722331Y-27427054D01*
X1699956Y-27467754D01*
X1640628Y-27654778D01*
X1618757Y-27849763D01*
X1619273Y-27855907D01*
X1630846Y-27993725D01*
X1635175Y-28045283D01*
X1652655Y-28106243D01*
X1652205Y-28177235D01*
X1620631Y-28230066D01*
X777250Y-29073447D01*
X766161Y-29083301D01*
X746891Y-29098493D01*
X746889Y-29098495D01*
X739490Y-29104328D01*
X734135Y-29112075D01*
X734134Y-29112077D01*
X706145Y-29152575D01*
X703850Y-29155787D01*
X668966Y-29203016D01*
X666573Y-29209832D01*
X662469Y-29215769D01*
X659629Y-29224749D01*
X659628Y-29224751D01*
X644782Y-29271695D01*
X643529Y-29275450D01*
X624081Y-29330831D01*
X623799Y-29338019D01*
X623788Y-29338078D01*
X621620Y-29344930D01*
X621100Y-29351537D01*
X621100Y-29404216D01*
X621003Y-29409162D01*
X618762Y-29466194D01*
X620646Y-29473300D01*
X621100Y-29481547D01*
X621100Y-40901350D01*
X620227Y-40916159D01*
X616236Y-40949880D01*
X617928Y-40959144D01*
X617928Y-40959145D01*
X626772Y-41007571D01*
X627422Y-41011474D01*
X633660Y-41052961D01*
X636151Y-41069532D01*
X639279Y-41076045D01*
X640575Y-41083143D01*
X667625Y-41135217D01*
X669368Y-41138707D01*
X694791Y-41191649D01*
X699677Y-41196935D01*
X699710Y-41196983D01*
X703021Y-41203358D01*
X707325Y-41208398D01*
X744552Y-41245625D01*
X747981Y-41249190D01*
X786746Y-41291126D01*
X793105Y-41294819D01*
X799263Y-41300336D01*
X2199932Y-42701005D01*
X2233958Y-42763317D01*
X2228893Y-42834132D01*
X2186346Y-42890968D01*
X2119826Y-42915779D01*
X2110837Y-42916100D01*
X635852Y-42916100D01*
X629784Y-42917307D01*
X589539Y-42925312D01*
X589538Y-42925312D01*
X577369Y-42927733D01*
X567053Y-42934626D01*
X551807Y-42944813D01*
X511048Y-42972048D01*
X466733Y-43038369D01*
X464312Y-43050538D01*
X464312Y-43050539D01*
X460652Y-43068941D01*
X455100Y-43096852D01*
X455100Y-44736348D01*
X456307Y-44742416D01*
X463532Y-44778736D01*
X466733Y-44794831D01*
X511048Y-44861152D01*
X577369Y-44905467D01*
X589538Y-44907888D01*
X589539Y-44907888D01*
X629784Y-44915893D01*
X635852Y-44917100D01*
X2275348Y-44917100D01*
X2281416Y-44915893D01*
X2321661Y-44907888D01*
X2321662Y-44907888D01*
X2333831Y-44905467D01*
X2400152Y-44861152D01*
X2444467Y-44794831D01*
X2447669Y-44778736D01*
X2454893Y-44742416D01*
X2456100Y-44736348D01*
X2456100Y-44493100D01*
X2476102Y-44424979D01*
X2529758Y-44378486D01*
X2582100Y-44367100D01*
X2772980Y-44367100D01*
X2787789Y-44367973D01*
X2821510Y-44371964D01*
X2830774Y-44370272D01*
X2830775Y-44370272D01*
X2879201Y-44361428D01*
X2883104Y-44360778D01*
X2931845Y-44353450D01*
X2931846Y-44353450D01*
X2941162Y-44352049D01*
X2947675Y-44348921D01*
X2954773Y-44347625D01*
X3006847Y-44320575D01*
X3010337Y-44318832D01*
X3063279Y-44293409D01*
X3068565Y-44288523D01*
X3068613Y-44288490D01*
X3074988Y-44285179D01*
X3080028Y-44280875D01*
X3117255Y-44243648D01*
X3120821Y-44240218D01*
X3155841Y-44207846D01*
X3162756Y-44201454D01*
X3166449Y-44195095D01*
X3171966Y-44188937D01*
X3627828Y-43733075D01*
X3690140Y-43699049D01*
X3755856Y-43702336D01*
X3779718Y-43710089D01*
X3974546Y-43733321D01*
X3980681Y-43732849D01*
X3980683Y-43732849D01*
X4164034Y-43718741D01*
X4164038Y-43718740D01*
X4170176Y-43718268D01*
X4238713Y-43699132D01*
X4309703Y-43700078D01*
X4361692Y-43731395D01*
X5100247Y-44469950D01*
X5110101Y-44481039D01*
X5125294Y-44500311D01*
X5125298Y-44500315D01*
X5131128Y-44507710D01*
X5138875Y-44513064D01*
X5138879Y-44513068D01*
X5179404Y-44541077D01*
X5182598Y-44543358D01*
X5229817Y-44578235D01*
X5236634Y-44580629D01*
X5242569Y-44584731D01*
X5251544Y-44587569D01*
X5251545Y-44587570D01*
X5273507Y-44594515D01*
X5298475Y-44602412D01*
X5302215Y-44603660D01*
X5348745Y-44620000D01*
X5348748Y-44620001D01*
X5357631Y-44623120D01*
X5364816Y-44623403D01*
X5364889Y-44623417D01*
X5371730Y-44625580D01*
X5378337Y-44626100D01*
X5431006Y-44626100D01*
X5435952Y-44626197D01*
X5492994Y-44628438D01*
X5500100Y-44626554D01*
X5508347Y-44626100D01*
X5533170Y-44626100D01*
X5601291Y-44646102D01*
X5640256Y-44685703D01*
X5704426Y-44789199D01*
X5780507Y-44869652D01*
X5812778Y-44932890D01*
X5805738Y-45003537D01*
X5760066Y-45060088D01*
X5752354Y-45063791D01*
X5747070Y-45068676D01*
X5747021Y-45068709D01*
X5740644Y-45072021D01*
X5735605Y-45076325D01*
X5698378Y-45113552D01*
X5694813Y-45116981D01*
X5652877Y-45155746D01*
X5649184Y-45162105D01*
X5643667Y-45168263D01*
X4956850Y-45855080D01*
X4945761Y-45864934D01*
X4926491Y-45880126D01*
X4926489Y-45880128D01*
X4919090Y-45885961D01*
X4913735Y-45893708D01*
X4913734Y-45893710D01*
X4885745Y-45934208D01*
X4883443Y-45937430D01*
X4868080Y-45958230D01*
X4848566Y-45984649D01*
X4846173Y-45991465D01*
X4842069Y-45997402D01*
X4839229Y-46006382D01*
X4839228Y-46006384D01*
X4824382Y-46053328D01*
X4823129Y-46057083D01*
X4810051Y-46094326D01*
X4803681Y-46112464D01*
X4803399Y-46119652D01*
X4803388Y-46119711D01*
X4801220Y-46126563D01*
X4800700Y-46133170D01*
X4800700Y-46185849D01*
X4800603Y-46190795D01*
X4798362Y-46247827D01*
X4800246Y-46254933D01*
X4800700Y-46263180D01*
X4800700Y-52951980D01*
X4799827Y-52966789D01*
X4795836Y-53000510D01*
X4797528Y-53009774D01*
X4797528Y-53009775D01*
X4806372Y-53058201D01*
X4807022Y-53062104D01*
X4815751Y-53120162D01*
X4818879Y-53126675D01*
X4820175Y-53133773D01*
X4821554Y-53136428D01*
X4822439Y-53205157D01*
X4821192Y-53208777D01*
X4821331Y-53208820D01*
X4755903Y-53419533D01*
X4729970Y-53638640D01*
X4744400Y-53858804D01*
X4745821Y-53864400D01*
X4745822Y-53864405D01*
X4789386Y-54035935D01*
X4797988Y-54069805D01*
X4797988Y-54069807D01*
X4798711Y-54072652D01*
X4798152Y-54072794D01*
X4801820Y-54139777D01*
X4768259Y-54200038D01*
X4310850Y-54657447D01*
X4299761Y-54667301D01*
X4280491Y-54682493D01*
X4280489Y-54682495D01*
X4273090Y-54688328D01*
X4267735Y-54696075D01*
X4267734Y-54696077D01*
X4239745Y-54736575D01*
X4237450Y-54739787D01*
X4202566Y-54787016D01*
X4200173Y-54793832D01*
X4196069Y-54799769D01*
X4193229Y-54808749D01*
X4193228Y-54808751D01*
X4178382Y-54855695D01*
X4177129Y-54859450D01*
X4171953Y-54874191D01*
X4157681Y-54914831D01*
X4157399Y-54922019D01*
X4157388Y-54922078D01*
X4155220Y-54928930D01*
X4154700Y-54935537D01*
X4154700Y-54988216D01*
X4154603Y-54993162D01*
X4152362Y-55050194D01*
X4154246Y-55057300D01*
X4154700Y-55065547D01*
X4154700Y-57026220D01*
X4134698Y-57094341D01*
X4081042Y-57140834D01*
X4041432Y-57151575D01*
X4002984Y-57155480D01*
X3809028Y-57216262D01*
X3631256Y-57314803D01*
X3476929Y-57447077D01*
X3352352Y-57607681D01*
X3349539Y-57613399D01*
X3349534Y-57613406D01*
X3346422Y-57619731D01*
X3298399Y-57672021D01*
X3233368Y-57690100D01*
X2495758Y-57690100D01*
X2427637Y-57670098D01*
X2384508Y-57623255D01*
X2363770Y-57584253D01*
X2239761Y-57432202D01*
X2088580Y-57307135D01*
X1915985Y-57213813D01*
X1809040Y-57180708D01*
X1734439Y-57157615D01*
X1734436Y-57157614D01*
X1728552Y-57155793D01*
X1722427Y-57155149D01*
X1722426Y-57155149D01*
X1539547Y-57135927D01*
X1539546Y-57135927D01*
X1533419Y-57135283D01*
X1410783Y-57146444D01*
X1344159Y-57152507D01*
X1344158Y-57152507D01*
X1338018Y-57153066D01*
X1332104Y-57154807D01*
X1332102Y-57154807D01*
X1244099Y-57180708D01*
X1149793Y-57208464D01*
X1144328Y-57211321D01*
X981372Y-57296512D01*
X981368Y-57296515D01*
X975912Y-57299367D01*
X971112Y-57303227D01*
X971111Y-57303227D01*
X960563Y-57311708D01*
X823000Y-57422311D01*
X696880Y-57572616D01*
X693916Y-57578008D01*
X693913Y-57578012D01*
X642231Y-57672021D01*
X602356Y-57744554D01*
X543028Y-57931578D01*
X521157Y-58126563D01*
X537575Y-58322083D01*
X591658Y-58510691D01*
X594476Y-58516174D01*
X678523Y-58679713D01*
X678526Y-58679717D01*
X681344Y-58685201D01*
X803218Y-58838969D01*
X807911Y-58842963D01*
X807912Y-58842964D01*
X938569Y-58954161D01*
X952638Y-58966135D01*
X958016Y-58969141D01*
X958018Y-58969142D01*
X994332Y-58989437D01*
X1123913Y-59061857D01*
X1310518Y-59122489D01*
X1505346Y-59145721D01*
X1511481Y-59145249D01*
X1511483Y-59145249D01*
X1694834Y-59131141D01*
X1694838Y-59131140D01*
X1700976Y-59130668D01*
X1889956Y-59077903D01*
X2065089Y-58989437D01*
X2083375Y-58975151D01*
X2214853Y-58872429D01*
X2219703Y-58868640D01*
X2249484Y-58834139D01*
X2343885Y-58724773D01*
X2343885Y-58724772D01*
X2347909Y-58720111D01*
X2384976Y-58654862D01*
X2436014Y-58605513D01*
X2494531Y-58591100D01*
X3237170Y-58591100D01*
X3305291Y-58611102D01*
X3344256Y-58650703D01*
X3408426Y-58754199D01*
X3412812Y-58758837D01*
X3463990Y-58812957D01*
X3496261Y-58876195D01*
X3489221Y-58946841D01*
X3445103Y-59002467D01*
X3426984Y-59013112D01*
X3383921Y-59033791D01*
X3378635Y-59038678D01*
X3378595Y-59038705D01*
X3372212Y-59042020D01*
X3367172Y-59046325D01*
X3329945Y-59083552D01*
X3326380Y-59086981D01*
X3284444Y-59125746D01*
X3280751Y-59132105D01*
X3275234Y-59138263D01*
X2634450Y-59779047D01*
X2623361Y-59788901D01*
X2604091Y-59804093D01*
X2604089Y-59804095D01*
X2596690Y-59809928D01*
X2565244Y-59855428D01*
X2563345Y-59858175D01*
X2561050Y-59861387D01*
X2526166Y-59908616D01*
X2523773Y-59915432D01*
X2519669Y-59921369D01*
X2516829Y-59930349D01*
X2516828Y-59930351D01*
X2501982Y-59977295D01*
X2500729Y-59981050D01*
X2498613Y-59987077D01*
X2481281Y-60036431D01*
X2480999Y-60043619D01*
X2480988Y-60043678D01*
X2478820Y-60050530D01*
X2478300Y-60057137D01*
X2478300Y-60109816D01*
X2478203Y-60114762D01*
X2475962Y-60171794D01*
X2477846Y-60178900D01*
X2478300Y-60187147D01*
X2478300Y-61306780D01*
X2477427Y-61321589D01*
X2473436Y-61355310D01*
X2475128Y-61364574D01*
X2475128Y-61364575D01*
X2483972Y-61413001D01*
X2484622Y-61416904D01*
X2493351Y-61474962D01*
X2496479Y-61481475D01*
X2497775Y-61488573D01*
X2524825Y-61540647D01*
X2526568Y-61544137D01*
X2551991Y-61597079D01*
X2556877Y-61602365D01*
X2556910Y-61602413D01*
X2560221Y-61608788D01*
X2564525Y-61613828D01*
X2601752Y-61651055D01*
X2605181Y-61654620D01*
X2643946Y-61696556D01*
X2650305Y-61700249D01*
X2656463Y-61705766D01*
X3175647Y-62224950D01*
X3185501Y-62236039D01*
X3200693Y-62255309D01*
X3206528Y-62262710D01*
X3214275Y-62268065D01*
X3214277Y-62268066D01*
X3254775Y-62296055D01*
X3257987Y-62298350D01*
X3305216Y-62333234D01*
X3312032Y-62335627D01*
X3317969Y-62339731D01*
X3326949Y-62342571D01*
X3326951Y-62342572D01*
X3347117Y-62348950D01*
X3373919Y-62357426D01*
X3377653Y-62358672D01*
X3393356Y-62364187D01*
X3451000Y-62405631D01*
X3477087Y-62471662D01*
X3463333Y-62541314D01*
X3451165Y-62560291D01*
X3352352Y-62687681D01*
X3262613Y-62870055D01*
X3261004Y-62876233D01*
X3261003Y-62876235D01*
X3213597Y-63058231D01*
X3211378Y-63066748D01*
X3211044Y-63073127D01*
X3202454Y-63237043D01*
X3200741Y-63269726D01*
X3231135Y-63470697D01*
X3301319Y-63661452D01*
X3304679Y-63666872D01*
X3304680Y-63666873D01*
X3405063Y-63828776D01*
X3405066Y-63828780D01*
X3408426Y-63834199D01*
X3412812Y-63838837D01*
X3536273Y-63969393D01*
X3548081Y-63981880D01*
X3714579Y-64098463D01*
X3901119Y-64179186D01*
X3947147Y-64188802D01*
X4095344Y-64219762D01*
X4095349Y-64219763D01*
X4100080Y-64220751D01*
X4104962Y-64221007D01*
X4105071Y-64221013D01*
X4105087Y-64221013D01*
X4106739Y-64221100D01*
X4916407Y-64221100D01*
X4984528Y-64241102D01*
X5005502Y-64258005D01*
X5314087Y-64566590D01*
X5348113Y-64628902D01*
X5343048Y-64699717D01*
X5300501Y-64756553D01*
X5233981Y-64781364D01*
X5199226Y-64779022D01*
X5157896Y-64770388D01*
X5110320Y-64760449D01*
X5105438Y-64760193D01*
X5105329Y-64760187D01*
X5105313Y-64760187D01*
X5103661Y-64760100D01*
X4154400Y-64760100D01*
X4141218Y-64761439D01*
X4009332Y-64774835D01*
X4009330Y-64774835D01*
X4002984Y-64775480D01*
X3809028Y-64836262D01*
X3631256Y-64934803D01*
X3476929Y-65067077D01*
X3473022Y-65072114D01*
X3473020Y-65072116D01*
X3423260Y-65136267D01*
X3352352Y-65227681D01*
X3349539Y-65233399D01*
X3349534Y-65233406D01*
X3346422Y-65239731D01*
X3298399Y-65292021D01*
X3233368Y-65310100D01*
X2495758Y-65310100D01*
X2427637Y-65290098D01*
X2384508Y-65243255D01*
X2363770Y-65204253D01*
X2239761Y-65052202D01*
X2088580Y-64927135D01*
X1915985Y-64833813D01*
X1813259Y-64802014D01*
X1734439Y-64777615D01*
X1734436Y-64777614D01*
X1728552Y-64775793D01*
X1722427Y-64775149D01*
X1722426Y-64775149D01*
X1539547Y-64755927D01*
X1539546Y-64755927D01*
X1533419Y-64755283D01*
X1410783Y-64766444D01*
X1344159Y-64772507D01*
X1344158Y-64772507D01*
X1338018Y-64773066D01*
X1332104Y-64774807D01*
X1332102Y-64774807D01*
X1239662Y-64802014D01*
X1149793Y-64828464D01*
X1144328Y-64831321D01*
X981372Y-64916512D01*
X981368Y-64916515D01*
X975912Y-64919367D01*
X971112Y-64923227D01*
X971111Y-64923227D01*
X961319Y-64931100D01*
X823000Y-65042311D01*
X696880Y-65192616D01*
X693916Y-65198008D01*
X693913Y-65198012D01*
X642231Y-65292021D01*
X602356Y-65364554D01*
X543028Y-65551578D01*
X521157Y-65746563D01*
X537575Y-65942083D01*
X591658Y-66130691D01*
X594476Y-66136174D01*
X678523Y-66299713D01*
X678526Y-66299717D01*
X681344Y-66305201D01*
X803218Y-66458969D01*
X807911Y-66462963D01*
X807912Y-66462964D01*
X939832Y-66575236D01*
X952638Y-66586135D01*
X1011371Y-66618960D01*
X1061076Y-66669652D01*
X1075900Y-66728947D01*
X1075900Y-75166615D01*
X1055898Y-75234736D01*
X1008275Y-75278277D01*
X854312Y-75358767D01*
X701400Y-75481711D01*
X575280Y-75632016D01*
X572316Y-75637408D01*
X572313Y-75637412D01*
X493613Y-75780567D01*
X480756Y-75803954D01*
X478895Y-75809821D01*
X478894Y-75809823D01*
X468653Y-75842106D01*
X421428Y-75990978D01*
X399557Y-76185963D01*
X415975Y-76381483D01*
X470058Y-76570091D01*
X472876Y-76575574D01*
X556923Y-76739113D01*
X556926Y-76739117D01*
X559744Y-76744601D01*
X681618Y-76898369D01*
X831038Y-77025535D01*
X836416Y-77028541D01*
X836418Y-77028542D01*
X911401Y-77070448D01*
X1002313Y-77121257D01*
X1188918Y-77181889D01*
X1383746Y-77205121D01*
X1389881Y-77204649D01*
X1389883Y-77204649D01*
X1573234Y-77190541D01*
X1573238Y-77190540D01*
X1579376Y-77190068D01*
X1768356Y-77137303D01*
X1943489Y-77048837D01*
X1973315Y-77025535D01*
X2020796Y-76988439D01*
X2098103Y-76928040D01*
X2127884Y-76893539D01*
X2222285Y-76784173D01*
X2222285Y-76784172D01*
X2226309Y-76779511D01*
X2231712Y-76770001D01*
X2305749Y-76639672D01*
X2323225Y-76608909D01*
X2385158Y-76422732D01*
X2409749Y-76228071D01*
X2410141Y-76200000D01*
X2390994Y-76004728D01*
X2389213Y-75998829D01*
X2389212Y-75998824D01*
X2336065Y-75822793D01*
X2334284Y-75816894D01*
X2242170Y-75643653D01*
X2118161Y-75491602D01*
X2022585Y-75412535D01*
X1982847Y-75353701D01*
X1976900Y-75315450D01*
X1976900Y-72416148D01*
X1996902Y-72348027D01*
X2050558Y-72301534D01*
X2120832Y-72291430D01*
X2185412Y-72320924D01*
X2191995Y-72327053D01*
X5109292Y-75244350D01*
X5119146Y-75255439D01*
X5128942Y-75267864D01*
X5140173Y-75282110D01*
X5147921Y-75287465D01*
X5147923Y-75287467D01*
X5188445Y-75315474D01*
X5191664Y-75317774D01*
X5238862Y-75352634D01*
X5245676Y-75355027D01*
X5251614Y-75359131D01*
X5260591Y-75361970D01*
X5260593Y-75361971D01*
X5307562Y-75376825D01*
X5311311Y-75378076D01*
X5366676Y-75397519D01*
X5373863Y-75397801D01*
X5373925Y-75397813D01*
X5380775Y-75399980D01*
X5387382Y-75400500D01*
X5440061Y-75400500D01*
X5445007Y-75400597D01*
X5502039Y-75402838D01*
X5509145Y-75400954D01*
X5517392Y-75400500D01*
X9745807Y-75400500D01*
X9813928Y-75420502D01*
X9834902Y-75437405D01*
X10216943Y-75819446D01*
X10250969Y-75881758D01*
X10247950Y-75946639D01*
X10229524Y-76004728D01*
X10225828Y-76016378D01*
X10203957Y-76211363D01*
X10220375Y-76406883D01*
X10274458Y-76595491D01*
X10277276Y-76600974D01*
X10361323Y-76764513D01*
X10361326Y-76764517D01*
X10364144Y-76770001D01*
X10486018Y-76923769D01*
X10635438Y-77050935D01*
X10640816Y-77053941D01*
X10640818Y-77053942D01*
X10677132Y-77074237D01*
X10806713Y-77146657D01*
X10993318Y-77207289D01*
X11188146Y-77230521D01*
X11194281Y-77230049D01*
X11194283Y-77230049D01*
X11377634Y-77215941D01*
X11377638Y-77215940D01*
X11383776Y-77215468D01*
X11572756Y-77162703D01*
X11747889Y-77074237D01*
X11777715Y-77050935D01*
X11897653Y-76957229D01*
X11902503Y-76953440D01*
X11928449Y-76923382D01*
X12026685Y-76809573D01*
X12026685Y-76809572D01*
X12030709Y-76804911D01*
X12127625Y-76634309D01*
X12189558Y-76448132D01*
X12214149Y-76253471D01*
X12214541Y-76225400D01*
X12195394Y-76030128D01*
X12193613Y-76024229D01*
X12193612Y-76024224D01*
X12148141Y-75873618D01*
X12138684Y-75842294D01*
X12090508Y-75751687D01*
X12076188Y-75682150D01*
X12101735Y-75615910D01*
X12112664Y-75603439D01*
X13533828Y-74182275D01*
X13596140Y-74148249D01*
X13661856Y-74151536D01*
X13685718Y-74159289D01*
X13880546Y-74182521D01*
X13886681Y-74182049D01*
X13886683Y-74182049D01*
X14070034Y-74167941D01*
X14070038Y-74167940D01*
X14076176Y-74167468D01*
X14265156Y-74114703D01*
X14440289Y-74026237D01*
X14470115Y-74002935D01*
X14590053Y-73909229D01*
X14594903Y-73905440D01*
X14624684Y-73870939D01*
X14719085Y-73761573D01*
X14719085Y-73761572D01*
X14723109Y-73756911D01*
X14820025Y-73586309D01*
X14881958Y-73400132D01*
X14906549Y-73205471D01*
X14906941Y-73177400D01*
X14887794Y-72982128D01*
X14886013Y-72976229D01*
X14886012Y-72976224D01*
X14832865Y-72800193D01*
X14831084Y-72794294D01*
X14738970Y-72621053D01*
X14614961Y-72469002D01*
X14463780Y-72343935D01*
X14291185Y-72250613D01*
X14197469Y-72221603D01*
X14109639Y-72194415D01*
X14109636Y-72194414D01*
X14103752Y-72192593D01*
X14097627Y-72191949D01*
X14097626Y-72191949D01*
X13914747Y-72172727D01*
X13914746Y-72172727D01*
X13908619Y-72172083D01*
X13785983Y-72183244D01*
X13719359Y-72189307D01*
X13719358Y-72189307D01*
X13713218Y-72189866D01*
X13707304Y-72191607D01*
X13707302Y-72191607D01*
X13663418Y-72204523D01*
X13524993Y-72245264D01*
X13519528Y-72248121D01*
X13356572Y-72333312D01*
X13356568Y-72333315D01*
X13351112Y-72336167D01*
X13346312Y-72340027D01*
X13346311Y-72340027D01*
X13336361Y-72348027D01*
X13198200Y-72459111D01*
X13072080Y-72609416D01*
X13069116Y-72614808D01*
X13069113Y-72614812D01*
X12990413Y-72757967D01*
X12977556Y-72781354D01*
X12975695Y-72787221D01*
X12975694Y-72787223D01*
X12947892Y-72874866D01*
X12918228Y-72968378D01*
X12896357Y-73163363D01*
X12912775Y-73358883D01*
X12914472Y-73364802D01*
X12914473Y-73364806D01*
X12930254Y-73419841D01*
X12929803Y-73490836D01*
X12898230Y-73543666D01*
X11254626Y-75187271D01*
X11192314Y-75221296D01*
X11176956Y-75223656D01*
X11101322Y-75230539D01*
X11026957Y-75237307D01*
X11026954Y-75237308D01*
X11020818Y-75237866D01*
X11014905Y-75239606D01*
X11014901Y-75239607D01*
X11006629Y-75242041D01*
X10935633Y-75242083D01*
X10881964Y-75210261D01*
X10327353Y-74655650D01*
X10317499Y-74644561D01*
X10302307Y-74625291D01*
X10302305Y-74625289D01*
X10296472Y-74617890D01*
X10288725Y-74612535D01*
X10288723Y-74612534D01*
X10248225Y-74584545D01*
X10245003Y-74582243D01*
X10205358Y-74552960D01*
X10205357Y-74552959D01*
X10197784Y-74547366D01*
X10190968Y-74544973D01*
X10185031Y-74540869D01*
X10176051Y-74538029D01*
X10176049Y-74538028D01*
X10155883Y-74531650D01*
X10129081Y-74523174D01*
X10125350Y-74521929D01*
X10078863Y-74505604D01*
X10078861Y-74505604D01*
X10069969Y-74502481D01*
X10062781Y-74502199D01*
X10062722Y-74502188D01*
X10055870Y-74500020D01*
X10049263Y-74499500D01*
X9996584Y-74499500D01*
X9991637Y-74499403D01*
X9934606Y-74497162D01*
X9927500Y-74499046D01*
X9919253Y-74499500D01*
X5690838Y-74499500D01*
X5622717Y-74479498D01*
X5601743Y-74462595D01*
X2806605Y-71667457D01*
X2772579Y-71605145D01*
X2769700Y-71578362D01*
X2769700Y-70768526D01*
X2789702Y-70700405D01*
X2843358Y-70653912D01*
X2913632Y-70643808D01*
X2977363Y-70672572D01*
X3022564Y-70711041D01*
X3027942Y-70714047D01*
X3027944Y-70714048D01*
X3104318Y-70756732D01*
X3202398Y-70811547D01*
X3283409Y-70837869D01*
X3392471Y-70873306D01*
X3392475Y-70873307D01*
X3398329Y-70875209D01*
X3602894Y-70899601D01*
X3609029Y-70899129D01*
X3609031Y-70899129D01*
X3665939Y-70894750D01*
X3808300Y-70883796D01*
X3814230Y-70882140D01*
X3814232Y-70882140D01*
X4000797Y-70830050D01*
X4000796Y-70830050D01*
X4006725Y-70828395D01*
X4012214Y-70825622D01*
X4012220Y-70825620D01*
X4185116Y-70738283D01*
X4190610Y-70735508D01*
X4352951Y-70608674D01*
X4370651Y-70588169D01*
X4483540Y-70457384D01*
X4483540Y-70457383D01*
X4487564Y-70452722D01*
X4508387Y-70416068D01*
X4586276Y-70278957D01*
X4589323Y-70273594D01*
X4654351Y-70078113D01*
X4680171Y-69873724D01*
X4680583Y-69844250D01*
X4664430Y-69679508D01*
X4677690Y-69609762D01*
X4700734Y-69578119D01*
X7275950Y-67002903D01*
X7287039Y-66993049D01*
X7306309Y-66977857D01*
X7306311Y-66977855D01*
X7313710Y-66972022D01*
X7324840Y-66955919D01*
X7347055Y-66923775D01*
X7349357Y-66920553D01*
X7378640Y-66880908D01*
X7378641Y-66880907D01*
X7384234Y-66873334D01*
X7386627Y-66866518D01*
X7390731Y-66860581D01*
X7408426Y-66804631D01*
X7409671Y-66800900D01*
X7425996Y-66754413D01*
X7425996Y-66754411D01*
X7429119Y-66745519D01*
X7429401Y-66738331D01*
X7429412Y-66738272D01*
X7431580Y-66731420D01*
X7432100Y-66724813D01*
X7432100Y-66672134D01*
X7432197Y-66667187D01*
X7432723Y-66653791D01*
X7434438Y-66610156D01*
X7432554Y-66603050D01*
X7432100Y-66594806D01*
X7432100Y-63345219D01*
X7432973Y-63330410D01*
X7435857Y-63306041D01*
X7436964Y-63296689D01*
X7435272Y-63287426D01*
X7435272Y-63287419D01*
X7426425Y-63238982D01*
X7425774Y-63235075D01*
X7418450Y-63186356D01*
X7418450Y-63186355D01*
X7417049Y-63177038D01*
X7413921Y-63170525D01*
X7412625Y-63163427D01*
X7385572Y-63111347D01*
X7383823Y-63107845D01*
X7362487Y-63063413D01*
X7362486Y-63063412D01*
X7358409Y-63054921D01*
X7353523Y-63049636D01*
X7353492Y-63049589D01*
X7350179Y-63043211D01*
X7345875Y-63038172D01*
X7308648Y-63000945D01*
X7305218Y-62997379D01*
X7272846Y-62962359D01*
X7266454Y-62955444D01*
X7260095Y-62951751D01*
X7253937Y-62946234D01*
X5943953Y-61636250D01*
X5934099Y-61625161D01*
X5918907Y-61605891D01*
X5918905Y-61605889D01*
X5913072Y-61598490D01*
X5905325Y-61593135D01*
X5905323Y-61593134D01*
X5864825Y-61565145D01*
X5861603Y-61562843D01*
X5821958Y-61533560D01*
X5821957Y-61533559D01*
X5814384Y-61527966D01*
X5807568Y-61525573D01*
X5801631Y-61521469D01*
X5801237Y-61521344D01*
X5753195Y-61474523D01*
X5737212Y-61405349D01*
X5763436Y-61335493D01*
X5854139Y-61218558D01*
X5858048Y-61213519D01*
X5860861Y-61207801D01*
X5860866Y-61207794D01*
X5863978Y-61201469D01*
X5912001Y-61149179D01*
X5977032Y-61131100D01*
X6906407Y-61131100D01*
X6974528Y-61151102D01*
X6995502Y-61168005D01*
X7978595Y-62151098D01*
X8012621Y-62213410D01*
X8015500Y-62240193D01*
X8015500Y-68990257D01*
X7995498Y-69058378D01*
X7974975Y-69081198D01*
X7975654Y-69081891D01*
X7971252Y-69086202D01*
X7966447Y-69090065D01*
X7834024Y-69247880D01*
X7831056Y-69253278D01*
X7831053Y-69253283D01*
X7824315Y-69265540D01*
X7734776Y-69428412D01*
X7672484Y-69624782D01*
X7671798Y-69630899D01*
X7671797Y-69630903D01*
X7666345Y-69679509D01*
X7649520Y-69829512D01*
X7666759Y-70034803D01*
X7668458Y-70040728D01*
X7680855Y-70083960D01*
X7723544Y-70232836D01*
X7726359Y-70238313D01*
X7726360Y-70238316D01*
X7747247Y-70278957D01*
X7817712Y-70416068D01*
X7945677Y-70577520D01*
X7950371Y-70581515D01*
X7950375Y-70581519D01*
X8003059Y-70626356D01*
X8041973Y-70685738D01*
X8042604Y-70756732D01*
X8010492Y-70811405D01*
X6648644Y-72173253D01*
X6586332Y-72207279D01*
X6522293Y-72204523D01*
X6483752Y-72192593D01*
X6338197Y-72177294D01*
X6294747Y-72172727D01*
X6294746Y-72172727D01*
X6288619Y-72172083D01*
X6165983Y-72183244D01*
X6099359Y-72189307D01*
X6099358Y-72189307D01*
X6093218Y-72189866D01*
X6087304Y-72191607D01*
X6087302Y-72191607D01*
X6043418Y-72204523D01*
X5904993Y-72245264D01*
X5899528Y-72248121D01*
X5736572Y-72333312D01*
X5736568Y-72333315D01*
X5731112Y-72336167D01*
X5726312Y-72340027D01*
X5726311Y-72340027D01*
X5716361Y-72348027D01*
X5578200Y-72459111D01*
X5452080Y-72609416D01*
X5449116Y-72614808D01*
X5449113Y-72614812D01*
X5370413Y-72757967D01*
X5357556Y-72781354D01*
X5355695Y-72787221D01*
X5355694Y-72787223D01*
X5327892Y-72874866D01*
X5298228Y-72968378D01*
X5276357Y-73163363D01*
X5292775Y-73358883D01*
X5346858Y-73547491D01*
X5349676Y-73552974D01*
X5433723Y-73716513D01*
X5433726Y-73716517D01*
X5436544Y-73722001D01*
X5558418Y-73875769D01*
X5707838Y-74002935D01*
X5713216Y-74005941D01*
X5713218Y-74005942D01*
X5749532Y-74026237D01*
X5879113Y-74098657D01*
X6065718Y-74159289D01*
X6260546Y-74182521D01*
X6266681Y-74182049D01*
X6266683Y-74182049D01*
X6450034Y-74167941D01*
X6450038Y-74167940D01*
X6456176Y-74167468D01*
X6645156Y-74114703D01*
X6820289Y-74026237D01*
X6850115Y-74002935D01*
X6970053Y-73909229D01*
X6974903Y-73905440D01*
X7004684Y-73870939D01*
X7099085Y-73761573D01*
X7099085Y-73761572D01*
X7103109Y-73756911D01*
X7200025Y-73586309D01*
X7261958Y-73400132D01*
X7286549Y-73205471D01*
X7286941Y-73177400D01*
X7267794Y-72982128D01*
X7253918Y-72936168D01*
X7253378Y-72865174D01*
X7285446Y-72810657D01*
X8999350Y-71096753D01*
X9010439Y-71086899D01*
X9029709Y-71071707D01*
X9029711Y-71071705D01*
X9037110Y-71065872D01*
X9070462Y-71017615D01*
X9072757Y-71014403D01*
X9102040Y-70974758D01*
X9102041Y-70974757D01*
X9107634Y-70967184D01*
X9110027Y-70960368D01*
X9114131Y-70954431D01*
X9131826Y-70898481D01*
X9133071Y-70894750D01*
X9152520Y-70839368D01*
X9154802Y-70840169D01*
X9181068Y-70788979D01*
X9215612Y-70763289D01*
X9270610Y-70735508D01*
X9432951Y-70608674D01*
X9450651Y-70588169D01*
X9563540Y-70457384D01*
X9563540Y-70457383D01*
X9567564Y-70452722D01*
X9588387Y-70416068D01*
X9666276Y-70278957D01*
X9669323Y-70273594D01*
X9734351Y-70078113D01*
X9760171Y-69873724D01*
X9760583Y-69844250D01*
X9740480Y-69639220D01*
X9680935Y-69441999D01*
X9584218Y-69260099D01*
X9510859Y-69170152D01*
X9457906Y-69105225D01*
X9457903Y-69105222D01*
X9454011Y-69100450D01*
X9431577Y-69081891D01*
X9300025Y-68973061D01*
X9300021Y-68973059D01*
X9295275Y-68969132D01*
X9114055Y-68871147D01*
X9022503Y-68842807D01*
X9005240Y-68837463D01*
X8946081Y-68798211D01*
X8917534Y-68733207D01*
X8916500Y-68717098D01*
X8916500Y-68457043D01*
X8936502Y-68388922D01*
X8990158Y-68342429D01*
X9060432Y-68332325D01*
X9125012Y-68361819D01*
X9131595Y-68367948D01*
X10200685Y-69437038D01*
X10234711Y-69499350D01*
X10231692Y-69564231D01*
X10212484Y-69624782D01*
X10189520Y-69829512D01*
X10206759Y-70034803D01*
X10208458Y-70040728D01*
X10220855Y-70083960D01*
X10263544Y-70232836D01*
X10266359Y-70238313D01*
X10266360Y-70238316D01*
X10287247Y-70278957D01*
X10357712Y-70416068D01*
X10485677Y-70577520D01*
X10490370Y-70581514D01*
X10490371Y-70581515D01*
X10630067Y-70700405D01*
X10642564Y-70711041D01*
X10647942Y-70714047D01*
X10647944Y-70714048D01*
X10724318Y-70756732D01*
X10822398Y-70811547D01*
X10903409Y-70837869D01*
X11012471Y-70873306D01*
X11012475Y-70873307D01*
X11018329Y-70875209D01*
X11222894Y-70899601D01*
X11229029Y-70899129D01*
X11229031Y-70899129D01*
X11285939Y-70894750D01*
X11428300Y-70883796D01*
X11434230Y-70882140D01*
X11434232Y-70882140D01*
X11528697Y-70855765D01*
X11599688Y-70856712D01*
X11651676Y-70888029D01*
X12304997Y-71541350D01*
X12314851Y-71552439D01*
X12330043Y-71571709D01*
X12335878Y-71579110D01*
X12343625Y-71584465D01*
X12343627Y-71584466D01*
X12384125Y-71612455D01*
X12387337Y-71614750D01*
X12434566Y-71649634D01*
X12441382Y-71652027D01*
X12447319Y-71656131D01*
X12456299Y-71658971D01*
X12456301Y-71658972D01*
X12476467Y-71665350D01*
X12503269Y-71673826D01*
X12507000Y-71675071D01*
X12553487Y-71691396D01*
X12553489Y-71691396D01*
X12562381Y-71694519D01*
X12569569Y-71694801D01*
X12569628Y-71694812D01*
X12576480Y-71696980D01*
X12583087Y-71697500D01*
X12635766Y-71697500D01*
X12640712Y-71697597D01*
X12697744Y-71699838D01*
X12704850Y-71697954D01*
X12713097Y-71697500D01*
X17930007Y-71697500D01*
X17998128Y-71717502D01*
X18019102Y-71734405D01*
X18341795Y-72057098D01*
X18375821Y-72119410D01*
X18378700Y-72146193D01*
X18378700Y-75255586D01*
X18358698Y-75323707D01*
X18311077Y-75367247D01*
X18278712Y-75384167D01*
X18273911Y-75388027D01*
X18273908Y-75388029D01*
X18243429Y-75412535D01*
X18125800Y-75507111D01*
X17999680Y-75657416D01*
X17996716Y-75662808D01*
X17996713Y-75662812D01*
X17986082Y-75682150D01*
X17905156Y-75829354D01*
X17903295Y-75835221D01*
X17903294Y-75835223D01*
X17888532Y-75881758D01*
X17845828Y-76016378D01*
X17823957Y-76211363D01*
X17840375Y-76406883D01*
X17894458Y-76595491D01*
X17897276Y-76600974D01*
X17981323Y-76764513D01*
X17981326Y-76764517D01*
X17984144Y-76770001D01*
X18106018Y-76923769D01*
X18255438Y-77050935D01*
X18260816Y-77053941D01*
X18260818Y-77053942D01*
X18297132Y-77074237D01*
X18426713Y-77146657D01*
X18613318Y-77207289D01*
X18808146Y-77230521D01*
X18814281Y-77230049D01*
X18814283Y-77230049D01*
X18997634Y-77215941D01*
X18997638Y-77215940D01*
X19003776Y-77215468D01*
X19192756Y-77162703D01*
X19367889Y-77074237D01*
X19397715Y-77050935D01*
X19517653Y-76957229D01*
X19522503Y-76953440D01*
X19548449Y-76923382D01*
X19646685Y-76809573D01*
X19646685Y-76809572D01*
X19650709Y-76804911D01*
X19747625Y-76634309D01*
X19753443Y-76616821D01*
X19793923Y-76558498D01*
X19859510Y-76531318D01*
X19929381Y-76543912D01*
X19981351Y-76592282D01*
X19999000Y-76656594D01*
X19999000Y-77597000D01*
X19978998Y-77665121D01*
X19925342Y-77711614D01*
X19873000Y-77723000D01*
X127000Y-77723000D01*
X58879Y-77702998D01*
X12386Y-77649342D01*
X1000Y-77597000D01*
X1000Y-10109200D01*
X1318532Y-10109200D01*
X1338365Y-10335892D01*
X1339789Y-10341205D01*
X1339789Y-10341207D01*
X1393445Y-10541453D01*
X1397261Y-10555696D01*
X1399583Y-10560676D01*
X1399584Y-10560678D01*
X1474625Y-10721602D01*
X1493432Y-10761934D01*
X1623953Y-10948339D01*
X1784861Y-11109247D01*
X1971266Y-11239768D01*
X1976244Y-11242089D01*
X1976247Y-11242091D01*
X2172522Y-11333616D01*
X2177504Y-11335939D01*
X2182812Y-11337361D01*
X2182814Y-11337362D01*
X2391993Y-11393411D01*
X2391995Y-11393411D01*
X2397308Y-11394835D01*
X2624000Y-11414668D01*
X2850692Y-11394835D01*
X2856005Y-11393411D01*
X2856007Y-11393411D01*
X3065186Y-11337362D01*
X3065188Y-11337361D01*
X3070496Y-11335939D01*
X3075478Y-11333616D01*
X3271753Y-11242091D01*
X3271756Y-11242089D01*
X3276734Y-11239768D01*
X3463139Y-11109247D01*
X3624047Y-10948339D01*
X3754568Y-10761934D01*
X3773376Y-10721602D01*
X3848416Y-10560678D01*
X3848417Y-10560676D01*
X3850739Y-10555696D01*
X3854556Y-10541453D01*
X3908211Y-10341207D01*
X3908211Y-10341205D01*
X3909635Y-10335892D01*
X3929468Y-10109200D01*
X3909635Y-9882508D01*
X3850739Y-9662704D01*
X3769806Y-9489144D01*
X3759144Y-9418952D01*
X3788124Y-9354139D01*
X3794905Y-9346798D01*
X5208022Y-7933681D01*
X5275239Y-7898690D01*
X5279047Y-7898018D01*
X5285188Y-7897546D01*
X5483613Y-7842145D01*
X5489102Y-7839372D01*
X5489108Y-7839370D01*
X5662004Y-7752033D01*
X5667498Y-7749258D01*
X5829839Y-7622424D01*
X5888674Y-7554263D01*
X5960428Y-7471134D01*
X5960428Y-7471133D01*
X5964452Y-7466472D01*
X5985275Y-7429818D01*
X6063164Y-7292707D01*
X6066211Y-7287344D01*
X6131239Y-7091863D01*
X6157059Y-6887474D01*
X6157471Y-6858000D01*
X6137368Y-6652970D01*
X6077823Y-6455749D01*
X5981106Y-6273849D01*
X5907747Y-6183902D01*
X5854794Y-6118975D01*
X5854791Y-6118972D01*
X5850899Y-6114200D01*
X5833674Y-6099950D01*
X5696913Y-5986811D01*
X5696909Y-5986809D01*
X5692163Y-5982882D01*
X5686738Y-5979949D01*
X5686734Y-5979946D01*
X5618459Y-5943029D01*
X5568050Y-5893035D01*
X5552388Y-5832194D01*
X5552388Y-5344920D01*
X5572390Y-5276799D01*
X5621576Y-5232455D01*
X5667498Y-5209258D01*
X5829839Y-5082424D01*
X5964452Y-4926472D01*
X5985275Y-4889818D01*
X6063164Y-4752707D01*
X6066211Y-4747344D01*
X6131239Y-4551863D01*
X6157059Y-4347474D01*
X6157471Y-4318000D01*
X6156026Y-4303262D01*
X14206408Y-4303262D01*
X14223647Y-4508553D01*
X14280432Y-4706586D01*
X14283247Y-4712063D01*
X14283248Y-4712066D01*
X14304135Y-4752707D01*
X14374600Y-4889818D01*
X14502565Y-5051270D01*
X14659452Y-5184791D01*
X14746859Y-5233641D01*
X14796564Y-5284333D01*
X14811388Y-5343628D01*
X14811388Y-5681500D01*
X14791386Y-5749621D01*
X14737730Y-5796114D01*
X14685388Y-5807500D01*
X14392140Y-5807500D01*
X14386072Y-5808707D01*
X14345827Y-5816712D01*
X14345826Y-5816712D01*
X14333657Y-5819133D01*
X14267336Y-5863448D01*
X14223021Y-5929769D01*
X14211388Y-5988252D01*
X14211388Y-7727748D01*
X14212595Y-7733816D01*
X14216219Y-7752033D01*
X14223021Y-7786231D01*
X14267336Y-7852552D01*
X14333657Y-7896867D01*
X14345826Y-7899288D01*
X14345827Y-7899288D01*
X14386072Y-7907293D01*
X14392140Y-7908500D01*
X14846912Y-7908500D01*
X14915033Y-7928502D01*
X14939437Y-7948972D01*
X14977034Y-7989644D01*
X14983393Y-7993337D01*
X14989551Y-7998854D01*
X16374195Y-9383498D01*
X16408221Y-9445810D01*
X16411100Y-9472593D01*
X16411100Y-11203548D01*
X16412307Y-11209616D01*
X16418767Y-11242091D01*
X16422733Y-11262031D01*
X16467048Y-11328352D01*
X16533369Y-11372667D01*
X16545538Y-11375088D01*
X16545539Y-11375088D01*
X16585784Y-11383093D01*
X16591852Y-11384300D01*
X18831348Y-11384300D01*
X18837416Y-11383093D01*
X18877661Y-11375088D01*
X18877662Y-11375088D01*
X18889831Y-11372667D01*
X18956152Y-11328352D01*
X19000467Y-11262031D01*
X19004434Y-11242091D01*
X19010893Y-11209616D01*
X19012100Y-11203548D01*
X19012100Y-8964052D01*
X19000467Y-8905569D01*
X18956152Y-8839248D01*
X18889831Y-8794933D01*
X18877662Y-8792512D01*
X18877661Y-8792512D01*
X18837416Y-8784507D01*
X18831348Y-8783300D01*
X17100393Y-8783300D01*
X17032272Y-8763298D01*
X17011298Y-8746395D01*
X16273890Y-8008987D01*
X16239864Y-7946675D01*
X16244929Y-7875860D01*
X16258220Y-7849890D01*
X16293861Y-7796550D01*
X16293863Y-7796546D01*
X16300755Y-7786231D01*
X16307558Y-7752033D01*
X16311181Y-7733816D01*
X16312388Y-7727748D01*
X16312388Y-5988252D01*
X16300755Y-5929769D01*
X16256440Y-5863448D01*
X16190119Y-5819133D01*
X16177950Y-5816712D01*
X16177949Y-5816712D01*
X16137704Y-5808707D01*
X16131636Y-5807500D01*
X15838388Y-5807500D01*
X15770267Y-5787498D01*
X15723774Y-5733842D01*
X15712388Y-5681500D01*
X15712388Y-5344920D01*
X15732390Y-5276799D01*
X15781576Y-5232455D01*
X15827498Y-5209258D01*
X15989839Y-5082424D01*
X16124452Y-4926472D01*
X16145275Y-4889818D01*
X16223164Y-4752707D01*
X16226211Y-4747344D01*
X16291239Y-4551863D01*
X16317059Y-4347474D01*
X16317471Y-4318000D01*
X16297368Y-4112970D01*
X16237823Y-3915749D01*
X16141106Y-3733849D01*
X16067747Y-3643902D01*
X16014794Y-3578975D01*
X16014791Y-3578972D01*
X16010899Y-3574200D01*
X15993674Y-3559950D01*
X15856913Y-3446811D01*
X15856909Y-3446809D01*
X15852163Y-3442882D01*
X15670943Y-3344897D01*
X15474142Y-3283977D01*
X15468017Y-3283333D01*
X15468016Y-3283333D01*
X15275386Y-3263087D01*
X15275384Y-3263087D01*
X15269257Y-3262443D01*
X15182417Y-3270346D01*
X15070230Y-3280555D01*
X15070227Y-3280556D01*
X15064091Y-3281114D01*
X14866460Y-3339280D01*
X14683890Y-3434726D01*
X14679089Y-3438586D01*
X14679086Y-3438588D01*
X14668859Y-3446811D01*
X14523335Y-3563815D01*
X14390912Y-3721630D01*
X14387944Y-3727028D01*
X14387941Y-3727033D01*
X14381203Y-3739290D01*
X14291664Y-3902162D01*
X14229372Y-4098532D01*
X14228686Y-4104649D01*
X14228685Y-4104653D01*
X14207095Y-4297137D01*
X14206408Y-4303262D01*
X6156026Y-4303262D01*
X6137368Y-4112970D01*
X6077823Y-3915749D01*
X5981106Y-3733849D01*
X5907747Y-3643902D01*
X5854794Y-3578975D01*
X5854791Y-3578972D01*
X5850899Y-3574200D01*
X5833674Y-3559950D01*
X5696913Y-3446811D01*
X5696909Y-3446809D01*
X5692163Y-3442882D01*
X5510943Y-3344897D01*
X5314142Y-3283977D01*
X5308017Y-3283333D01*
X5308016Y-3283333D01*
X5115386Y-3263087D01*
X5115384Y-3263087D01*
X5109257Y-3262443D01*
X5022417Y-3270346D01*
X4910230Y-3280555D01*
X4910227Y-3280556D01*
X4904091Y-3281114D01*
X4706460Y-3339280D01*
X4523890Y-3434726D01*
X4519089Y-3438586D01*
X4519086Y-3438588D01*
X4508859Y-3446811D01*
X4363335Y-3563815D01*
X4230912Y-3721630D01*
X4227944Y-3727028D01*
X4227941Y-3727033D01*
X4221203Y-3739290D01*
X4131664Y-3902162D01*
X4069372Y-4098532D01*
X4068686Y-4104649D01*
X4068685Y-4104653D01*
X4047095Y-4297137D01*
X4046408Y-4303262D01*
X4063647Y-4508553D01*
X4120432Y-4706586D01*
X4123247Y-4712063D01*
X4123248Y-4712066D01*
X4144135Y-4752707D01*
X4214600Y-4889818D01*
X4342565Y-5051270D01*
X4499452Y-5184791D01*
X4586859Y-5233641D01*
X4636564Y-5284333D01*
X4651388Y-5343628D01*
X4651388Y-5831763D01*
X4631386Y-5899884D01*
X4583764Y-5943424D01*
X4538054Y-5967321D01*
X4523890Y-5974726D01*
X4519089Y-5978586D01*
X4519086Y-5978588D01*
X4368142Y-6099950D01*
X4363335Y-6103815D01*
X4230912Y-6261630D01*
X4227944Y-6267028D01*
X4227941Y-6267033D01*
X4221203Y-6279290D01*
X4131664Y-6442162D01*
X4069372Y-6638532D01*
X4068686Y-6644649D01*
X4068685Y-6644653D01*
X4047095Y-6837137D01*
X4046408Y-6843262D01*
X4063647Y-7048553D01*
X4120432Y-7246586D01*
X4123247Y-7252063D01*
X4123248Y-7252066D01*
X4144135Y-7292707D01*
X4214600Y-7429818D01*
X4218423Y-7434642D01*
X4218426Y-7434646D01*
X4243503Y-7466284D01*
X4270141Y-7532094D01*
X4256971Y-7601858D01*
X4233853Y-7633644D01*
X3054536Y-8812961D01*
X2992224Y-8846987D01*
X2932831Y-8845573D01*
X2856010Y-8824990D01*
X2856011Y-8824990D01*
X2850692Y-8823565D01*
X2624000Y-8803732D01*
X2397308Y-8823565D01*
X2391995Y-8824989D01*
X2391993Y-8824989D01*
X2182814Y-8881038D01*
X2182812Y-8881039D01*
X2177504Y-8882461D01*
X2172524Y-8884783D01*
X2172522Y-8884784D01*
X1976247Y-8976309D01*
X1976244Y-8976311D01*
X1971266Y-8978632D01*
X1784861Y-9109153D01*
X1623953Y-9270061D01*
X1493432Y-9456466D01*
X1397261Y-9662704D01*
X1338365Y-9882508D01*
X1318532Y-10109200D01*
X1000Y-10109200D01*
X1000Y-127000D01*
X21002Y-58879D01*
X74658Y-12386D01*
X127000Y-1000D01*
X19873000Y-1000D01*
X19941121Y-21002D01*
G37*
%TD.AperFunction*%
%TA.AperFunction,Conductor*%
G36*
X18499932Y-46018137D02*
G01*
X18556768Y-46060684D01*
X18581579Y-46127204D01*
X18581900Y-46136193D01*
X18581900Y-54023070D01*
X18561898Y-54091191D01*
X18508242Y-54137684D01*
X18437968Y-54147788D01*
X18375585Y-54120155D01*
X18278530Y-54039864D01*
X18278527Y-54039862D01*
X18273780Y-54035935D01*
X18101185Y-53942613D01*
X18007469Y-53913603D01*
X17919639Y-53886415D01*
X17919636Y-53886414D01*
X17913752Y-53884593D01*
X17907627Y-53883949D01*
X17907626Y-53883949D01*
X17724747Y-53864727D01*
X17724746Y-53864727D01*
X17718619Y-53864083D01*
X17595983Y-53875244D01*
X17529359Y-53881307D01*
X17529358Y-53881307D01*
X17523218Y-53881866D01*
X17517304Y-53883607D01*
X17517302Y-53883607D01*
X17388334Y-53921565D01*
X17334993Y-53937264D01*
X17329528Y-53940121D01*
X17166572Y-54025312D01*
X17166568Y-54025315D01*
X17161112Y-54028167D01*
X17156312Y-54032027D01*
X17156311Y-54032027D01*
X17146564Y-54039864D01*
X17008200Y-54151111D01*
X16882080Y-54301416D01*
X16879116Y-54306808D01*
X16879113Y-54306812D01*
X16875682Y-54313053D01*
X16787556Y-54473354D01*
X16728228Y-54660378D01*
X16706357Y-54855363D01*
X16722775Y-55050883D01*
X16776858Y-55239491D01*
X16779676Y-55244974D01*
X16863723Y-55408513D01*
X16863726Y-55408517D01*
X16866544Y-55414001D01*
X16988418Y-55567769D01*
X17137838Y-55694935D01*
X17309113Y-55790657D01*
X17495718Y-55851289D01*
X17690546Y-55874521D01*
X17696681Y-55874049D01*
X17696683Y-55874049D01*
X17732280Y-55871310D01*
X17746233Y-55870236D01*
X17815688Y-55884953D01*
X17866160Y-55934884D01*
X17881900Y-55995865D01*
X17881900Y-62423005D01*
X17861898Y-62491126D01*
X17844996Y-62512100D01*
X17623902Y-62733195D01*
X17561590Y-62767220D01*
X17534806Y-62770100D01*
X13593230Y-62770100D01*
X13525109Y-62750098D01*
X13486143Y-62710496D01*
X13421974Y-62607001D01*
X13332231Y-62512100D01*
X13286708Y-62463961D01*
X13286707Y-62463960D01*
X13282319Y-62459320D01*
X13115821Y-62342737D01*
X12929281Y-62262014D01*
X12883253Y-62252398D01*
X12735056Y-62221438D01*
X12735051Y-62221437D01*
X12730320Y-62220449D01*
X12725438Y-62220193D01*
X12725329Y-62220187D01*
X12725313Y-62220187D01*
X12723661Y-62220100D01*
X11774400Y-62220100D01*
X11623782Y-62235399D01*
X11553989Y-62222383D01*
X11502312Y-62173701D01*
X11485158Y-62104807D01*
X11507974Y-62037577D01*
X11521954Y-62020949D01*
X11824898Y-61718005D01*
X11887210Y-61683979D01*
X11913993Y-61681100D01*
X12676000Y-61681100D01*
X12723993Y-61676225D01*
X12821068Y-61666365D01*
X12821070Y-61666365D01*
X12827416Y-61665720D01*
X13021372Y-61604938D01*
X13033005Y-61598490D01*
X13137424Y-61540609D01*
X13199144Y-61506397D01*
X13353471Y-61374123D01*
X13360878Y-61364575D01*
X13474139Y-61218558D01*
X13478048Y-61213519D01*
X13567787Y-61031145D01*
X13593952Y-60930697D01*
X13617412Y-60840634D01*
X13617412Y-60840631D01*
X13619022Y-60834452D01*
X13629659Y-60631474D01*
X13599265Y-60430503D01*
X13529081Y-60239748D01*
X13519344Y-60224044D01*
X13425337Y-60072424D01*
X13425334Y-60072420D01*
X13421974Y-60067001D01*
X13337143Y-59977295D01*
X13286708Y-59923961D01*
X13286707Y-59923960D01*
X13282319Y-59919320D01*
X13115821Y-59802737D01*
X12929281Y-59722014D01*
X12811408Y-59697389D01*
X12775933Y-59689978D01*
X12713343Y-59656468D01*
X12678805Y-59594439D01*
X12675700Y-59566641D01*
X12675700Y-59267100D01*
X12695702Y-59198979D01*
X12749358Y-59152486D01*
X12801700Y-59141100D01*
X13444948Y-59141100D01*
X13459211Y-59138263D01*
X13491261Y-59131888D01*
X13491262Y-59131888D01*
X13503431Y-59129467D01*
X13569752Y-59085152D01*
X13614067Y-59018831D01*
X13622756Y-58975151D01*
X13624493Y-58966416D01*
X13625700Y-58960348D01*
X13625700Y-57320852D01*
X13621426Y-57299367D01*
X13616488Y-57274539D01*
X13616488Y-57274538D01*
X13614067Y-57262369D01*
X13569752Y-57196048D01*
X13503431Y-57151733D01*
X13491262Y-57149312D01*
X13491261Y-57149312D01*
X13451016Y-57141307D01*
X13444948Y-57140100D01*
X12561700Y-57140100D01*
X12493579Y-57120098D01*
X12447086Y-57066442D01*
X12435700Y-57014100D01*
X12435700Y-49490393D01*
X12455702Y-49422272D01*
X12472605Y-49401298D01*
X12924573Y-48949330D01*
X12986885Y-48915304D01*
X13057700Y-48920369D01*
X13114536Y-48962916D01*
X13139347Y-49029436D01*
X13135600Y-49070183D01*
X13127378Y-49101748D01*
X13116741Y-49304726D01*
X13147135Y-49505697D01*
X13217319Y-49696452D01*
X13220679Y-49701872D01*
X13220680Y-49701873D01*
X13321063Y-49863776D01*
X13321066Y-49863780D01*
X13324426Y-49869199D01*
X13464081Y-50016880D01*
X13630579Y-50133463D01*
X13817119Y-50214186D01*
X13863147Y-50223802D01*
X14011344Y-50254762D01*
X14011349Y-50254763D01*
X14016080Y-50255751D01*
X14020962Y-50256007D01*
X14021071Y-50256013D01*
X14021087Y-50256013D01*
X14022739Y-50256100D01*
X14972000Y-50256100D01*
X15019993Y-50251225D01*
X15117068Y-50241365D01*
X15117070Y-50241365D01*
X15123416Y-50240720D01*
X15317372Y-50179938D01*
X15495144Y-50081397D01*
X15649471Y-49949123D01*
X15774048Y-49788519D01*
X15863787Y-49606145D01*
X15889952Y-49505697D01*
X15913412Y-49415634D01*
X15913412Y-49415631D01*
X15915022Y-49409452D01*
X15923663Y-49244563D01*
X15925325Y-49212856D01*
X15925325Y-49212852D01*
X15925659Y-49206474D01*
X15895265Y-49005503D01*
X15825081Y-48814748D01*
X15791238Y-48760164D01*
X15772342Y-48691728D01*
X15793444Y-48623940D01*
X15809230Y-48604673D01*
X18366805Y-46047098D01*
X18429117Y-46013072D01*
X18499932Y-46018137D01*
G37*
%TD.AperFunction*%
%TD*%
M02*
