M48
; DRILL file {KiCad (6.0.6)} date Mon Aug 15 09:47:45 2022
; FORMAT={-:-/ absolute / inch / decimal}
; #@! TF.CreationDate,2022-08-15T09:47:45-07:00
; #@! TF.GenerationSoftware,Kicad,Pcbnew,(6.0.6)
; #@! TF.FileFunction,Plated,1,2,PTH
FMAT,2
INCH
; #@! TA.AperFunction,Plated,PTH,ViaDrill
T1C0.0315
; #@! TA.AperFunction,Plated,PTH,ComponentDrill
T2C0.0315
; #@! TA.AperFunction,Plated,PTH,ComponentDrill
T3C0.0394
; #@! TA.AperFunction,Plated,PTH,ComponentDrill
T4C0.0433
%
G90
G05
T1
X0.1313Y-2.203
X0.6293Y-2.203
T2
X0.0553Y-3.0
X0.0573Y-1.729
X0.0573Y-2.029
X0.0601Y-2.289
X0.0601Y-2.589
X0.1033Y-0.797
X0.1033Y-1.097
X0.1473Y-1.199
X0.1473Y-1.499
X0.1573Y-1.5838
X0.1573Y-1.6822
X0.1813Y-2.289
X0.1813Y-2.389
X0.1813Y-2.489
X0.1813Y-2.589
X0.2333Y-0.45
X0.2473Y-2.881
X0.2717Y-1.3392
X0.2717Y-1.4392
X0.2717Y-1.5392
X0.2717Y-1.6392
X0.2717Y-1.7392
X0.2717Y-1.8392
X0.2717Y-1.9392
X0.2833Y-1.215
X0.3317Y-0.45
X0.3553Y-3.0
X0.4413Y-3.001
X0.4573Y-0.45
X0.4813Y-2.289
X0.4813Y-2.389
X0.4813Y-2.489
X0.4813Y-2.589
X0.5473Y-2.881
X0.5557Y-0.45
X0.5717Y-1.3392
X0.5717Y-1.4392
X0.5717Y-1.5392
X0.5717Y-1.6392
X0.5717Y-1.7392
X0.5717Y-1.8392
X0.5717Y-1.9392
X0.5833Y-1.215
X0.6933Y-1.665
X0.6933Y-1.965
X0.6973Y-2.0618
X0.6973Y-2.1602
X0.7013Y-0.795
X0.7013Y-1.095
X0.7193Y-1.215
X0.7193Y-1.515
X0.7413Y-3.001
T3
X0.1427Y-2.7498
X0.2009Y-0.17
X0.2009Y-0.27
X0.2337Y-2.113
X0.2427Y-2.7498
X0.2441Y-1.084
X0.248Y-0.675
X0.248Y-0.895
X0.3009Y-0.17
X0.3009Y-0.27
X0.3427Y-2.7498
X0.3441Y-1.084
X0.4009Y-0.17
X0.4009Y-0.27
X0.4427Y-2.7498
X0.4441Y-1.084
X0.5009Y-0.17
X0.5009Y-0.27
X0.5289Y-2.113
X0.5427Y-2.7498
X0.5433Y-0.675
X0.5433Y-0.895
X0.5441Y-1.084
X0.6009Y-0.17
X0.6009Y-0.27
X0.6427Y-2.7498
X0.6537Y-2.305
X0.6537Y-2.6002
T4
X0.1033Y-0.398
X0.1033Y-0.698
X0.6973Y-0.397
X0.6973Y-0.697
T0
M30
