%TF.GenerationSoftware,KiCad,Pcbnew,(6.0.6)*%
%TF.CreationDate,2022-08-04T10:52:58-07:00*%
%TF.ProjectId,Mult,4d756c74-2e6b-4696-9361-645f70636258,rev?*%
%TF.SameCoordinates,PX956a0c0PY340d320*%
%TF.FileFunction,Copper,L1,Top*%
%TF.FilePolarity,Positive*%
%FSLAX46Y46*%
G04 Gerber Fmt 4.6, Leading zero omitted, Abs format (unit mm)*
G04 Created by KiCad (PCBNEW (6.0.6)) date 2022-08-04 10:52:58*
%MOMM*%
%LPD*%
G01*
G04 APERTURE LIST*
%TA.AperFunction,ComponentPad*%
%ADD10C,2.130000*%
%TD*%
%TA.AperFunction,Conductor*%
%ADD11C,0.500000*%
%TD*%
G04 APERTURE END LIST*
D10*
%TO.P,J2,S*%
%TO.N,GND*%
X4826000Y-34668000D03*
%TO.P,J2,T*%
%TO.N,Net-(J1-PadT)*%
X4826000Y-46068000D03*
%TO.P,J2,TN*%
%TO.N,unconnected-(J2-PadTN)*%
X4826000Y-37768000D03*
%TD*%
%TO.P,J3,S*%
%TO.N,GND*%
X4826000Y-52448000D03*
%TO.P,J3,T*%
%TO.N,Net-(J1-PadT)*%
X4826000Y-63848000D03*
%TO.P,J3,TN*%
%TO.N,unconnected-(J3-PadTN)*%
X4826000Y-55548000D03*
%TD*%
%TO.P,J4,S*%
%TO.N,GND*%
X4826000Y-70228000D03*
%TO.P,J4,T*%
%TO.N,Net-(J1-PadT)*%
X4826000Y-81628000D03*
%TO.P,J4,TN*%
%TO.N,unconnected-(J4-PadTN)*%
X4826000Y-73328000D03*
%TD*%
%TO.P,J5,S*%
%TO.N,GND*%
X4826000Y-88008000D03*
%TO.P,J5,T*%
%TO.N,Net-(J1-PadT)*%
X4826000Y-99408000D03*
%TO.P,J5,TN*%
%TO.N,unconnected-(J5-PadTN)*%
X4826000Y-91108000D03*
%TD*%
%TO.P,J1,S*%
%TO.N,GND*%
X4826000Y-13338000D03*
%TO.P,J1,T*%
%TO.N,Net-(J1-PadT)*%
X4826000Y-1938000D03*
%TO.P,J1,TN*%
%TO.N,unconnected-(J1-PadTN)*%
X4826000Y-10238000D03*
%TD*%
D11*
%TO.N,Net-(J1-PadT)*%
X7336000Y-84138000D02*
X4826000Y-81628000D01*
X7056682Y-66078682D02*
X4826000Y-63848000D01*
X4826000Y-46198000D02*
X7366000Y-43658000D01*
X7056682Y-48298682D02*
X7056682Y-61617318D01*
X7366000Y-43658000D02*
X7366000Y-4348000D01*
X7366000Y-4348000D02*
X4826000Y-1808000D01*
X4826000Y-81628000D02*
X7056682Y-79397318D01*
X7056682Y-79397318D02*
X7056682Y-66078682D01*
X7056682Y-61617318D02*
X4826000Y-63848000D01*
X4826000Y-46068000D02*
X7056682Y-48298682D01*
X7336000Y-84138000D02*
X7336000Y-96898000D01*
X7336000Y-96898000D02*
X4826000Y-99408000D01*
%TD*%
%TA.AperFunction,Conductor*%
%TO.N,GND*%
G36*
X3803485Y-528502D02*
G01*
X3849978Y-582158D01*
X3860082Y-652432D01*
X3830588Y-717012D01*
X3817195Y-730311D01*
X3709927Y-821927D01*
X3549075Y-1010260D01*
X3419666Y-1221437D01*
X3324885Y-1450258D01*
X3323730Y-1455070D01*
X3268221Y-1686276D01*
X3268220Y-1686282D01*
X3267066Y-1691089D01*
X3247634Y-1938000D01*
X3267066Y-2184911D01*
X3268220Y-2189718D01*
X3268221Y-2189724D01*
X3300214Y-2322980D01*
X3324885Y-2425742D01*
X3419666Y-2654563D01*
X3549075Y-2865740D01*
X3709927Y-3054073D01*
X3898260Y-3214925D01*
X4109437Y-3344334D01*
X4114007Y-3346227D01*
X4114011Y-3346229D01*
X4333685Y-3437221D01*
X4338258Y-3439115D01*
X4423170Y-3459501D01*
X4574276Y-3495779D01*
X4574282Y-3495780D01*
X4579089Y-3496934D01*
X4826000Y-3516366D01*
X5072911Y-3496934D01*
X5077718Y-3495780D01*
X5077724Y-3495779D01*
X5302136Y-3441902D01*
X5373044Y-3445449D01*
X5420645Y-3475326D01*
X6570595Y-4625276D01*
X6604621Y-4687588D01*
X6607500Y-4714371D01*
X6607500Y-9853574D01*
X6587498Y-9921695D01*
X6533842Y-9968188D01*
X6463568Y-9978292D01*
X6398988Y-9948798D01*
X6358981Y-9882988D01*
X6328270Y-9755070D01*
X6327115Y-9750258D01*
X6232334Y-9521437D01*
X6102925Y-9310260D01*
X5942073Y-9121927D01*
X5753740Y-8961075D01*
X5542563Y-8831666D01*
X5537993Y-8829773D01*
X5537989Y-8829771D01*
X5318315Y-8738779D01*
X5318313Y-8738778D01*
X5313742Y-8736885D01*
X5228830Y-8716499D01*
X5077724Y-8680221D01*
X5077718Y-8680220D01*
X5072911Y-8679066D01*
X4826000Y-8659634D01*
X4579089Y-8679066D01*
X4574282Y-8680220D01*
X4574276Y-8680221D01*
X4423170Y-8716499D01*
X4338258Y-8736885D01*
X4333687Y-8738778D01*
X4333685Y-8738779D01*
X4114011Y-8829771D01*
X4114007Y-8829773D01*
X4109437Y-8831666D01*
X3898260Y-8961075D01*
X3709927Y-9121927D01*
X3549075Y-9310260D01*
X3419666Y-9521437D01*
X3324885Y-9750258D01*
X3323730Y-9755070D01*
X3268221Y-9986276D01*
X3268220Y-9986282D01*
X3267066Y-9991089D01*
X3247634Y-10238000D01*
X3267066Y-10484911D01*
X3268220Y-10489718D01*
X3268221Y-10489724D01*
X3278237Y-10531442D01*
X3324885Y-10725742D01*
X3419666Y-10954563D01*
X3549075Y-11165740D01*
X3709927Y-11354073D01*
X3898260Y-11514925D01*
X4109437Y-11644334D01*
X4114007Y-11646227D01*
X4114011Y-11646229D01*
X4175895Y-11671862D01*
X4231176Y-11716411D01*
X4253597Y-11783774D01*
X4236039Y-11852565D01*
X4184076Y-11900944D01*
X4175895Y-11904680D01*
X4114239Y-11930218D01*
X4105445Y-11934699D01*
X3920285Y-12048165D01*
X3910825Y-12058621D01*
X3914609Y-12067399D01*
X4813188Y-12965978D01*
X4827132Y-12973592D01*
X4828965Y-12973461D01*
X4835580Y-12969210D01*
X5734348Y-12070442D01*
X5741108Y-12058062D01*
X5735381Y-12050412D01*
X5546555Y-11934699D01*
X5537761Y-11930218D01*
X5476105Y-11904680D01*
X5420824Y-11860132D01*
X5398403Y-11792769D01*
X5415961Y-11723977D01*
X5467923Y-11675599D01*
X5476105Y-11671862D01*
X5537989Y-11646229D01*
X5537993Y-11646227D01*
X5542563Y-11644334D01*
X5753740Y-11514925D01*
X5942073Y-11354073D01*
X6102925Y-11165740D01*
X6232334Y-10954563D01*
X6327115Y-10725742D01*
X6358981Y-10593012D01*
X6394333Y-10531442D01*
X6457360Y-10498760D01*
X6528051Y-10505341D01*
X6583963Y-10549095D01*
X6607500Y-10622426D01*
X6607500Y-12955718D01*
X6587498Y-13023839D01*
X6533842Y-13070332D01*
X6463568Y-13080436D01*
X6398988Y-13050942D01*
X6358981Y-12985132D01*
X6327793Y-12855225D01*
X6324744Y-12845840D01*
X6233782Y-12626239D01*
X6229301Y-12617445D01*
X6115835Y-12432285D01*
X6105379Y-12422825D01*
X6096601Y-12426609D01*
X5198022Y-13325188D01*
X5190408Y-13339132D01*
X5190539Y-13340965D01*
X5194790Y-13347580D01*
X6093558Y-14246348D01*
X6105938Y-14253108D01*
X6113588Y-14247381D01*
X6229301Y-14058555D01*
X6233782Y-14049761D01*
X6324744Y-13830160D01*
X6327793Y-13820775D01*
X6358981Y-13690868D01*
X6394333Y-13629299D01*
X6457360Y-13596616D01*
X6528051Y-13603196D01*
X6583962Y-13646951D01*
X6607500Y-13720282D01*
X6607500Y-34285718D01*
X6587498Y-34353839D01*
X6533842Y-34400332D01*
X6463568Y-34410436D01*
X6398988Y-34380942D01*
X6358981Y-34315132D01*
X6327793Y-34185225D01*
X6324744Y-34175840D01*
X6233782Y-33956239D01*
X6229301Y-33947445D01*
X6115835Y-33762285D01*
X6105379Y-33752825D01*
X6096601Y-33756609D01*
X5198022Y-34655188D01*
X5190408Y-34669132D01*
X5190539Y-34670965D01*
X5194790Y-34677580D01*
X6093558Y-35576348D01*
X6105938Y-35583108D01*
X6113588Y-35577381D01*
X6229301Y-35388555D01*
X6233782Y-35379761D01*
X6324744Y-35160160D01*
X6327793Y-35150775D01*
X6358981Y-35020868D01*
X6394333Y-34959299D01*
X6457360Y-34926616D01*
X6528051Y-34933196D01*
X6583962Y-34976951D01*
X6607500Y-35050282D01*
X6607500Y-37383574D01*
X6587498Y-37451695D01*
X6533842Y-37498188D01*
X6463568Y-37508292D01*
X6398988Y-37478798D01*
X6358981Y-37412988D01*
X6328270Y-37285070D01*
X6327115Y-37280258D01*
X6232334Y-37051437D01*
X6102925Y-36840260D01*
X5942073Y-36651927D01*
X5753740Y-36491075D01*
X5542563Y-36361666D01*
X5537993Y-36359773D01*
X5537989Y-36359771D01*
X5476105Y-36334138D01*
X5420824Y-36289589D01*
X5398403Y-36222226D01*
X5415961Y-36153435D01*
X5467924Y-36105056D01*
X5476105Y-36101320D01*
X5537761Y-36075782D01*
X5546555Y-36071301D01*
X5731715Y-35957835D01*
X5741175Y-35947379D01*
X5737391Y-35938601D01*
X4838812Y-35040022D01*
X4824868Y-35032408D01*
X4823035Y-35032539D01*
X4816420Y-35036790D01*
X3917652Y-35935558D01*
X3910892Y-35947938D01*
X3916619Y-35955588D01*
X4105445Y-36071301D01*
X4114239Y-36075782D01*
X4175895Y-36101320D01*
X4231176Y-36145868D01*
X4253597Y-36213231D01*
X4236039Y-36282023D01*
X4184077Y-36330401D01*
X4175895Y-36334138D01*
X4114011Y-36359771D01*
X4114007Y-36359773D01*
X4109437Y-36361666D01*
X3898260Y-36491075D01*
X3709927Y-36651927D01*
X3549075Y-36840260D01*
X3419666Y-37051437D01*
X3324885Y-37280258D01*
X3323730Y-37285070D01*
X3268221Y-37516276D01*
X3268220Y-37516282D01*
X3267066Y-37521089D01*
X3247634Y-37768000D01*
X3267066Y-38014911D01*
X3268220Y-38019718D01*
X3268221Y-38019724D01*
X3278237Y-38061442D01*
X3324885Y-38255742D01*
X3419666Y-38484563D01*
X3549075Y-38695740D01*
X3709927Y-38884073D01*
X3898260Y-39044925D01*
X4109437Y-39174334D01*
X4114007Y-39176227D01*
X4114011Y-39176229D01*
X4333685Y-39267221D01*
X4338258Y-39269115D01*
X4423170Y-39289501D01*
X4574276Y-39325779D01*
X4574282Y-39325780D01*
X4579089Y-39326934D01*
X4826000Y-39346366D01*
X5072911Y-39326934D01*
X5077718Y-39325780D01*
X5077724Y-39325779D01*
X5228830Y-39289501D01*
X5313742Y-39269115D01*
X5318315Y-39267221D01*
X5537989Y-39176229D01*
X5537993Y-39176227D01*
X5542563Y-39174334D01*
X5753740Y-39044925D01*
X5942073Y-38884073D01*
X6102925Y-38695740D01*
X6232334Y-38484563D01*
X6327115Y-38255742D01*
X6358981Y-38123012D01*
X6394333Y-38061442D01*
X6457360Y-38028760D01*
X6528051Y-38035341D01*
X6583963Y-38079095D01*
X6607500Y-38152426D01*
X6607500Y-43291629D01*
X6587498Y-43359750D01*
X6570595Y-43380724D01*
X5420645Y-44530674D01*
X5358333Y-44564700D01*
X5302136Y-44564098D01*
X5077724Y-44510221D01*
X5077718Y-44510220D01*
X5072911Y-44509066D01*
X4826000Y-44489634D01*
X4579089Y-44509066D01*
X4574282Y-44510220D01*
X4574276Y-44510221D01*
X4423170Y-44546499D01*
X4338258Y-44566885D01*
X4333687Y-44568778D01*
X4333685Y-44568779D01*
X4114011Y-44659771D01*
X4114007Y-44659773D01*
X4109437Y-44661666D01*
X3898260Y-44791075D01*
X3709927Y-44951927D01*
X3549075Y-45140260D01*
X3419666Y-45351437D01*
X3324885Y-45580258D01*
X3323730Y-45585070D01*
X3268221Y-45816276D01*
X3268220Y-45816282D01*
X3267066Y-45821089D01*
X3247634Y-46068000D01*
X3267066Y-46314911D01*
X3268220Y-46319718D01*
X3268221Y-46319724D01*
X3296930Y-46439304D01*
X3324885Y-46555742D01*
X3419666Y-46784563D01*
X3549075Y-46995740D01*
X3709927Y-47184073D01*
X3898260Y-47344925D01*
X4109437Y-47474334D01*
X4114007Y-47476227D01*
X4114011Y-47476229D01*
X4333685Y-47567221D01*
X4338258Y-47569115D01*
X4423170Y-47589501D01*
X4574276Y-47625779D01*
X4574282Y-47625780D01*
X4579089Y-47626934D01*
X4826000Y-47646366D01*
X5072911Y-47626934D01*
X5077718Y-47625780D01*
X5077724Y-47625779D01*
X5197304Y-47597070D01*
X5268212Y-47600617D01*
X5315813Y-47630494D01*
X6261277Y-48575958D01*
X6295303Y-48638270D01*
X6298182Y-48665053D01*
X6298182Y-51423350D01*
X6278180Y-51491471D01*
X6224524Y-51537964D01*
X6154250Y-51548068D01*
X6127538Y-51535522D01*
X6107014Y-51532121D01*
X6096601Y-51536609D01*
X5198022Y-52435188D01*
X5190408Y-52449132D01*
X5190539Y-52450965D01*
X5194790Y-52457580D01*
X6093558Y-53356348D01*
X6107502Y-53363962D01*
X6114276Y-53363478D01*
X6163194Y-53345233D01*
X6232568Y-53360325D01*
X6282770Y-53410528D01*
X6298182Y-53470912D01*
X6298182Y-54507338D01*
X6278180Y-54575459D01*
X6224524Y-54621952D01*
X6154250Y-54632056D01*
X6089670Y-54602562D01*
X6076371Y-54589169D01*
X5945281Y-54435683D01*
X5942073Y-54431927D01*
X5753740Y-54271075D01*
X5542563Y-54141666D01*
X5537993Y-54139773D01*
X5537989Y-54139771D01*
X5476105Y-54114138D01*
X5420824Y-54069589D01*
X5398403Y-54002226D01*
X5415961Y-53933435D01*
X5467924Y-53885056D01*
X5476105Y-53881320D01*
X5537761Y-53855782D01*
X5546555Y-53851301D01*
X5731715Y-53737835D01*
X5741175Y-53727379D01*
X5737391Y-53718601D01*
X4838812Y-52820022D01*
X4824868Y-52812408D01*
X4823035Y-52812539D01*
X4816420Y-52816790D01*
X3917652Y-53715558D01*
X3910892Y-53727938D01*
X3916619Y-53735588D01*
X4105445Y-53851301D01*
X4114239Y-53855782D01*
X4175895Y-53881320D01*
X4231176Y-53925868D01*
X4253597Y-53993231D01*
X4236039Y-54062023D01*
X4184077Y-54110401D01*
X4175895Y-54114138D01*
X4114011Y-54139771D01*
X4114007Y-54139773D01*
X4109437Y-54141666D01*
X3898260Y-54271075D01*
X3709927Y-54431927D01*
X3549075Y-54620260D01*
X3419666Y-54831437D01*
X3324885Y-55060258D01*
X3323730Y-55065070D01*
X3268221Y-55296276D01*
X3268220Y-55296282D01*
X3267066Y-55301089D01*
X3247634Y-55548000D01*
X3267066Y-55794911D01*
X3268220Y-55799718D01*
X3268221Y-55799724D01*
X3304499Y-55950830D01*
X3324885Y-56035742D01*
X3419666Y-56264563D01*
X3549075Y-56475740D01*
X3709927Y-56664073D01*
X3898260Y-56824925D01*
X4109437Y-56954334D01*
X4114007Y-56956227D01*
X4114011Y-56956229D01*
X4333685Y-57047221D01*
X4338258Y-57049115D01*
X4423170Y-57069501D01*
X4574276Y-57105779D01*
X4574282Y-57105780D01*
X4579089Y-57106934D01*
X4826000Y-57126366D01*
X5072911Y-57106934D01*
X5077718Y-57105780D01*
X5077724Y-57105779D01*
X5228830Y-57069501D01*
X5313742Y-57049115D01*
X5318315Y-57047221D01*
X5537989Y-56956229D01*
X5537993Y-56956227D01*
X5542563Y-56954334D01*
X5753740Y-56824925D01*
X5942073Y-56664073D01*
X6076370Y-56506831D01*
X6135822Y-56468022D01*
X6206816Y-56467516D01*
X6266815Y-56505472D01*
X6296768Y-56569841D01*
X6298182Y-56588662D01*
X6298182Y-61250947D01*
X6278180Y-61319068D01*
X6261277Y-61340042D01*
X5315813Y-62285506D01*
X5253501Y-62319532D01*
X5197304Y-62318930D01*
X5077724Y-62290221D01*
X5077718Y-62290220D01*
X5072911Y-62289066D01*
X4826000Y-62269634D01*
X4579089Y-62289066D01*
X4574282Y-62290220D01*
X4574276Y-62290221D01*
X4452190Y-62319532D01*
X4338258Y-62346885D01*
X4333687Y-62348778D01*
X4333685Y-62348779D01*
X4114011Y-62439771D01*
X4114007Y-62439773D01*
X4109437Y-62441666D01*
X3898260Y-62571075D01*
X3709927Y-62731927D01*
X3549075Y-62920260D01*
X3419666Y-63131437D01*
X3324885Y-63360258D01*
X3323730Y-63365070D01*
X3268221Y-63596276D01*
X3268220Y-63596282D01*
X3267066Y-63601089D01*
X3247634Y-63848000D01*
X3267066Y-64094911D01*
X3268220Y-64099718D01*
X3268221Y-64099724D01*
X3296930Y-64219304D01*
X3324885Y-64335742D01*
X3419666Y-64564563D01*
X3549075Y-64775740D01*
X3709927Y-64964073D01*
X3898260Y-65124925D01*
X4109437Y-65254334D01*
X4114007Y-65256227D01*
X4114011Y-65256229D01*
X4333685Y-65347221D01*
X4338258Y-65349115D01*
X4423170Y-65369501D01*
X4574276Y-65405779D01*
X4574282Y-65405780D01*
X4579089Y-65406934D01*
X4826000Y-65426366D01*
X5072911Y-65406934D01*
X5077718Y-65405780D01*
X5077724Y-65405779D01*
X5197304Y-65377070D01*
X5268212Y-65380617D01*
X5315813Y-65410494D01*
X6261277Y-66355958D01*
X6295303Y-66418270D01*
X6298182Y-66445053D01*
X6298182Y-69203350D01*
X6278180Y-69271471D01*
X6224524Y-69317964D01*
X6154250Y-69328068D01*
X6127538Y-69315522D01*
X6107014Y-69312121D01*
X6096601Y-69316609D01*
X5198022Y-70215188D01*
X5190408Y-70229132D01*
X5190539Y-70230965D01*
X5194790Y-70237580D01*
X6093558Y-71136348D01*
X6107502Y-71143962D01*
X6114276Y-71143478D01*
X6163194Y-71125233D01*
X6232568Y-71140325D01*
X6282770Y-71190528D01*
X6298182Y-71250912D01*
X6298182Y-72287338D01*
X6278180Y-72355459D01*
X6224524Y-72401952D01*
X6154250Y-72412056D01*
X6089670Y-72382562D01*
X6076371Y-72369169D01*
X5945281Y-72215683D01*
X5942073Y-72211927D01*
X5753740Y-72051075D01*
X5542563Y-71921666D01*
X5537993Y-71919773D01*
X5537989Y-71919771D01*
X5476105Y-71894138D01*
X5420824Y-71849589D01*
X5398403Y-71782226D01*
X5415961Y-71713435D01*
X5467924Y-71665056D01*
X5476105Y-71661320D01*
X5537761Y-71635782D01*
X5546555Y-71631301D01*
X5731715Y-71517835D01*
X5741175Y-71507379D01*
X5737391Y-71498601D01*
X4838812Y-70600022D01*
X4824868Y-70592408D01*
X4823035Y-70592539D01*
X4816420Y-70596790D01*
X3917652Y-71495558D01*
X3910892Y-71507938D01*
X3916619Y-71515588D01*
X4105445Y-71631301D01*
X4114239Y-71635782D01*
X4175895Y-71661320D01*
X4231176Y-71705868D01*
X4253597Y-71773231D01*
X4236039Y-71842023D01*
X4184077Y-71890401D01*
X4175895Y-71894138D01*
X4114011Y-71919771D01*
X4114007Y-71919773D01*
X4109437Y-71921666D01*
X3898260Y-72051075D01*
X3709927Y-72211927D01*
X3549075Y-72400260D01*
X3419666Y-72611437D01*
X3324885Y-72840258D01*
X3323730Y-72845070D01*
X3268221Y-73076276D01*
X3268220Y-73076282D01*
X3267066Y-73081089D01*
X3247634Y-73328000D01*
X3267066Y-73574911D01*
X3268220Y-73579718D01*
X3268221Y-73579724D01*
X3304499Y-73730830D01*
X3324885Y-73815742D01*
X3419666Y-74044563D01*
X3549075Y-74255740D01*
X3709927Y-74444073D01*
X3898260Y-74604925D01*
X4109437Y-74734334D01*
X4114007Y-74736227D01*
X4114011Y-74736229D01*
X4333685Y-74827221D01*
X4338258Y-74829115D01*
X4423170Y-74849501D01*
X4574276Y-74885779D01*
X4574282Y-74885780D01*
X4579089Y-74886934D01*
X4826000Y-74906366D01*
X5072911Y-74886934D01*
X5077718Y-74885780D01*
X5077724Y-74885779D01*
X5228830Y-74849501D01*
X5313742Y-74829115D01*
X5318315Y-74827221D01*
X5537989Y-74736229D01*
X5537993Y-74736227D01*
X5542563Y-74734334D01*
X5753740Y-74604925D01*
X5942073Y-74444073D01*
X6076370Y-74286831D01*
X6135822Y-74248022D01*
X6206816Y-74247516D01*
X6266815Y-74285472D01*
X6296768Y-74349841D01*
X6298182Y-74368662D01*
X6298182Y-79030947D01*
X6278180Y-79099068D01*
X6261277Y-79120042D01*
X5315813Y-80065506D01*
X5253501Y-80099532D01*
X5197304Y-80098930D01*
X5077724Y-80070221D01*
X5077718Y-80070220D01*
X5072911Y-80069066D01*
X4826000Y-80049634D01*
X4579089Y-80069066D01*
X4574282Y-80070220D01*
X4574276Y-80070221D01*
X4452190Y-80099532D01*
X4338258Y-80126885D01*
X4333687Y-80128778D01*
X4333685Y-80128779D01*
X4114011Y-80219771D01*
X4114007Y-80219773D01*
X4109437Y-80221666D01*
X3898260Y-80351075D01*
X3709927Y-80511927D01*
X3549075Y-80700260D01*
X3419666Y-80911437D01*
X3324885Y-81140258D01*
X3323730Y-81145070D01*
X3268221Y-81376276D01*
X3268220Y-81376282D01*
X3267066Y-81381089D01*
X3247634Y-81628000D01*
X3267066Y-81874911D01*
X3268220Y-81879718D01*
X3268221Y-81879724D01*
X3296930Y-81999304D01*
X3324885Y-82115742D01*
X3419666Y-82344563D01*
X3549075Y-82555740D01*
X3709927Y-82744073D01*
X3898260Y-82904925D01*
X4109437Y-83034334D01*
X4114007Y-83036227D01*
X4114011Y-83036229D01*
X4333685Y-83127221D01*
X4338258Y-83129115D01*
X4423170Y-83149501D01*
X4574276Y-83185779D01*
X4574282Y-83185780D01*
X4579089Y-83186934D01*
X4826000Y-83206366D01*
X5072911Y-83186934D01*
X5077718Y-83185780D01*
X5077724Y-83185779D01*
X5197304Y-83157070D01*
X5268212Y-83160617D01*
X5315813Y-83190494D01*
X6540595Y-84415276D01*
X6574621Y-84477588D01*
X6577500Y-84504371D01*
X6577500Y-87500758D01*
X6557498Y-87568879D01*
X6503842Y-87615372D01*
X6433568Y-87625476D01*
X6368988Y-87595982D01*
X6328982Y-87530173D01*
X6327796Y-87525234D01*
X6324744Y-87515840D01*
X6233782Y-87296239D01*
X6229301Y-87287445D01*
X6115835Y-87102285D01*
X6105379Y-87092825D01*
X6096601Y-87096609D01*
X5198022Y-87995188D01*
X5190408Y-88009132D01*
X5190539Y-88010965D01*
X5194790Y-88017580D01*
X6093558Y-88916348D01*
X6105938Y-88923108D01*
X6113588Y-88917381D01*
X6229301Y-88728555D01*
X6233782Y-88719761D01*
X6324744Y-88500160D01*
X6327796Y-88490766D01*
X6328982Y-88485827D01*
X6364334Y-88424258D01*
X6427361Y-88391576D01*
X6498052Y-88398157D01*
X6553963Y-88441911D01*
X6577500Y-88515242D01*
X6577500Y-90598616D01*
X6557498Y-90666737D01*
X6503842Y-90713230D01*
X6433568Y-90723334D01*
X6368988Y-90693840D01*
X6330005Y-90629715D01*
X6329801Y-90629781D01*
X6329521Y-90628918D01*
X6328982Y-90628032D01*
X6328273Y-90625077D01*
X6328269Y-90625065D01*
X6327115Y-90620258D01*
X6232334Y-90391437D01*
X6102925Y-90180260D01*
X5942073Y-89991927D01*
X5753740Y-89831075D01*
X5542563Y-89701666D01*
X5537993Y-89699773D01*
X5537989Y-89699771D01*
X5476105Y-89674138D01*
X5420824Y-89629589D01*
X5398403Y-89562226D01*
X5415961Y-89493435D01*
X5467924Y-89445056D01*
X5476105Y-89441320D01*
X5537761Y-89415782D01*
X5546555Y-89411301D01*
X5731715Y-89297835D01*
X5741175Y-89287379D01*
X5737391Y-89278601D01*
X4838812Y-88380022D01*
X4824868Y-88372408D01*
X4823035Y-88372539D01*
X4816420Y-88376790D01*
X3917652Y-89275558D01*
X3910892Y-89287938D01*
X3916619Y-89295588D01*
X4105445Y-89411301D01*
X4114239Y-89415782D01*
X4175895Y-89441320D01*
X4231176Y-89485868D01*
X4253597Y-89553231D01*
X4236039Y-89622023D01*
X4184077Y-89670401D01*
X4175895Y-89674138D01*
X4114011Y-89699771D01*
X4114007Y-89699773D01*
X4109437Y-89701666D01*
X3898260Y-89831075D01*
X3709927Y-89991927D01*
X3549075Y-90180260D01*
X3419666Y-90391437D01*
X3324885Y-90620258D01*
X3323730Y-90625070D01*
X3268221Y-90856276D01*
X3268220Y-90856282D01*
X3267066Y-90861089D01*
X3247634Y-91108000D01*
X3267066Y-91354911D01*
X3268220Y-91359718D01*
X3268221Y-91359724D01*
X3300391Y-91493718D01*
X3324885Y-91595742D01*
X3419666Y-91824563D01*
X3549075Y-92035740D01*
X3709927Y-92224073D01*
X3898260Y-92384925D01*
X4109437Y-92514334D01*
X4114007Y-92516227D01*
X4114011Y-92516229D01*
X4333685Y-92607221D01*
X4338258Y-92609115D01*
X4423170Y-92629501D01*
X4574276Y-92665779D01*
X4574282Y-92665780D01*
X4579089Y-92666934D01*
X4826000Y-92686366D01*
X5072911Y-92666934D01*
X5077718Y-92665780D01*
X5077724Y-92665779D01*
X5228830Y-92629501D01*
X5313742Y-92609115D01*
X5318315Y-92607221D01*
X5537989Y-92516229D01*
X5537993Y-92516227D01*
X5542563Y-92514334D01*
X5753740Y-92384925D01*
X5942073Y-92224073D01*
X6102925Y-92035740D01*
X6232334Y-91824563D01*
X6327115Y-91595742D01*
X6328269Y-91590935D01*
X6328273Y-91590923D01*
X6328982Y-91587968D01*
X6329559Y-91586962D01*
X6329801Y-91586219D01*
X6329957Y-91586270D01*
X6364334Y-91526400D01*
X6427362Y-91493718D01*
X6498052Y-91500299D01*
X6553963Y-91544054D01*
X6577500Y-91617384D01*
X6577500Y-96531629D01*
X6557498Y-96599750D01*
X6540595Y-96620724D01*
X5315813Y-97845506D01*
X5253501Y-97879532D01*
X5197304Y-97878930D01*
X5077724Y-97850221D01*
X5077718Y-97850220D01*
X5072911Y-97849066D01*
X4826000Y-97829634D01*
X4579089Y-97849066D01*
X4574282Y-97850220D01*
X4574276Y-97850221D01*
X4452190Y-97879532D01*
X4338258Y-97906885D01*
X4333687Y-97908778D01*
X4333685Y-97908779D01*
X4114011Y-97999771D01*
X4114007Y-97999773D01*
X4109437Y-98001666D01*
X3898260Y-98131075D01*
X3709927Y-98291927D01*
X3549075Y-98480260D01*
X3419666Y-98691437D01*
X3324885Y-98920258D01*
X3323730Y-98925070D01*
X3268221Y-99156276D01*
X3268220Y-99156282D01*
X3267066Y-99161089D01*
X3247634Y-99408000D01*
X3267066Y-99654911D01*
X3268220Y-99659718D01*
X3268221Y-99659724D01*
X3304499Y-99810830D01*
X3324885Y-99895742D01*
X3419666Y-100124563D01*
X3549075Y-100335740D01*
X3709927Y-100524073D01*
X3713683Y-100527281D01*
X3817195Y-100615689D01*
X3856004Y-100675140D01*
X3856510Y-100746135D01*
X3818554Y-100806133D01*
X3754185Y-100836086D01*
X3735364Y-100837500D01*
X634500Y-100837500D01*
X566379Y-100817498D01*
X519886Y-100763842D01*
X508500Y-100711500D01*
X508500Y-88012930D01*
X3248524Y-88012930D01*
X3267174Y-88249898D01*
X3268717Y-88259645D01*
X3324207Y-88490775D01*
X3327256Y-88500160D01*
X3418218Y-88719761D01*
X3422699Y-88728555D01*
X3536165Y-88913715D01*
X3546621Y-88923175D01*
X3555399Y-88919391D01*
X4453978Y-88020812D01*
X4461592Y-88006868D01*
X4461461Y-88005035D01*
X4457210Y-87998420D01*
X3558442Y-87099652D01*
X3546062Y-87092892D01*
X3538412Y-87098619D01*
X3422699Y-87287445D01*
X3418218Y-87296239D01*
X3327256Y-87515840D01*
X3324207Y-87525225D01*
X3268717Y-87756355D01*
X3267174Y-87766102D01*
X3248524Y-88003070D01*
X3248524Y-88012930D01*
X508500Y-88012930D01*
X508500Y-86728621D01*
X3910825Y-86728621D01*
X3914609Y-86737399D01*
X4813188Y-87635978D01*
X4827132Y-87643592D01*
X4828965Y-87643461D01*
X4835580Y-87639210D01*
X5734348Y-86740442D01*
X5741108Y-86728062D01*
X5735381Y-86720412D01*
X5546555Y-86604699D01*
X5537761Y-86600218D01*
X5318160Y-86509256D01*
X5308775Y-86506207D01*
X5077645Y-86450717D01*
X5067898Y-86449174D01*
X4830930Y-86430524D01*
X4821070Y-86430524D01*
X4584102Y-86449174D01*
X4574355Y-86450717D01*
X4343225Y-86506207D01*
X4333840Y-86509256D01*
X4114239Y-86600218D01*
X4105445Y-86604699D01*
X3920285Y-86718165D01*
X3910825Y-86728621D01*
X508500Y-86728621D01*
X508500Y-70232930D01*
X3248524Y-70232930D01*
X3267174Y-70469898D01*
X3268717Y-70479645D01*
X3324207Y-70710775D01*
X3327256Y-70720160D01*
X3418218Y-70939761D01*
X3422699Y-70948555D01*
X3536165Y-71133715D01*
X3546621Y-71143175D01*
X3555399Y-71139391D01*
X4453978Y-70240812D01*
X4461592Y-70226868D01*
X4461461Y-70225035D01*
X4457210Y-70218420D01*
X3558442Y-69319652D01*
X3546062Y-69312892D01*
X3538412Y-69318619D01*
X3422699Y-69507445D01*
X3418218Y-69516239D01*
X3327256Y-69735840D01*
X3324207Y-69745225D01*
X3268717Y-69976355D01*
X3267174Y-69986102D01*
X3248524Y-70223070D01*
X3248524Y-70232930D01*
X508500Y-70232930D01*
X508500Y-68948621D01*
X3910825Y-68948621D01*
X3914609Y-68957399D01*
X4813188Y-69855978D01*
X4827132Y-69863592D01*
X4828965Y-69863461D01*
X4835580Y-69859210D01*
X5734348Y-68960442D01*
X5741108Y-68948062D01*
X5735381Y-68940412D01*
X5546555Y-68824699D01*
X5537761Y-68820218D01*
X5318160Y-68729256D01*
X5308775Y-68726207D01*
X5077645Y-68670717D01*
X5067898Y-68669174D01*
X4830930Y-68650524D01*
X4821070Y-68650524D01*
X4584102Y-68669174D01*
X4574355Y-68670717D01*
X4343225Y-68726207D01*
X4333840Y-68729256D01*
X4114239Y-68820218D01*
X4105445Y-68824699D01*
X3920285Y-68938165D01*
X3910825Y-68948621D01*
X508500Y-68948621D01*
X508500Y-52452930D01*
X3248524Y-52452930D01*
X3267174Y-52689898D01*
X3268717Y-52699645D01*
X3324207Y-52930775D01*
X3327256Y-52940160D01*
X3418218Y-53159761D01*
X3422699Y-53168555D01*
X3536165Y-53353715D01*
X3546621Y-53363175D01*
X3555399Y-53359391D01*
X4453978Y-52460812D01*
X4461592Y-52446868D01*
X4461461Y-52445035D01*
X4457210Y-52438420D01*
X3558442Y-51539652D01*
X3546062Y-51532892D01*
X3538412Y-51538619D01*
X3422699Y-51727445D01*
X3418218Y-51736239D01*
X3327256Y-51955840D01*
X3324207Y-51965225D01*
X3268717Y-52196355D01*
X3267174Y-52206102D01*
X3248524Y-52443070D01*
X3248524Y-52452930D01*
X508500Y-52452930D01*
X508500Y-51168621D01*
X3910825Y-51168621D01*
X3914609Y-51177399D01*
X4813188Y-52075978D01*
X4827132Y-52083592D01*
X4828965Y-52083461D01*
X4835580Y-52079210D01*
X5734348Y-51180442D01*
X5741108Y-51168062D01*
X5735381Y-51160412D01*
X5546555Y-51044699D01*
X5537761Y-51040218D01*
X5318160Y-50949256D01*
X5308775Y-50946207D01*
X5077645Y-50890717D01*
X5067898Y-50889174D01*
X4830930Y-50870524D01*
X4821070Y-50870524D01*
X4584102Y-50889174D01*
X4574355Y-50890717D01*
X4343225Y-50946207D01*
X4333840Y-50949256D01*
X4114239Y-51040218D01*
X4105445Y-51044699D01*
X3920285Y-51158165D01*
X3910825Y-51168621D01*
X508500Y-51168621D01*
X508500Y-34672930D01*
X3248524Y-34672930D01*
X3267174Y-34909898D01*
X3268717Y-34919645D01*
X3324207Y-35150775D01*
X3327256Y-35160160D01*
X3418218Y-35379761D01*
X3422699Y-35388555D01*
X3536165Y-35573715D01*
X3546621Y-35583175D01*
X3555399Y-35579391D01*
X4453978Y-34680812D01*
X4461592Y-34666868D01*
X4461461Y-34665035D01*
X4457210Y-34658420D01*
X3558442Y-33759652D01*
X3546062Y-33752892D01*
X3538412Y-33758619D01*
X3422699Y-33947445D01*
X3418218Y-33956239D01*
X3327256Y-34175840D01*
X3324207Y-34185225D01*
X3268717Y-34416355D01*
X3267174Y-34426102D01*
X3248524Y-34663070D01*
X3248524Y-34672930D01*
X508500Y-34672930D01*
X508500Y-33388621D01*
X3910825Y-33388621D01*
X3914609Y-33397399D01*
X4813188Y-34295978D01*
X4827132Y-34303592D01*
X4828965Y-34303461D01*
X4835580Y-34299210D01*
X5734348Y-33400442D01*
X5741108Y-33388062D01*
X5735381Y-33380412D01*
X5546555Y-33264699D01*
X5537761Y-33260218D01*
X5318160Y-33169256D01*
X5308775Y-33166207D01*
X5077645Y-33110717D01*
X5067898Y-33109174D01*
X4830930Y-33090524D01*
X4821070Y-33090524D01*
X4584102Y-33109174D01*
X4574355Y-33110717D01*
X4343225Y-33166207D01*
X4333840Y-33169256D01*
X4114239Y-33260218D01*
X4105445Y-33264699D01*
X3920285Y-33378165D01*
X3910825Y-33388621D01*
X508500Y-33388621D01*
X508500Y-14617938D01*
X3910892Y-14617938D01*
X3916619Y-14625588D01*
X4105445Y-14741301D01*
X4114239Y-14745782D01*
X4333840Y-14836744D01*
X4343225Y-14839793D01*
X4574355Y-14895283D01*
X4584102Y-14896826D01*
X4821070Y-14915476D01*
X4830930Y-14915476D01*
X5067898Y-14896826D01*
X5077645Y-14895283D01*
X5308775Y-14839793D01*
X5318160Y-14836744D01*
X5537761Y-14745782D01*
X5546555Y-14741301D01*
X5731715Y-14627835D01*
X5741175Y-14617379D01*
X5737391Y-14608601D01*
X4838812Y-13710022D01*
X4824868Y-13702408D01*
X4823035Y-13702539D01*
X4816420Y-13706790D01*
X3917652Y-14605558D01*
X3910892Y-14617938D01*
X508500Y-14617938D01*
X508500Y-13342930D01*
X3248524Y-13342930D01*
X3267174Y-13579898D01*
X3268717Y-13589645D01*
X3324207Y-13820775D01*
X3327256Y-13830160D01*
X3418218Y-14049761D01*
X3422699Y-14058555D01*
X3536165Y-14243715D01*
X3546621Y-14253175D01*
X3555399Y-14249391D01*
X4453978Y-13350812D01*
X4461592Y-13336868D01*
X4461461Y-13335035D01*
X4457210Y-13328420D01*
X3558442Y-12429652D01*
X3546062Y-12422892D01*
X3538412Y-12428619D01*
X3422699Y-12617445D01*
X3418218Y-12626239D01*
X3327256Y-12845840D01*
X3324207Y-12855225D01*
X3268717Y-13086355D01*
X3267174Y-13096102D01*
X3248524Y-13333070D01*
X3248524Y-13342930D01*
X508500Y-13342930D01*
X508500Y-634500D01*
X528502Y-566379D01*
X582158Y-519886D01*
X634500Y-508500D01*
X3735364Y-508500D01*
X3803485Y-528502D01*
G37*
%TD.AperFunction*%
%TD*%
M02*
