M48
; DRILL file {KiCad (5.1.8)-1} date 07/04/22 09:23:01
; FORMAT={-:-/ absolute / metric / decimal}
; #@! TF.CreationDate,2022-07-04T09:23:01-07:00
; #@! TF.GenerationSoftware,Kicad,Pcbnew,(5.1.8)-1
FMAT,2
METRIC
T1C0.700
T2C0.800
T3C1.000
T4C1.100
T5C3.200
%
G90
G05
T1
X1.25Y-26.2
X8.87Y-26.2
X25.95Y-10.58
X25.95Y-18.2
X23.25Y-30.58
X23.25Y-38.2
X1.2Y-28.65
X8.82Y-28.65
X25.9Y-20.68
X25.9Y-28.3
X23.35Y-10.65
X23.35Y-18.27
X25.85Y-30.63
X25.85Y-38.25
X23.35Y-20.65
X23.35Y-28.27
T2
X3.4Y-10.05
X5.4Y-10.05
X12.28Y-16.95
X12.28Y-19.49
X12.28Y-22.03
X12.28Y-24.57
X12.28Y-27.11
X12.28Y-29.65
X12.28Y-32.19
X19.9Y-16.95
X19.9Y-19.49
X19.9Y-22.03
X19.9Y-24.57
X19.9Y-27.11
X19.9Y-29.65
X19.9Y-32.19
X13.15Y-37.15
X15.69Y-37.15
X18.23Y-37.15
X9.15Y-10.25
X11.15Y-10.25
T3
X1.25Y-16.25
X8.75Y-16.25
X3.72Y-31.5
X8.8Y-31.5
X3.75Y-35.6
X8.83Y-35.6
X14.95Y-9.65
X20.03Y-9.65
X15.07Y-13.15
X20.15Y-13.15
X14.99Y-1.76
X14.99Y-4.3
X17.53Y-1.76
X17.53Y-4.3
X20.07Y-1.76
X20.07Y-4.3
X22.61Y-1.76
X22.61Y-4.3
X25.15Y-1.76
X25.15Y-4.3
X1.35Y-22.15
X8.85Y-22.15
T4
X11.6Y-42.5
X19.2Y-42.5
X15.45Y-42.5
T5
X4.05Y-3.55
X4.15Y-41.85
T0
M30
