%TF.GenerationSoftware,KiCad,Pcbnew,(5.1.8)-1*%
%TF.CreationDate,2022-07-03T22:06:14-07:00*%
%TF.ProjectId,clip-mix,636c6970-2d6d-4697-982e-6b696361645f,rev?*%
%TF.SameCoordinates,Original*%
%TF.FileFunction,Copper,L1,Top*%
%TF.FilePolarity,Positive*%
%FSLAX46Y46*%
G04 Gerber Fmt 4.6, Leading zero omitted, Abs format (unit mm)*
G04 Created by KiCad (PCBNEW (5.1.8)-1) date 2022-07-03 22:06:14*
%MOMM*%
%LPD*%
G01*
G04 APERTURE LIST*
%TA.AperFunction,ComponentPad*%
%ADD10O,1.600000X1.600000*%
%TD*%
%TA.AperFunction,ComponentPad*%
%ADD11R,1.600000X1.600000*%
%TD*%
%TA.AperFunction,ComponentPad*%
%ADD12C,1.440000*%
%TD*%
%TA.AperFunction,ComponentPad*%
%ADD13O,1.400000X1.400000*%
%TD*%
%TA.AperFunction,ComponentPad*%
%ADD14C,1.400000*%
%TD*%
%TA.AperFunction,ComponentPad*%
%ADD15O,1.700000X1.700000*%
%TD*%
%TA.AperFunction,ComponentPad*%
%ADD16R,1.700000X1.700000*%
%TD*%
%TA.AperFunction,ComponentPad*%
%ADD17O,2.000000X2.000000*%
%TD*%
%TA.AperFunction,ComponentPad*%
%ADD18R,2.000000X2.000000*%
%TD*%
%TA.AperFunction,ComponentPad*%
%ADD19C,2.000000*%
%TD*%
%TA.AperFunction,ComponentPad*%
%ADD20C,1.600000*%
%TD*%
%TA.AperFunction,Conductor*%
%ADD21C,0.500000*%
%TD*%
G04 APERTURE END LIST*
D10*
%TO.P,U1,14*%
%TO.N,Net-(U1-Pad14)*%
X160430000Y-110750000D03*
%TO.P,U1,7*%
%TO.N,Net-(R3-Pad1)*%
X168050000Y-125990000D03*
%TO.P,U1,13*%
%TO.N,Net-(U1-Pad12)*%
X160430000Y-113290000D03*
%TO.P,U1,6*%
%TO.N,Net-(R2-Pad1)*%
X168050000Y-123450000D03*
%TO.P,U1,12*%
%TO.N,Net-(U1-Pad12)*%
X160430000Y-115830000D03*
%TO.P,U1,5*%
%TO.N,Earth*%
X168050000Y-120910000D03*
%TO.P,U1,11*%
%TO.N,Net-(C2-Pad2)*%
X160430000Y-118370000D03*
%TO.P,U1,4*%
%TO.N,Net-(C1-Pad1)*%
X168050000Y-118370000D03*
%TO.P,U1,10*%
%TO.N,Net-(D1-Pad2)*%
X160430000Y-120910000D03*
%TO.P,U1,3*%
%TO.N,Earth*%
X168050000Y-115830000D03*
%TO.P,U1,9*%
%TO.N,Net-(R6-Pad2)*%
X160430000Y-123450000D03*
%TO.P,U1,2*%
%TO.N,Net-(J1-Pad1)*%
X168050000Y-113290000D03*
%TO.P,U1,8*%
%TO.N,Net-(R7-Pad1)*%
X160430000Y-125990000D03*
D11*
%TO.P,U1,1*%
%TO.N,Net-(R1-Pad1)*%
X168050000Y-110750000D03*
%TD*%
D12*
%TO.P,RV1,3*%
%TO.N,Net-(D1-Pad1)*%
X166380000Y-130950000D03*
%TO.P,RV1,2*%
%TO.N,Earth*%
X163840000Y-130950000D03*
%TO.P,RV1,1*%
X161300000Y-130950000D03*
%TD*%
D13*
%TO.P,R8,2*%
%TO.N,Net-(R7-Pad1)*%
X171400000Y-124380000D03*
D14*
%TO.P,R8,1*%
%TO.N,Net-(J3-Pad1)*%
X171400000Y-132000000D03*
%TD*%
D13*
%TO.P,R7,2*%
%TO.N,Net-(R6-Pad2)*%
X149350000Y-122450000D03*
D14*
%TO.P,R7,1*%
%TO.N,Net-(R7-Pad1)*%
X156970000Y-122450000D03*
%TD*%
D13*
%TO.P,R6,2*%
%TO.N,Net-(R6-Pad2)*%
X157020000Y-120000000D03*
D14*
%TO.P,R6,1*%
%TO.N,Earth*%
X149400000Y-120000000D03*
%TD*%
D13*
%TO.P,R5,2*%
%TO.N,Net-(R3-Pad1)*%
X174000000Y-124430000D03*
D14*
%TO.P,R5,1*%
%TO.N,Net-(J2-Pad1)*%
X174000000Y-132050000D03*
%TD*%
D13*
%TO.P,R4,2*%
%TO.N,Net-(R3-Pad1)*%
X171500000Y-122070000D03*
D14*
%TO.P,R4,1*%
%TO.N,Net-(D1-Pad2)*%
X171500000Y-114450000D03*
%TD*%
D13*
%TO.P,R3,2*%
%TO.N,Net-(R2-Pad1)*%
X174050000Y-114480000D03*
D14*
%TO.P,R3,1*%
%TO.N,Net-(R3-Pad1)*%
X174050000Y-122100000D03*
%TD*%
D13*
%TO.P,R2,2*%
%TO.N,Net-(R1-Pad1)*%
X174100000Y-104380000D03*
D14*
%TO.P,R2,1*%
%TO.N,Net-(R2-Pad1)*%
X174100000Y-112000000D03*
%TD*%
D13*
%TO.P,R1,2*%
%TO.N,Net-(J1-Pad1)*%
X171500000Y-112070000D03*
D14*
%TO.P,R1,1*%
%TO.N,Net-(R1-Pad1)*%
X171500000Y-104450000D03*
%TD*%
D15*
%TO.P,J4,10*%
%TO.N,-12V*%
X163140000Y-95560000D03*
%TO.P,J4,9*%
X163140000Y-98100000D03*
%TO.P,J4,8*%
%TO.N,Earth*%
X165680000Y-95560000D03*
%TO.P,J4,7*%
X165680000Y-98100000D03*
%TO.P,J4,6*%
X168220000Y-95560000D03*
%TO.P,J4,5*%
X168220000Y-98100000D03*
%TO.P,J4,4*%
X170760000Y-95560000D03*
%TO.P,J4,3*%
X170760000Y-98100000D03*
%TO.P,J4,2*%
%TO.N,+12v*%
X173300000Y-95560000D03*
D16*
%TO.P,J4,1*%
X173300000Y-98100000D03*
%TD*%
%TO.P,J3,1*%
%TO.N,Net-(J3-Pad1)*%
%TA.AperFunction,ComponentPad*%
G36*
G01*
X160900000Y-135400000D02*
X160900000Y-137200000D01*
G75*
G02*
X160650000Y-137450000I-250000J0D01*
G01*
X158850000Y-137450000D01*
G75*
G02*
X158600000Y-137200000I0J250000D01*
G01*
X158600000Y-135400000D01*
G75*
G02*
X158850000Y-135150000I250000J0D01*
G01*
X160650000Y-135150000D01*
G75*
G02*
X160900000Y-135400000I0J-250000D01*
G01*
G37*
%TD.AperFunction*%
%TD*%
%TO.P,J2,1*%
%TO.N,Net-(J2-Pad1)*%
%TA.AperFunction,ComponentPad*%
G36*
G01*
X164750000Y-135400000D02*
X164750000Y-137200000D01*
G75*
G02*
X164500000Y-137450000I-250000J0D01*
G01*
X162700000Y-137450000D01*
G75*
G02*
X162450000Y-137200000I0J250000D01*
G01*
X162450000Y-135400000D01*
G75*
G02*
X162700000Y-135150000I250000J0D01*
G01*
X164500000Y-135150000D01*
G75*
G02*
X164750000Y-135400000I0J-250000D01*
G01*
G37*
%TD.AperFunction*%
%TD*%
%TO.P,J1,1*%
%TO.N,Net-(J1-Pad1)*%
%TA.AperFunction,ComponentPad*%
G36*
G01*
X168500000Y-135400000D02*
X168500000Y-137200000D01*
G75*
G02*
X168250000Y-137450000I-250000J0D01*
G01*
X166450000Y-137450000D01*
G75*
G02*
X166200000Y-137200000I0J250000D01*
G01*
X166200000Y-135400000D01*
G75*
G02*
X166450000Y-135150000I250000J0D01*
G01*
X168250000Y-135150000D01*
G75*
G02*
X168500000Y-135400000I0J-250000D01*
G01*
G37*
%TD.AperFunction*%
%TD*%
D17*
%TO.P,D4,2*%
%TO.N,Net-(C2-Pad2)*%
X163220000Y-106950000D03*
D18*
%TO.P,D4,1*%
%TO.N,-12V*%
X168300000Y-106950000D03*
%TD*%
D17*
%TO.P,D3,2*%
%TO.N,+12v*%
X168180000Y-103450000D03*
D18*
%TO.P,D3,1*%
%TO.N,Net-(C1-Pad1)*%
X163100000Y-103450000D03*
%TD*%
D17*
%TO.P,D2,2*%
%TO.N,Net-(D1-Pad1)*%
X151870000Y-125300000D03*
D18*
%TO.P,D2,1*%
%TO.N,Net-(D1-Pad2)*%
X156950000Y-125300000D03*
%TD*%
D17*
%TO.P,D1,2*%
%TO.N,Net-(D1-Pad2)*%
X156980000Y-129400000D03*
D18*
%TO.P,D1,1*%
%TO.N,Net-(D1-Pad1)*%
X151900000Y-129400000D03*
%TD*%
D19*
%TO.P,C4,2*%
%TO.N,Net-(C2-Pad2)*%
X156900000Y-110050000D03*
%TO.P,C4,1*%
%TO.N,Earth*%
X149400000Y-110050000D03*
%TD*%
%TO.P,C3,2*%
%TO.N,Earth*%
X149500000Y-115950000D03*
%TO.P,C3,1*%
%TO.N,Net-(C1-Pad1)*%
X157000000Y-115950000D03*
%TD*%
D20*
%TO.P,C2,2*%
%TO.N,Net-(C2-Pad2)*%
X151550000Y-103850000D03*
D11*
%TO.P,C2,1*%
%TO.N,Earth*%
X153550000Y-103850000D03*
%TD*%
D20*
%TO.P,C1,2*%
%TO.N,Earth*%
X157300000Y-104050000D03*
D11*
%TO.P,C1,1*%
%TO.N,Net-(C1-Pad1)*%
X159300000Y-104050000D03*
%TD*%
D21*
%TO.N,Earth*%
X170760000Y-95560000D02*
X168220000Y-95560000D01*
X168220000Y-95560000D02*
X165680000Y-95560000D01*
X165680000Y-95560000D02*
X165680000Y-98100000D01*
X165680000Y-98100000D02*
X168220000Y-98100000D01*
X168220000Y-98100000D02*
X170760000Y-98100000D01*
X170760000Y-98100000D02*
X170760000Y-95560000D01*
X168220000Y-95560000D02*
X168220000Y-98100000D01*
X157100000Y-103850000D02*
X157300000Y-104050000D01*
X153550000Y-103850000D02*
X157100000Y-103850000D01*
X164379999Y-94259999D02*
X165680000Y-95560000D01*
X162515999Y-94259999D02*
X164379999Y-94259999D01*
X157300000Y-99475998D02*
X162515999Y-94259999D01*
X157300000Y-104050000D02*
X157300000Y-99475998D01*
X150949999Y-102599999D02*
X152299999Y-102599999D01*
X152299999Y-102599999D02*
X153550000Y-103850000D01*
X149400000Y-104149998D02*
X150949999Y-102599999D01*
X149400000Y-110050000D02*
X149400000Y-104149998D01*
X149400000Y-115850000D02*
X149500000Y-115950000D01*
X149400000Y-110050000D02*
X149400000Y-115850000D01*
X149500000Y-119900000D02*
X149400000Y-120000000D01*
X149500000Y-115950000D02*
X149500000Y-119900000D01*
X161300000Y-130950000D02*
X163840000Y-130950000D01*
X168050000Y-121599998D02*
X168050000Y-120910000D01*
X163840000Y-125809998D02*
X168050000Y-121599998D01*
X163840000Y-130950000D02*
X163840000Y-125809998D01*
X172650001Y-113700001D02*
X172650001Y-117449999D01*
X172249999Y-113299999D02*
X172650001Y-113700001D01*
X170580001Y-113299999D02*
X172249999Y-113299999D01*
X168050000Y-115830000D02*
X170580001Y-113299999D01*
X169190000Y-120910000D02*
X168050000Y-120910000D01*
X172650001Y-117449999D02*
X169190000Y-120910000D01*
X166729999Y-104146001D02*
X166729999Y-99590001D01*
X166729999Y-99590001D02*
X168220000Y-98100000D01*
X167483999Y-104900001D02*
X166729999Y-104146001D01*
X169750001Y-105750001D02*
X168900001Y-104900001D01*
X167989997Y-108400001D02*
X169660001Y-108400001D01*
X166799999Y-109589999D02*
X167989997Y-108400001D01*
X168900001Y-104900001D02*
X167483999Y-104900001D01*
X169660001Y-108400001D02*
X169750001Y-108310001D01*
X166799999Y-114579999D02*
X166799999Y-109589999D01*
X169750001Y-108310001D02*
X169750001Y-105750001D01*
X168050000Y-115830000D02*
X166799999Y-114579999D01*
%TO.N,Net-(C1-Pad1)*%
X159900000Y-103450000D02*
X159300000Y-104050000D01*
X163100000Y-103450000D02*
X159900000Y-103450000D01*
X157000000Y-112329998D02*
X157000000Y-115950000D01*
X159829999Y-109499999D02*
X157000000Y-112329998D01*
X164670001Y-107929999D02*
X163100001Y-109499999D01*
X164670001Y-105020001D02*
X164670001Y-107929999D01*
X163100000Y-103450000D02*
X164670001Y-105020001D01*
X162950001Y-113270001D02*
X162950001Y-109499999D01*
X168050000Y-118370000D02*
X162950001Y-113270001D01*
X162950001Y-109499999D02*
X159829999Y-109499999D01*
X163100001Y-109499999D02*
X162950001Y-109499999D01*
%TO.N,Net-(C2-Pad2)*%
X160000000Y-106950000D02*
X156900000Y-110050000D01*
X163220000Y-106950000D02*
X160000000Y-106950000D01*
X156618630Y-110050000D02*
X156900000Y-110050000D01*
X151550000Y-104981370D02*
X156618630Y-110050000D01*
X151550000Y-103850000D02*
X151550000Y-104981370D01*
X155549999Y-111400001D02*
X156900000Y-110050000D01*
X155549999Y-116646001D02*
X155549999Y-111400001D01*
X156473999Y-117570001D02*
X155549999Y-116646001D01*
X159630001Y-117570001D02*
X160430000Y-118370000D01*
X156473999Y-117570001D02*
X159630001Y-117570001D01*
%TO.N,Net-(D1-Pad2)*%
X156980000Y-125330000D02*
X156950000Y-125300000D01*
X156980000Y-129400000D02*
X156980000Y-125330000D01*
X171370001Y-114579999D02*
X171500000Y-114450000D01*
X156950000Y-124390000D02*
X160430000Y-120910000D01*
X156950000Y-125300000D02*
X156950000Y-124390000D01*
X157510001Y-124739999D02*
X156950000Y-125300000D01*
X161030001Y-124739999D02*
X157510001Y-124739999D01*
X166110001Y-119659999D02*
X161030001Y-124739999D01*
X168590001Y-119659999D02*
X166110001Y-119659999D01*
X171500000Y-116750000D02*
X168590001Y-119659999D01*
X171500000Y-114450000D02*
X171500000Y-116750000D01*
%TO.N,Net-(D1-Pad1)*%
X151900000Y-125330000D02*
X151870000Y-125300000D01*
X151900000Y-129400000D02*
X151900000Y-125330000D01*
X155320011Y-132820011D02*
X151900000Y-129400000D01*
X165528222Y-132820011D02*
X155320011Y-132820011D01*
X166380000Y-131968233D02*
X165528222Y-132820011D01*
X166380000Y-130950000D02*
X166380000Y-131968233D01*
%TO.N,Net-(J1-Pad1)*%
X167350000Y-136300000D02*
X167550001Y-136099999D01*
X175250001Y-124882001D02*
X175250001Y-111447999D01*
X167350000Y-136300000D02*
X168250011Y-135399989D01*
X172849999Y-127282003D02*
X175250001Y-124882001D01*
X172849999Y-132252003D02*
X172849999Y-127282003D01*
X168802002Y-136300000D02*
X172849999Y-132252003D01*
X167350000Y-136300000D02*
X168802002Y-136300000D01*
X172720001Y-110849999D02*
X171500000Y-112070000D01*
X174652001Y-110849999D02*
X172720001Y-110849999D01*
X175250001Y-111447999D02*
X174652001Y-110849999D01*
X169270000Y-112070000D02*
X171500000Y-112070000D01*
X168050000Y-113290000D02*
X169270000Y-112070000D01*
%TO.N,Net-(J2-Pad1)*%
X165200010Y-137900010D02*
X163600000Y-136300000D01*
X169139939Y-137900010D02*
X165200010Y-137900010D01*
X174000000Y-133039949D02*
X169139939Y-137900010D01*
X174000000Y-132050000D02*
X174000000Y-133039949D01*
%TO.N,Net-(J3-Pad1)*%
X168700019Y-134699981D02*
X171400000Y-132000000D01*
X161350019Y-134699981D02*
X168700019Y-134699981D01*
X159750000Y-136300000D02*
X161350019Y-134699981D01*
%TO.N,Net-(R1-Pad1)*%
X174030000Y-104450000D02*
X174100000Y-104380000D01*
X171500000Y-104450000D02*
X174030000Y-104450000D01*
X171500000Y-108600000D02*
X171500000Y-104450000D01*
X169350000Y-110750000D02*
X171500000Y-108600000D01*
X168050000Y-110750000D02*
X169350000Y-110750000D01*
%TO.N,Net-(R2-Pad1)*%
X174100000Y-114430000D02*
X174050000Y-114480000D01*
X174100000Y-112000000D02*
X174100000Y-114430000D01*
X174050000Y-117450000D02*
X174050000Y-114480000D01*
X168050000Y-123450000D02*
X174050000Y-117450000D01*
%TO.N,Net-(R3-Pad1)*%
X168050000Y-125720000D02*
X168050000Y-125990000D01*
X171530000Y-122100000D02*
X171500000Y-122070000D01*
X174050000Y-122100000D02*
X171530000Y-122100000D01*
X168050000Y-125520000D02*
X168050000Y-125990000D01*
X171500000Y-122070000D02*
X168050000Y-125520000D01*
X174000000Y-122150000D02*
X174050000Y-122100000D01*
X174000000Y-124430000D02*
X174000000Y-122150000D01*
%TO.N,Net-(R6-Pad2)*%
X154570000Y-122450000D02*
X157020000Y-120000000D01*
X149350000Y-122450000D02*
X154570000Y-122450000D01*
X157020000Y-120000000D02*
X157020000Y-120040000D01*
X161680001Y-122199999D02*
X160430000Y-123450000D01*
X161680001Y-120309999D02*
X161680001Y-122199999D01*
X161030001Y-119659999D02*
X161680001Y-120309999D01*
X159829999Y-119659999D02*
X161030001Y-119659999D01*
X159489998Y-120000000D02*
X159829999Y-119659999D01*
X157020000Y-120000000D02*
X159489998Y-120000000D01*
%TO.N,Net-(R7-Pad1)*%
X160430000Y-125990000D02*
X160430000Y-125910000D01*
X171400000Y-125369949D02*
X171400000Y-124380000D01*
X169529948Y-127240001D02*
X171400000Y-125369949D01*
X168358397Y-127240001D02*
X169529948Y-127240001D01*
X165209999Y-130388399D02*
X168358397Y-127240001D01*
X165209999Y-131311603D02*
X165209999Y-130388399D01*
X160738399Y-132120001D02*
X164401601Y-132120001D01*
X159630001Y-131011603D02*
X160738399Y-132120001D01*
X159630001Y-126789999D02*
X159630001Y-131011603D01*
X164401601Y-132120001D02*
X165209999Y-131311603D01*
X160430000Y-125990000D02*
X159630001Y-126789999D01*
X156445601Y-131011603D02*
X159630001Y-131011603D01*
X155499999Y-130066001D02*
X156445601Y-131011603D01*
X155499999Y-123920001D02*
X155499999Y-130066001D01*
X156970000Y-122450000D02*
X155499999Y-123920001D01*
%TO.N,Net-(U1-Pad12)*%
X160430000Y-115830000D02*
X160430000Y-113290000D01*
%TO.N,+12v*%
X173300000Y-98100000D02*
X173300000Y-95560000D01*
X173300000Y-98330000D02*
X168180000Y-103450000D01*
X173300000Y-98100000D02*
X173300000Y-98330000D01*
%TO.N,-12V*%
X163140000Y-95560000D02*
X163140000Y-98100000D01*
X164550001Y-103200001D02*
X168300000Y-106950000D01*
X164550001Y-99510001D02*
X164550001Y-103200001D01*
X163140000Y-98100000D02*
X164550001Y-99510001D01*
%TD*%
M02*
