M48
; DRILL file {KiCad (5.1.8)-1} date 07/03/22 22:06:12
; FORMAT={-:-/ absolute / metric / decimal}
; #@! TF.CreationDate,2022-07-03T22:06:12-07:00
; #@! TF.GenerationSoftware,Kicad,Pcbnew,(5.1.8)-1
; #@! TF.FileFunction,Plated,1,2,PTH
FMAT,2
METRIC
T1C0.700
T2C0.800
T3C1.000
T4C1.100
%
G90
G05
T1
X171.4Y-132.0
X174.0Y-124.43
X174.0Y-132.05
X171.5Y-114.45
X171.5Y-122.07
X174.1Y-104.38
X174.1Y-112.0
X174.05Y-114.48
X174.05Y-122.1
X171.5Y-104.45
X171.5Y-112.07
X171.4Y-124.38
X149.4Y-120.0
X157.02Y-120.0
X149.35Y-122.45
X156.97Y-122.45
T2
X161.3Y-130.95
X163.84Y-130.95
X166.38Y-130.95
X160.43Y-110.75
X160.43Y-113.29
X160.43Y-115.83
X160.43Y-118.37
X160.43Y-120.91
X160.43Y-123.45
X160.43Y-125.99
X168.05Y-110.75
X168.05Y-113.29
X168.05Y-115.83
X168.05Y-118.37
X168.05Y-120.91
X168.05Y-123.45
X168.05Y-125.99
X157.3Y-104.05
X159.3Y-104.05
X151.55Y-103.85
X153.55Y-103.85
T3
X149.4Y-110.05
X156.9Y-110.05
X151.9Y-129.4
X156.98Y-129.4
X163.14Y-95.56
X163.14Y-98.1
X165.68Y-95.56
X165.68Y-98.1
X168.22Y-95.56
X168.22Y-98.1
X170.76Y-95.56
X170.76Y-98.1
X173.3Y-95.56
X173.3Y-98.1
X149.5Y-115.95
X157.0Y-115.95
X151.87Y-125.3
X156.95Y-125.3
X163.1Y-103.45
X168.18Y-103.45
X163.22Y-106.95
X168.3Y-106.95
T4
X159.75Y-136.3
X167.35Y-136.3
X163.6Y-136.3
T0
M30
