%TF.GenerationSoftware,KiCad,Pcbnew,(5.1.8)-1*%
%TF.CreationDate,2022-07-04T09:23:06-07:00*%
%TF.ProjectId,clip-mix,636c6970-2d6d-4697-982e-6b696361645f,rev?*%
%TF.SameCoordinates,PX8d496f0PY5974640*%
%TF.FileFunction,Copper,L1,Top*%
%TF.FilePolarity,Positive*%
%FSLAX46Y46*%
G04 Gerber Fmt 4.6, Leading zero omitted, Abs format (unit mm)*
G04 Created by KiCad (PCBNEW (5.1.8)-1) date 2022-07-04 09:23:06*
%MOMM*%
%LPD*%
G01*
G04 APERTURE LIST*
%TA.AperFunction,ComponentPad*%
%ADD10O,1.600000X1.600000*%
%TD*%
%TA.AperFunction,ComponentPad*%
%ADD11R,1.600000X1.600000*%
%TD*%
%TA.AperFunction,ComponentPad*%
%ADD12C,1.440000*%
%TD*%
%TA.AperFunction,ComponentPad*%
%ADD13O,1.400000X1.400000*%
%TD*%
%TA.AperFunction,ComponentPad*%
%ADD14C,1.400000*%
%TD*%
%TA.AperFunction,ComponentPad*%
%ADD15O,1.700000X1.700000*%
%TD*%
%TA.AperFunction,ComponentPad*%
%ADD16R,1.700000X1.700000*%
%TD*%
%TA.AperFunction,ComponentPad*%
%ADD17O,2.000000X2.000000*%
%TD*%
%TA.AperFunction,ComponentPad*%
%ADD18R,2.000000X2.000000*%
%TD*%
%TA.AperFunction,ComponentPad*%
%ADD19C,2.000000*%
%TD*%
%TA.AperFunction,ComponentPad*%
%ADD20C,1.600000*%
%TD*%
%TA.AperFunction,Conductor*%
%ADD21C,0.500000*%
%TD*%
G04 APERTURE END LIST*
D10*
%TO.P,U1,14*%
%TO.N,Net-(U1-Pad14)*%
X12280000Y-16950000D03*
%TO.P,U1,7*%
%TO.N,Net-(R3-Pad1)*%
X19900000Y-32190000D03*
%TO.P,U1,13*%
%TO.N,Net-(U1-Pad12)*%
X12280000Y-19490000D03*
%TO.P,U1,6*%
%TO.N,Net-(R2-Pad1)*%
X19900000Y-29650000D03*
%TO.P,U1,12*%
%TO.N,Net-(U1-Pad12)*%
X12280000Y-22030000D03*
%TO.P,U1,5*%
%TO.N,Earth*%
X19900000Y-27110000D03*
%TO.P,U1,11*%
%TO.N,Net-(C2-Pad2)*%
X12280000Y-24570000D03*
%TO.P,U1,4*%
%TO.N,Net-(C1-Pad1)*%
X19900000Y-24570000D03*
%TO.P,U1,10*%
%TO.N,Net-(D1-Pad2)*%
X12280000Y-27110000D03*
%TO.P,U1,3*%
%TO.N,Earth*%
X19900000Y-22030000D03*
%TO.P,U1,9*%
%TO.N,Net-(R6-Pad2)*%
X12280000Y-29650000D03*
%TO.P,U1,2*%
%TO.N,Net-(J1-Pad1)*%
X19900000Y-19490000D03*
%TO.P,U1,8*%
%TO.N,Net-(R7-Pad1)*%
X12280000Y-32190000D03*
D11*
%TO.P,U1,1*%
%TO.N,Net-(R1-Pad1)*%
X19900000Y-16950000D03*
%TD*%
D12*
%TO.P,RV1,3*%
%TO.N,Net-(D1-Pad1)*%
X18230000Y-37150000D03*
%TO.P,RV1,2*%
%TO.N,Earth*%
X15690000Y-37150000D03*
%TO.P,RV1,1*%
X13150000Y-37150000D03*
%TD*%
D13*
%TO.P,R8,2*%
%TO.N,Net-(R7-Pad1)*%
X23250000Y-30580000D03*
D14*
%TO.P,R8,1*%
%TO.N,Net-(J3-Pad1)*%
X23250000Y-38200000D03*
%TD*%
D13*
%TO.P,R7,2*%
%TO.N,Net-(R6-Pad2)*%
X1200000Y-28650000D03*
D14*
%TO.P,R7,1*%
%TO.N,Net-(R7-Pad1)*%
X8820000Y-28650000D03*
%TD*%
D13*
%TO.P,R6,2*%
%TO.N,Net-(R6-Pad2)*%
X8870000Y-26200000D03*
D14*
%TO.P,R6,1*%
%TO.N,Earth*%
X1250000Y-26200000D03*
%TD*%
D13*
%TO.P,R5,2*%
%TO.N,Net-(R3-Pad1)*%
X25850000Y-30630000D03*
D14*
%TO.P,R5,1*%
%TO.N,Net-(J2-Pad1)*%
X25850000Y-38250000D03*
%TD*%
D13*
%TO.P,R4,2*%
%TO.N,Net-(R3-Pad1)*%
X23350000Y-28270000D03*
D14*
%TO.P,R4,1*%
%TO.N,Net-(D1-Pad2)*%
X23350000Y-20650000D03*
%TD*%
D13*
%TO.P,R3,2*%
%TO.N,Net-(R2-Pad1)*%
X25900000Y-20680000D03*
D14*
%TO.P,R3,1*%
%TO.N,Net-(R3-Pad1)*%
X25900000Y-28300000D03*
%TD*%
D13*
%TO.P,R2,2*%
%TO.N,Net-(R1-Pad1)*%
X25950000Y-10580000D03*
D14*
%TO.P,R2,1*%
%TO.N,Net-(R2-Pad1)*%
X25950000Y-18200000D03*
%TD*%
D13*
%TO.P,R1,2*%
%TO.N,Net-(J1-Pad1)*%
X23350000Y-18270000D03*
D14*
%TO.P,R1,1*%
%TO.N,Net-(R1-Pad1)*%
X23350000Y-10650000D03*
%TD*%
D15*
%TO.P,J4,10*%
%TO.N,-12V*%
X14990000Y-1760000D03*
%TO.P,J4,9*%
X14990000Y-4300000D03*
%TO.P,J4,8*%
%TO.N,Earth*%
X17530000Y-1760000D03*
%TO.P,J4,7*%
X17530000Y-4300000D03*
%TO.P,J4,6*%
X20070000Y-1760000D03*
%TO.P,J4,5*%
X20070000Y-4300000D03*
%TO.P,J4,4*%
X22610000Y-1760000D03*
%TO.P,J4,3*%
X22610000Y-4300000D03*
%TO.P,J4,2*%
%TO.N,+12v*%
X25150000Y-1760000D03*
D16*
%TO.P,J4,1*%
X25150000Y-4300000D03*
%TD*%
%TO.P,J3,1*%
%TO.N,Net-(J3-Pad1)*%
%TA.AperFunction,ComponentPad*%
G36*
G01*
X12750000Y-41599999D02*
X12750000Y-43400001D01*
G75*
G02*
X12500001Y-43650000I-249999J0D01*
G01*
X10699999Y-43650000D01*
G75*
G02*
X10450000Y-43400001I0J249999D01*
G01*
X10450000Y-41599999D01*
G75*
G02*
X10699999Y-41350000I249999J0D01*
G01*
X12500001Y-41350000D01*
G75*
G02*
X12750000Y-41599999I0J-249999D01*
G01*
G37*
%TD.AperFunction*%
%TD*%
%TO.P,J2,1*%
%TO.N,Net-(J2-Pad1)*%
%TA.AperFunction,ComponentPad*%
G36*
G01*
X16600000Y-41599999D02*
X16600000Y-43400001D01*
G75*
G02*
X16350001Y-43650000I-249999J0D01*
G01*
X14549999Y-43650000D01*
G75*
G02*
X14300000Y-43400001I0J249999D01*
G01*
X14300000Y-41599999D01*
G75*
G02*
X14549999Y-41350000I249999J0D01*
G01*
X16350001Y-41350000D01*
G75*
G02*
X16600000Y-41599999I0J-249999D01*
G01*
G37*
%TD.AperFunction*%
%TD*%
%TO.P,J1,1*%
%TO.N,Net-(J1-Pad1)*%
%TA.AperFunction,ComponentPad*%
G36*
G01*
X20350000Y-41599999D02*
X20350000Y-43400001D01*
G75*
G02*
X20100001Y-43650000I-249999J0D01*
G01*
X18299999Y-43650000D01*
G75*
G02*
X18050000Y-43400001I0J249999D01*
G01*
X18050000Y-41599999D01*
G75*
G02*
X18299999Y-41350000I249999J0D01*
G01*
X20100001Y-41350000D01*
G75*
G02*
X20350000Y-41599999I0J-249999D01*
G01*
G37*
%TD.AperFunction*%
%TD*%
D17*
%TO.P,D4,2*%
%TO.N,Net-(C2-Pad2)*%
X15070000Y-13150000D03*
D18*
%TO.P,D4,1*%
%TO.N,-12V*%
X20150000Y-13150000D03*
%TD*%
D17*
%TO.P,D3,2*%
%TO.N,+12v*%
X20030000Y-9650000D03*
D18*
%TO.P,D3,1*%
%TO.N,Net-(C1-Pad1)*%
X14950000Y-9650000D03*
%TD*%
D17*
%TO.P,D2,2*%
%TO.N,Net-(D1-Pad1)*%
X3720000Y-31500000D03*
D18*
%TO.P,D2,1*%
%TO.N,Net-(D1-Pad2)*%
X8800000Y-31500000D03*
%TD*%
D17*
%TO.P,D1,2*%
%TO.N,Net-(D1-Pad2)*%
X8830000Y-35600000D03*
D18*
%TO.P,D1,1*%
%TO.N,Net-(D1-Pad1)*%
X3750000Y-35600000D03*
%TD*%
D19*
%TO.P,C4,2*%
%TO.N,Net-(C2-Pad2)*%
X8750000Y-16250000D03*
%TO.P,C4,1*%
%TO.N,Earth*%
X1250000Y-16250000D03*
%TD*%
%TO.P,C3,2*%
%TO.N,Earth*%
X1350000Y-22150000D03*
%TO.P,C3,1*%
%TO.N,Net-(C1-Pad1)*%
X8850000Y-22150000D03*
%TD*%
D20*
%TO.P,C2,2*%
%TO.N,Net-(C2-Pad2)*%
X3400000Y-10050000D03*
D11*
%TO.P,C2,1*%
%TO.N,Earth*%
X5400000Y-10050000D03*
%TD*%
D20*
%TO.P,C1,2*%
%TO.N,Earth*%
X9150000Y-10250000D03*
D11*
%TO.P,C1,1*%
%TO.N,Net-(C1-Pad1)*%
X11150000Y-10250000D03*
%TD*%
D21*
%TO.N,Earth*%
X22610000Y-1760000D02*
X20070000Y-1760000D01*
X20070000Y-1760000D02*
X17530000Y-1760000D01*
X17530000Y-1760000D02*
X17530000Y-4300000D01*
X17530000Y-4300000D02*
X20070000Y-4300000D01*
X20070000Y-4300000D02*
X22610000Y-4300000D01*
X22610000Y-4300000D02*
X22610000Y-1760000D01*
X20070000Y-1760000D02*
X20070000Y-4300000D01*
X8950000Y-10050000D02*
X9150000Y-10250000D01*
X5400000Y-10050000D02*
X8950000Y-10050000D01*
X16229999Y-459999D02*
X17530000Y-1760000D01*
X14365999Y-459999D02*
X16229999Y-459999D01*
X9150000Y-5675998D02*
X14365999Y-459999D01*
X9150000Y-10250000D02*
X9150000Y-5675998D01*
X2799999Y-8799999D02*
X4149999Y-8799999D01*
X4149999Y-8799999D02*
X5400000Y-10050000D01*
X1250000Y-10349998D02*
X2799999Y-8799999D01*
X1250000Y-16250000D02*
X1250000Y-10349998D01*
X1250000Y-22050000D02*
X1350000Y-22150000D01*
X1250000Y-16250000D02*
X1250000Y-22050000D01*
X1350000Y-26100000D02*
X1250000Y-26200000D01*
X1350000Y-22150000D02*
X1350000Y-26100000D01*
X13150000Y-37150000D02*
X15690000Y-37150000D01*
X19900000Y-27799998D02*
X19900000Y-27110000D01*
X15690000Y-32009998D02*
X19900000Y-27799998D01*
X15690000Y-37150000D02*
X15690000Y-32009998D01*
X24500001Y-19900001D02*
X24500001Y-23649999D01*
X24099999Y-19499999D02*
X24500001Y-19900001D01*
X22430001Y-19499999D02*
X24099999Y-19499999D01*
X19900000Y-22030000D02*
X22430001Y-19499999D01*
X21040000Y-27110000D02*
X19900000Y-27110000D01*
X24500001Y-23649999D02*
X21040000Y-27110000D01*
X18579999Y-10346001D02*
X18579999Y-5790001D01*
X18579999Y-5790001D02*
X20070000Y-4300000D01*
X19333999Y-11100001D02*
X18579999Y-10346001D01*
X21600001Y-11950001D02*
X20750001Y-11100001D01*
X19839997Y-14600001D02*
X21510001Y-14600001D01*
X18649999Y-15789999D02*
X19839997Y-14600001D01*
X20750001Y-11100001D02*
X19333999Y-11100001D01*
X21510001Y-14600001D02*
X21600001Y-14510001D01*
X18649999Y-20779999D02*
X18649999Y-15789999D01*
X21600001Y-14510001D02*
X21600001Y-11950001D01*
X19900000Y-22030000D02*
X18649999Y-20779999D01*
%TO.N,Net-(C1-Pad1)*%
X11750000Y-9650000D02*
X11150000Y-10250000D01*
X14950000Y-9650000D02*
X11750000Y-9650000D01*
X8850000Y-18529998D02*
X8850000Y-22150000D01*
X11679999Y-15699999D02*
X8850000Y-18529998D01*
X16520001Y-14129999D02*
X14950001Y-15699999D01*
X16520001Y-11220001D02*
X16520001Y-14129999D01*
X14950000Y-9650000D02*
X16520001Y-11220001D01*
X14800001Y-19470001D02*
X14800001Y-15699999D01*
X19900000Y-24570000D02*
X14800001Y-19470001D01*
X14800001Y-15699999D02*
X11679999Y-15699999D01*
X14950001Y-15699999D02*
X14800001Y-15699999D01*
%TO.N,Net-(C2-Pad2)*%
X11850000Y-13150000D02*
X8750000Y-16250000D01*
X15070000Y-13150000D02*
X11850000Y-13150000D01*
X8468630Y-16250000D02*
X8750000Y-16250000D01*
X3400000Y-11181370D02*
X8468630Y-16250000D01*
X3400000Y-10050000D02*
X3400000Y-11181370D01*
X7399999Y-17600001D02*
X8750000Y-16250000D01*
X7399999Y-22846001D02*
X7399999Y-17600001D01*
X8323999Y-23770001D02*
X7399999Y-22846001D01*
X11480001Y-23770001D02*
X12280000Y-24570000D01*
X8323999Y-23770001D02*
X11480001Y-23770001D01*
%TO.N,Net-(D1-Pad2)*%
X8830000Y-31530000D02*
X8800000Y-31500000D01*
X8830000Y-35600000D02*
X8830000Y-31530000D01*
X23220001Y-20779999D02*
X23350000Y-20650000D01*
X8800000Y-30590000D02*
X12280000Y-27110000D01*
X8800000Y-31500000D02*
X8800000Y-30590000D01*
X9360001Y-30939999D02*
X8800000Y-31500000D01*
X12880001Y-30939999D02*
X9360001Y-30939999D01*
X17960001Y-25859999D02*
X12880001Y-30939999D01*
X20440001Y-25859999D02*
X17960001Y-25859999D01*
X23350000Y-22950000D02*
X20440001Y-25859999D01*
X23350000Y-20650000D02*
X23350000Y-22950000D01*
%TO.N,Net-(D1-Pad1)*%
X3750000Y-31530000D02*
X3720000Y-31500000D01*
X3750000Y-35600000D02*
X3750000Y-31530000D01*
X7170011Y-39020011D02*
X3750000Y-35600000D01*
X17378222Y-39020011D02*
X7170011Y-39020011D01*
X18230000Y-38168233D02*
X17378222Y-39020011D01*
X18230000Y-37150000D02*
X18230000Y-38168233D01*
%TO.N,Net-(J1-Pad1)*%
X19200000Y-42500000D02*
X19400001Y-42299999D01*
X27100001Y-31082001D02*
X27100001Y-17647999D01*
X19200000Y-42500000D02*
X20100011Y-41599989D01*
X24699999Y-33482003D02*
X27100001Y-31082001D01*
X24699999Y-38452003D02*
X24699999Y-33482003D01*
X20652002Y-42500000D02*
X24699999Y-38452003D01*
X19200000Y-42500000D02*
X20652002Y-42500000D01*
X24570001Y-17049999D02*
X23350000Y-18270000D01*
X26502001Y-17049999D02*
X24570001Y-17049999D01*
X27100001Y-17647999D02*
X26502001Y-17049999D01*
X21120000Y-18270000D02*
X23350000Y-18270000D01*
X19900000Y-19490000D02*
X21120000Y-18270000D01*
%TO.N,Net-(J2-Pad1)*%
X17050010Y-44100010D02*
X15450000Y-42500000D01*
X20989939Y-44100010D02*
X17050010Y-44100010D01*
X25850000Y-39239949D02*
X20989939Y-44100010D01*
X25850000Y-38250000D02*
X25850000Y-39239949D01*
%TO.N,Net-(J3-Pad1)*%
X20550019Y-40899981D02*
X23250000Y-38200000D01*
X13200019Y-40899981D02*
X20550019Y-40899981D01*
X11600000Y-42500000D02*
X13200019Y-40899981D01*
%TO.N,Net-(R1-Pad1)*%
X25880000Y-10650000D02*
X25950000Y-10580000D01*
X23350000Y-10650000D02*
X25880000Y-10650000D01*
X23350000Y-14800000D02*
X23350000Y-10650000D01*
X21200000Y-16950000D02*
X23350000Y-14800000D01*
X19900000Y-16950000D02*
X21200000Y-16950000D01*
%TO.N,Net-(R2-Pad1)*%
X25950000Y-20630000D02*
X25900000Y-20680000D01*
X25950000Y-18200000D02*
X25950000Y-20630000D01*
X25900000Y-23650000D02*
X25900000Y-20680000D01*
X19900000Y-29650000D02*
X25900000Y-23650000D01*
%TO.N,Net-(R3-Pad1)*%
X19900000Y-31920000D02*
X19900000Y-32190000D01*
X23380000Y-28300000D02*
X23350000Y-28270000D01*
X25900000Y-28300000D02*
X23380000Y-28300000D01*
X19900000Y-31720000D02*
X19900000Y-32190000D01*
X23350000Y-28270000D02*
X19900000Y-31720000D01*
X25850000Y-28350000D02*
X25900000Y-28300000D01*
X25850000Y-30630000D02*
X25850000Y-28350000D01*
%TO.N,Net-(R6-Pad2)*%
X6420000Y-28650000D02*
X8870000Y-26200000D01*
X1200000Y-28650000D02*
X6420000Y-28650000D01*
X8870000Y-26200000D02*
X8870000Y-26240000D01*
X13530001Y-28399999D02*
X12280000Y-29650000D01*
X13530001Y-26509999D02*
X13530001Y-28399999D01*
X12880001Y-25859999D02*
X13530001Y-26509999D01*
X11679999Y-25859999D02*
X12880001Y-25859999D01*
X11339998Y-26200000D02*
X11679999Y-25859999D01*
X8870000Y-26200000D02*
X11339998Y-26200000D01*
%TO.N,Net-(R7-Pad1)*%
X12280000Y-32190000D02*
X12280000Y-32110000D01*
X23250000Y-31569949D02*
X23250000Y-30580000D01*
X21379948Y-33440001D02*
X23250000Y-31569949D01*
X20208397Y-33440001D02*
X21379948Y-33440001D01*
X17059999Y-36588399D02*
X20208397Y-33440001D01*
X17059999Y-37511603D02*
X17059999Y-36588399D01*
X12588399Y-38320001D02*
X16251601Y-38320001D01*
X11480001Y-37211603D02*
X12588399Y-38320001D01*
X11480001Y-32989999D02*
X11480001Y-37211603D01*
X16251601Y-38320001D02*
X17059999Y-37511603D01*
X12280000Y-32190000D02*
X11480001Y-32989999D01*
X8295601Y-37211603D02*
X11480001Y-37211603D01*
X7349999Y-36266001D02*
X8295601Y-37211603D01*
X7349999Y-30120001D02*
X7349999Y-36266001D01*
X8820000Y-28650000D02*
X7349999Y-30120001D01*
%TO.N,Net-(U1-Pad12)*%
X12280000Y-22030000D02*
X12280000Y-19490000D01*
%TO.N,+12v*%
X25150000Y-4300000D02*
X25150000Y-1760000D01*
X25150000Y-4530000D02*
X20030000Y-9650000D01*
X25150000Y-4300000D02*
X25150000Y-4530000D01*
%TO.N,-12V*%
X14990000Y-1760000D02*
X14990000Y-4300000D01*
X16400001Y-9400001D02*
X20150000Y-13150000D01*
X16400001Y-5710001D02*
X16400001Y-9400001D01*
X14990000Y-4300000D02*
X16400001Y-5710001D01*
%TD*%
M02*
